<?xml version="1.0" encoding="UTF-8"?>
<svg id="Calque_1" data-name="Calque 1" xmlns="http://www.w3.org/2000/svg" viewBox="0 0 60 580.5">
  <defs>
    <style>
      .cls-1 {
        fill: #cbb687;
        stroke-width: 0px;
      }
    </style>
  </defs>
  <polygon class="cls-1" points="36.52 80.53 29.48 83.83 36.52 92.87 36.52 256.8 30 250.28 23.47 256.81 23.47 202.16 30 182.71 23.47 193.71 23.47 124.62 27.19 119.2 23.47 118.13 23.47 63.44 30 69.97 36.52 63.45 36.52 80.53"/>
  <path class="cls-1" d="m30,330.22l6.52-6.52v86.82l-6.52-1.63s2.97,4.31,6.52,9.47v98.7l-6.52-6.52-6.53,6.53v-52.27l5.72.02-5.72-3.91v-109.52l6.53-9.4-6.53,2.71v-21.01l6.53,6.53Z"/>
</svg>