<?xml version="1.0" encoding="UTF-8"?>
<svg id="Layer_1" data-name="Layer 1" xmlns="http://www.w3.org/2000/svg" viewBox="0 0 475.04 436.94">
  <defs>
    <style>
      .cls-1 {
        fill: #49d59c;
        stroke-width: 0px;
      }
    </style>
  </defs>
  <path class="cls-1" d="m367.51,350.57c.71.04,1.46.23,2.14.08,1.17-.25,2.03.16,2.88.87.73.61,1.55,1.13,2.51,1.83.49-1.18.79-2.16,1.28-3.04.47-.85,1.34-1.52,1.64-2.41.33-.95.34-2.07.25-3.1-.14-1.56.28-2.73,1.42-3.87,2.23-2.22,4.3-4.61,6.42-6.93.3-.33.55-.71.58-1.34-1.29,1-2.53,2.07-3.89,2.97-1.37.92-2.85,1.67-4.35,2.53-.33-.85.18-1.34.57-1.82,1.18-1.41,2.4-2.78,3.6-4.17.52-.59,1.06-1.17,1.54-1.79q1.67-2.16,1.1-5.26h-1.77c-.63-1.67-1.95-2.1-3.6-2.13-.9-.02-1.77-.46-2.68-.6-.87-.14-1.76-.16-2.7-.23.11-1.71,1.22-2.46,2.36-3.05.38-.19,1.24.02,1.57.36,1.86,1.92,4.36,1.9,6.63,1.86,2.56-.04,6.27-3.09,6.14-6.6-.07-1.84-.58-2.93-2.08-3.75-.57-.31-1.11-.69-1.77-1.1-.41.55-.77,1.03-1.19,1.61-.55-.41-1.01-.75-1.28-.96-1.38.15-2.59.23-3.79.42-.49.08-.94.4-1.41.6-.6.25-1.2.51-1.81.71-.24.08-.52.03-.78,0-1.28-.13-2.56-.27-3.99-.42.78-.97,1.46-1.81,2.28-2.82,1.32-.21,1.61-.45,1.97-1.9.39-1.62.54-3.23-.41-4.74-.51-.82-.33-1.74.48-2.01,2.05-.67,3.3-2.03,4.05-4.34.86,1.5.01,2.42-.27,3.39-.31,1.06-.69,2.09-1.03,3.1,2.19,1.26,2.72,1.18,3.65-.77.52-1.09,1.27-1.75,2.35-2.21,2.53-1.07,3.98-3.14,4.91-5.61.15-.4.22-.97.05-1.31-.94-1.87-.33-3.58.41-5.3.21-.48.41-.97.67-1.43.45-.8.46-1.57.22-2.46-.25-.94-.44-1.95-.37-2.91.1-1.35-.04-2.61-.59-3.83-.59-1.29-.13-2.3.9-3.12,1.03-.82,2.05-1.65,3.15-2.36,1.68-1.09,2.1-2.61,1.71-4.44-.44-2.1-1.7-3.63-3.87-4.92-.31.44-.68.95-1.05,1.47-.83-1.34-.63-3.28.72-4.04,2.62-1.47,3-3.94,3.3-6.5.14-1.24.31-2.49.26-3.73-.09-1.98-.61-3.82-2.66-4.91.1-.34.17-.72.31-1.07.74-1.87.16-3.6-1.59-4.47-.35-.17-.9-.12-1.3.01-1.9.62-3.25,1.71-3.9,3.77-.35,1.1-1.37,1.98-2.33,3.3-.17-.69-.33-.96-.26-1.11.82-1.63,1.64-3.26,2.55-4.85.91-1.58,1.93-3.1,2.88-4.66.08-.13.01-.36.01-.95-.99,1.1-1.78,1.99-2.35,2.63-1.2.15-2.12.26-3.38.42-.19-.33-.69-.87-.85-1.5-.46-1.86-1.43-3.39-2.74-4.71-.71-.71-.85-1.4-.59-2.3.64-2.17.62-4.57,2.52-6.62.14,1.29.26,2.37.41,3.69,1.29-1.19,2.18-2.26,2.07-3.85-.06-.83.26-1.39,1.01-1.72,1.1-.47,1.67-1.38,2.21-2.4.49-.91,1.16-1.74,1.81-2.56.85-1.08,1.71-2.15,2.65-3.16,1.72-1.84,1.61-3.88.77-6.03-.07-.18-.1-.38-.17-.67,1.1-.68,1.17-1.71.89-2.88-.18-.76-.28-1.55-.33-2.33-.07-1.09-.37-1.96-1.63-2.07-.85-.08-1.09-.62-1.09-1.35,0-1.12.01-2.23.03-3.35.01-.98-.3-1.72-1.2-2.3-.73-.47-1.28-1.23-2.06-2.02,1.76-1.19,2.33-3.54,4.92-3.21.34-1.96,1.08-3.75-.52-5.44-.6-.63-.82-1.46-.57-2.39.08-.28-.17-.65-.38-1.3-.87,1.6-1.6,2.88-2.28,4.19-.61,1.17-.83,1.29-1.94.85-2.24-.9-2.82-.71-3.77,1.4-.36.78-.9,1.22-1.71,1.48-2.69.87-3.47,2.06-3.56,4.81-.04,1.16.24,2.12.71,3.17.86,1.93,1.13,4,.05,6.26-.22-.37-.44-.58-.49-.83-.52-2.63-.99-5.28-1.53-7.91-.2-.96-.12-1.76.44-2.6.88-1.3,1.61-2.7,2.41-4.06.46-.78.41-1.38-.32-2.07-.98-.93-1.79-2.05-2.48-3.36,1.58.55,3.17,1.08,4.74,1.65,1.02.37,2.02.54,3.05.04.73-.35,1.08-.86,1.12-1.69.1-2.29-2.07-4.81-4.33-4.76-.55.01-1.09.71-1.88,1.28-1.04-1.01-2.2-2.12-3.4-3.29-.53-.12-.93,1.04-1.64.25-.52-.58-.81-1.21-.57-1.97.15-.5.48-.96.56-1.46.05-.33-.22-.72-.45-1.38-.61,1.23-1.14,2.06-1.42,2.97-.19.63-.21,1.43.02,2.04.64,1.71.26,3.38-.07,5.03-.09.46-.71.89-1.18,1.18-.48.3-1.08.42-1.69.64-.75-.31-.85-.9-.68-1.73.14-.67.13-1.4,0-2.07-.1-.55-.61-1.04-.7-1.59-.08-.47.17-1,.3-1.49.14-.53.32-1.05.96-1.97-.63-.61-1.26-1.21-2.19-2.1-.65,2.07-1.12,3.53-1.63,5.16-.55-.3-.93-.42-1.19-.66-1.06-.98-2.03-1.98-3.65-2.11-.58-.05-1.25-.76-1.6-1.33-1.15-1.88-2.39-3.61-4.49-4.52-.27-.12-.43-.47-.72-.81.29-.42.56-.82.79-1.15-2.36-3.39-6.16-4.1-9.57-5.48-.44-.18-.96-.14-1.54-.21,1.91,6.01,4.82,11.26,7.96,16.45.66-.25,1.06-.4,1.48-.55.18.16.39.27.44.43.13.36.38.85.25,1.12-.83,1.72.3,2.99.88,4.4.4.97.65,1.88.46,3.02-.27,1.62.39,3.12,1.29,4.44.16-.04.33-.08.49-.11-.13-.92-.25-1.85-.4-2.94.73-.1,1.41-.2,2.14-.3,1,1.42,1.56,2.9,1.31,4.71.5.18.96.35,1.28.47.53,2.29,1.04,4.47,1.64,7.03-.77-.38-1.14-.56-1.56-.76-.15.28-.32.58-.53.96-.39-.62-.72-1.14-1.1-1.74-.63,1.48-1.84,9.84-1.63,11.15.08.52.11,1.1.38,1.52.93,1.45,1.05,3.08,1.23,4.71.3,2.67.69,5.33.92,8,.12,1.33-.02,1.36-1.79,1.56-.06-1.03-.13-2.05-.19-3.06-.08-1.38-.13-2.76-.27-4.13-.03-.34-.33-.93-.49-.93-.39.01-.9.21-1.13.51-.3.39-.48.94-.55,1.44-.26,1.82-.44,3.64-.66,5.46-.24,2.01-.37,2.14-2.8,2.54-.16-.56-.41-1.15-.48-1.75-.74-5.99-1.45-11.98-2.16-17.97-.22-1.82-.44-3.65-.66-5.47-.27-2.25-.04-2.68,1.97-3.76,2.5-1.35,2.55-1.36,2.04-4.19-.36-2-.83-3.98-1.32-5.95-.16-.67-.51-1.29-.81-2.02-.86.3-1.51.53-2.24.79-.35-1.36.32-2.42.72-3.47,1.15-3.06-.54-5.42-1.8-7.89-.14-.28-.8-.41-1.22-.42-.96-.02-1.99-.23-2.87.67.13.39.21.84.42,1.22.65,1.18.74,2.32.17,3.57-.26.56-.26,1.25-.34,1.89-.05.38.13.86-.04,1.15-.49.82-.56,1.64-.06,2.41.67,1.04,1.32,2.14,2.23,2.94.45.4,1.44.18,2.44.26-.02-.02.25.15.29.36.39,1.93.78,3.85,1.1,5.79.24,1.42-.34,2.53-1.74,3.51-.37-.59-.79-1.06-1.02-1.62-2.97-7.36-5.92-14.74-8.84-22.12-.29-.72-.4-1.52-.56-2.29-.24-1.17.07-1.99,1.06-2.89,1.33-1.21,2.89-1.91,4.48-2.86.28-1.57-.97-2.55-1.64-3.74-1.02-1.8-2.77-2.86-4.34-4.08-1.12-.87-1.28-.87-2.4-.05-1.19.87-1.44,1.45-.88,2.66.85,1.85,1.72,3.69,2.72,5.46.77,1.35.5,2.45-.49,3.79-.87-1.03-1.7-1.93-2.44-2.9-4.09-5.38-8.16-10.78-12.25-16.17-.9-1.19-1.38-2.49-1.55-3.97-.22-1.95-.49-3.92-.99-5.81-.23-.87-.96-1.69-1.65-2.34-2.74-2.55-5.67-4.9-8.29-7.56-1.87-1.9-3.91-3.49-6.19-4.81-2.56-1.48-5.08-3.04-7.69-4.41-2.06-1.08-3.2-2.45-2.51-4.87.24-.84-.16-1.43-.91-1.73-2.75-1.07-5.48-2.21-8.29-3.11-1.43-.46-2.8.23-4.28,1.2,1.46,1.22,3.28,1.24,4.67,2.13,1.4.9,3.29.89,4.58,2.45-1.14,1.41-2.55,1.81-4.18,1.49-1.93-.38-3.83-.87-5.75-1.29-4.29-.94-8.58-1.86-12.88-2.79-2.56-.56-3.96-3.29-3.03-5.82.15-.4.13-.86.2-1.42-.61-.14-1.11-.3-1.61-.35-2.35-.23-4.7-.46-7.06-.63-1.44-.1-2.9.95-3.27,2.29-.22.82.2,1.25.96,1.4,1.42.27,2.86.44,4.25.8,1.58.4,3.13.92,4.65,1.51.37.14.84.92.73,1.16-.2.44-.76.88-1.25.98-.75.16-1.57.06-2.35.02-5.51-.26-11.02-.52-16.53-.81-1.7-.09-3.4-.3-5.1-.46-1.7-.16-3.14-1.32-3.35-3.02-.27-2.21-1.74-3.76-2.85-5.49-.23-.36-1.04-.36-1.6-.49-.75-.18-1.71-.09-2.24-.53-1.96-1.61-3.47-.13-5.15.47,1.33.48,3.11-.25,3.84,1.77-.31.16-.57.37-.86.43-2.16.5-4.34.96-6.5,1.48-1.33.32-1.75.9-1.73,2.19.02,1.31.48,1.93,1.81,2.13,1.1.17,2.22.25,3.33.26,3.6.02,7.21-.02,10.81-.02.25,0,.5.11.72.16.35,1.91.23,2.16-1.51,2.43-4.21.66-8.43,1.28-12.65,1.9-3.38.5-6.76.93-10.13,1.47-1.5.24-2.85.37-3.85-1.12-.27-.4-.83-.61-1.36-.98.05-.58.11-1.2.17-1.9-1.34-.53-2.16.31-2.56,1.2-.57,1.27-1.56,1.65-2.7,2.04-3.35,1.14-6.69,2.32-10.02,3.52-.58.21-1.11.57-1.77.93.75,1.15,1.62.9,2.39.68,2.53-.72,5.03-1.5,7.55-2.25,1.63-.49,3.27-.98,4.91-1.46.31-.09.68-.29.95-.2.44.14.97.4,1.17.76.13.24-.16.82-.4,1.14-.17.23-.56.32-.86.45-7.07,3.01-14.15,5.99-21.2,9.04-1.42.62-2.54.43-3.52-.7-1.24-1.42-2.62-2.15-4.52-.67-.1-1.46.93-2.84-.45-3.86-1.77.59-2.42,1.43-1.99,3.15.33,1.3.04,2.03-1.03,2.81-1.04.76-1.99,1.74-2.73,2.8-.74,1.06-1.64,1.8-2.67,2.53-1.61,1.13-3.07,2.46-4.57,3.73-.27.23-.41.59-.5,1.04,6.17-2.81,12.16-5.89,17.87-9.65.78,1.32.14,2.01-.68,2.65-2.73,2.15-5.46,4.31-8.2,6.46-2.43,1.9-4.86,3.8-7.3,5.68-1.19.92-2.37,1.87-3.61,2.72-1.21.83-2.37.28-3.51-.3-.78-.39-1.25-1.65-2.3-1.16-.73.34-1.26,1.11-1.86,1.71-4.07,4.05-7.56,8.54-10.28,13.62-.43.81-.94,1.59-1.54,2.28-.45.51-1.04.99-1.67,1.25-1.49.62-2.17,1.78-2.61,3.22-.38,1.24-.74,2.51-1.34,3.65-.78,1.49-1.34,2.95-1.27,4.67.03.74-.27,1.53-.55,2.25-1.23,3.11-2.7,6.14-3.72,9.31-.82,2.54-1.14,5.24-1.66,7.88-.05.24.05.51.08.74.82.27.92-.34,1.13-.8,2-4.5,3.99-9,6.01-13.48.86-1.91,1.8-3.79,2.73-5.68.36-.74.84-1.36,1.83-1.08,1.07.3,1.44,1.02,1.03,2.11-2.86,7.68-5.73,15.36-8.61,23.04-.77,2.04-1.29,2.38-3.53,2.32q-2.76-.07-3.22,2.64c-.27,1.62-.67,3.23-.74,4.86-.12,2.81-.07,5.63.77,8.37.08.25.14.57.32.7.38.27.83.44,1.25.65.09-.41.27-.84.23-1.24-.05-.44-.36-.85-.45-1.29-.15-.75-.41-1.55-.29-2.28.53-3.24,1.19-6.45,1.78-9.68.16-.86.49-1.47,1.48-1.52,1.23-.07,1.74.3,1.69,1.54-.07,1.9-.22,3.8-.39,5.69-.51,5.88-1.05,11.76-1.57,17.64-.03.33-.06.65-.07.98-.07,2.19-.98,3.2-3.14,3.48-.33.04-.66.04-.98.08-.71.08-1.06.5-1.03,1.19.1,2.36.17,4.72.34,7.08.15,1.97.83,3.78,1.51,5.65,1.01,2.75,1.43,5.71,2.13,8.58.39,1.59.76,3.2,1.32,4.73.58,1.6,1.08,1.76,2.7,1.31.38-.11.76-.31,1.13-.3.34,0,.67.23,1,.36-.16.39-.23.91-.52,1.13-.32.24-.86.31-1.3.28-1.57-.08-2.19,1.07-1.76,2.51.19.63.34,1.27.59,1.88.56,1.39.51,2.57-1.33,3.43,1.19,1,2.19,1.88,3.23,2.71.97.78,1.1,2.47,3.06,2.59-.35-1.26-.6-2.39-.98-3.48-.26-.74-.7-1.41-1.06-2.11-1.18-2.32-.9-3.4,1.36-5.01.28.21.66.38.87.67,1.01,1.44,2.03,2.88,2.96,4.38,2.47,4.02,4.89,8.07,7.35,12.09.34.56.87,1,1.18,1.57.5.91.99,1.84,1.32,2.82.31.93.1,1.93-.75,2.47-1.51.95-.88,2.61-1.42,3.88-.26.61.56.84,1.19.93,2,.29,4,.66,6,.97,2.08.32,3.36,1.37,3.4,3.61,0,.25.14.49.26.9.75.11,1.51.22,2.28.33,2.27.33,4.54.74,6.82.96,1.58.16,2.61.9,3.07,2.34.45,1.42,1.34,1.92,2.78,1.94,2.48.04,4.97.17,7.44.34.61.04,1.32.25,1.76.64.82.73,1.48,1.65,2.27,2.55-.37.53-.69.99-1.01,1.43.08.12.13.29.21.31,2.62.51,5.24.45,7.7-.63,1-.44,1.76-.36,2.54.26.51.41.96.9,1.44,1.34,1.54,1.4,1.55,1.51.25,3.14-.27.34-.55.69-1.01,1.27,1.61.04,2.79-.46,3.89-1.05,2.15-1.14,4.13-2.51,5.64-4.51,1.34-1.78,2-1.79,3.78-.54,2.95,2.07,5.91,4.15,8.85,6.24,1.39.99,1.5,1.58.4,2.86-1.19,1.39-2.42,2.77-3.74,4.04-1.88,1.8-4.11,3-6.7,3.55-2.76.58-5.57,1.06-8.05,2.51-.76.45-1.44,1.02-2.48,1.78.84.37,1.26.64,1.71.75,3.9.91,7.81,1.77,11.71,2.67,3.05.71,3.24.97,3.18,4.13-.02,1.29.13,1.53,1.34,1.7,2.47.35,4.94.68,7.41.94.99.1,2.04.27,3.23-.36-.39-.27-.56-.47-.76-.52-2.22-.58-4.44-1.14-6.66-1.7-.38-.1-.77-.18-1.14-.31-.87-.3-1.19-.99-1.15-1.85.04-.96.77-1.14,1.53-1.18,1.31-.06,2.63-.11,3.94-.11,6.24,0,12.48,0,18.72.03,2.85.01,3.62.77,3.79,3.56.18,2.88.18,2.85,3.05,2.59,1.96-.18,3.94-.19,5.9-.38,1.56-.15,3.12-.4,4.66-.68.69-.13,1.44-.32,1.59-1.34-.96-1.22-2.37-1.45-3.81-1.51-2.69-.12-5.38-.18-8.08-.24-1.34-.03-2.2-.59-2.61-2.14.77-.17,1.45-.36,2.13-.46,7.41-1.08,14.81-2.15,22.23-3.19,1.1-.15,2.23-.13,3.34-.08,1.36.06,1.64.33,2.04,1.69.2.69.34,1.4.5,2.11.17.79.71,1.18,1.44.96,2.82-.84,5.63-1.74,8.43-2.67.29-.1.7-.67.63-.84-.15-.36-.56-.79-.91-.83-.9-.11-1.83-.07-2.75,0-1.05.08-2.08.28-3.12.41-1.79.22-2.39-.12-3.52-2.07.63-.33,1.23-.69,1.87-.96,6.77-2.86,13.55-5.71,20.33-8.56,2.16-.91,3.41-.49,4.57,1.54.03.06.05.12.08.18q1.42,2.62,3.87,1.07c1.72-1.09,3.43-2.2,5.13-3.31,1.46-.95,1.94-1.63,1.51-2.2-.76-1-1.83-.62-2.72-.31-1.79.64-3.52,1.44-5.27,2.17-1.45.6-2.09.33-3.02-1.35.5-.44,1.01-.94,1.57-1.37,5.65-4.28,11.25-8.64,17.01-12.78,1.58-1.13,2.9-2.26,4.11-3.85,5.04-6.64,10.29-13.12,15.55-19.59,1.22-1.49,2.2-3.02,2.96-4.8,2.88-6.76,5.92-13.46,8.86-20.19.93-2.13,2.8-2.23,4.63-2.22,2.61,0,2.59.09,3.16-2.45.43-1.92.94-3.82,1.38-5.74.17-.74.23-1.5.36-2.32-1.41-.21-1.81.67-2.18,1.49-.86,1.92-1.66,3.86-2.5,5.78-.72,1.64-1.15,1.88-3.17,1.69,0-.87-.11-1.78.02-2.66,1.04-7,2.19-13.99,3.17-21.01.37-2.65,1.91-3.87,4.31-4.41.96-.22,1.89-.52,2.84-.77.99-.27,1.38-.04,1.45.95.05.65.1,1.36-.1,1.95-.73,2.19-.55,4.41-.32,6.63.19,1.8.41,3.6.66,5.77.5-.52.83-.73.94-1.02.51-1.42.98-2.85,1.43-4.29.28-.88.36-1.84.77-2.64,1.08-2.12.99-4.3.61-6.53-.1-.61-.1-1.24-.14-1.86l.42-.18c.3.36.65.68.9,1.07.55.84,1.22,1.13,2.17.64,1.32-.69,2.67-1.32,3.99-2.01.64-.34,1.28-.35,1.41.4.34,2.06.54,4.14.77,6.22,0,.08-.16.18-.41.45-.48-.7-.93-1.35-1.51-2.2-.23.47-.49.77-.51,1.08-.08,1.51-.09,3.02-.14,4.53-.02.71.28,1.19.83,1.66,2.36,2,2.93,4.45,1.85,7.38-.32.86-.62,1.74-.76,2.64-.1.61-.16,1.47.18,1.88,1.11,1.35.61,2.56-.01,3.83-.93,1.88-.29,3.73.35,5.47.27.73,1.22,1.2,2.04,1.96-.05.12-.13.58-.37.92-.85,1.2-1.17,2.51-.83,3.92.47,1.93-.29,3.31-1.79,4.43-.79.58-1.57,1.13-1.52,2.34.01.39-.53.86-.9,1.21-1.62,1.51-3.69,1.9-5.77,2.29-.94.18-2.14.21-2.71.8-.99,1.01-1.57,2.44-1.48,3.95.12,2.03.23,4.06.48,6.08.23,1.84-.04,3.32-1.73,4.44-1.14.76-1.16,1.81-.44,3.45,1.61-.74,2.99-2.56,3.57-4.8.47-1.8,1.26-3.3,3.22-3.84.09.11.26.23.24.28-.79,1.89-1.2,3.84-1.25,5.91-.03,1.46-.79,2.72-1.8,3.84-.96,1.06-1.81,2.22-2.63,3.39-.86,1.23-1.74,2.32-3.44,2.25-.31-.01-.7.05-.94.23-1.46,1.08-2.77,2.34-4.01,3.57.51.67.86,1.13,1.21,1.6-.58.37-1.11.86-1.74,1.1-.88.34-1.96.24-2.59,1.46.68.17,1.26.31,1.9.47.39,1.28-.36,2.01-1.19,2.67-2.36,1.84-2.79,4.27-2.28,7.27.78-.14,1.48-.27,2.07-.37-.27-1.03-.69-1.82-.63-2.56.1-1.25,1.16-2.07,2.42-2.18,1.09-.1,1.9.33,2.25,1.22.36.94-.03,1.83-.76,2.24-1.05.58-1.55,1.3-1.35,2.5-.86.07-1.56.13-2.14.18-.43,1.61-.82,3.09-1.23,4.57-.36,1.29-1.32,2.09-2.35,2.81-1.52,1.04-3.04,2.08-4.6,3.04-1.05.65-1.89,1.42-2.18,2.66-.2.86-.66,1.35-1.57,1.52-.49.09-1.01.36-1.37.71-.57.55-1.17.8-1.95.72-.84-.09-1.41.3-1.67,1.07-.74,2.18-2.08,3.92-3.74,5.47-.24.22-.31.62-.63,1.31,2.49-.95,3.57-2.92,5.15-4.37.39.38.7.9,1.11,1,.45.11,1.02-.11,1.5-.29,2.99-1.19,5.96-2.42,8.95-3.62.89-.36,1.78-.82,2.98-.22-.31.47-.5.85-.79,1.15-.31.33-.82.51-1.05.87-.29.46-.55,1.06-.5,1.57.07.72.79.79,1.39.78,2.03-.04,4.07-.12,6.1-.15.77-.01,1.54.07,2.32.11.85.04,1.7.17,2.54.1,2.52-.2,3-.71,3.13-3.27.07-1.41.72-2.77.1-4.25-.7-1.7-1.39-2.19-3.11-1.45-1.42.61-2.23,0-2.95-1.15-.63.11-1.2.26-1.78.29-.54.02-1.08-.09-2.02-.17,1.18-1.21,2.07-2.09,2.91-3.01.84-.91.11-2.46,1.39-3.57.21.64.38,1.02.45,1.42.39,2.18,1.38,2.84,3.6,2.43.96-.18,1.94-.31,2.92-.39,1.14-.08,2.22.13,3.18.82.85.62,1.76.87,2.43.37,1.04.67,1.89,1.22,3.14,2.03.25.66-.38,1.55-1.05,2.34-1.73,2.06-3.52,4.07-5.29,6.1-.77.88-1.52,1.78-2.35,2.6-.63.63-1.42.7-2.35.69-1.35-.02-2.71.27-4.04.56-1.34.29-2.63.82-3.98,1.11-1.85.39-3.49,1.1-4.87,2.41-.57.54-1.19,1.04-1.83,1.49-1.5,1.04-2.84,1.01-4.05-.31-.76-.83-1.53-.98-2.45-.61-1.62.65-3.21,1.38-4.76,2.24-1.01.05-2.12-1.18-3.12.24q.76,3.43-1.79,6.12c-1.82,1.92-2.01,2.47-1.62,4.79,1.5.31,2.74-.4,3.98-1.1.57-.32,1.08-.75,1.67-1.02,1.79-.82,3.6-1.36,5.1-.16,2.34-.94,4.38-2.07,6.57-2.58,3.17-.74,5.31-2.66,7.27-5.04.89-1.08,2-1.98,3.19-3.13.28.69.53,1.08.59,1.49.26,1.68,1.1,3.02,2.61,3.71,2.76,1.27,4.35,3.5,5.53,6.15.75,1.68,1.47,3.37,2.25,5.04.78,1.66.3,3.36.16,5.04-.03.32-.38.7-.68.9-1.34.92-2.74,1.77-4.09,2.67-3.71,2.47-7.42,4.96-11.13,7.44-.57.38-1.17.71-1.91,1.15-.16-1.12.46-1.43.97-1.79.54-.37,1.11-.7,1.66-1.06,1.34-.86,2.11-2.1,2.46-3.65.44-1.98.48-2.08,2.4-2.17,1.34-.07,2.04-.63,2.36-1.89.21-.82.59-1.6.87-2.4.33-.94.42-1.89-.12-2.94-.41.16-.78.24-1.08.43-1.89,1.18-3.74,2.4-5.64,3.56-1.17.72-2.51,1.22-3.57,2.08-1.94,1.57-4.1,2.57-6.53,3.04-.49.1-1.07.21-1.51.05-.8-.31-1.41-.02-2.05.31-3.32,1.72-6.62,3.49-9.97,5.17-1.9.95-2.59,2.71-3.19,4.51-.15.46.07,1.19.38,1.61.49.67.54,1.24.11,2.38-.8-1.42-1.49-2.5-2.04-3.64-.57-1.18-.99-2.43-1.53-3.63-.43-.96-.36-1.8.48-2.48,1.02-.82,2.01-1.68,3.11-2.36,3.85-2.38,7.76-4.67,11.63-7.02,2.25-1.36,4.49-2.72,6.71-4.13,2.09-1.33,2.08-1.73.08-3.16-2.29-1.64-2.67-1.66-5.06,0-2.05,1.42-4.04,2.93-6.12,4.31-4.1,2.73-8.43,5.01-13.13,6.56-2.3.76-4.46,1.91-6.71,2.82-.78.32-1.62.62-2.44.65-4.88.13-9.14,2.21-13.45,4.15-.23.11-.44.28-.63.46-.09.08-.11.23-.23.5.33.12.7.4.97.32,2.71-.79,5.48-.01,8.21-.34,1.81-.22,3.65-.22,5.48-.26.35,0,.8.13,1.04.36,1.75,1.72,3.26,3.49,3.31,6.23.04,2,.66,3.99.98,5.99.14.9.29,1.82.25,2.73-.14,2.82-.82,3.61-3.54,4.42-4.52,1.34-9.04,2.7-13.62,3.92,1.68-1.11,3.32-2.28,5.29-2.84.69-.2,1.4-.37,2.08-.59,1.74-.56,2.37-1.53,1.84-3.28-.57-1.89-.08-1.96-2.42-2.14-.77-.06-1.58.01-2.34.17-2.7.57-5.4,1.16-8.06,1.85-1.26.33-2.25.19-3.28-.63-1.38-1.1-1.4-1.01-2.84,0-.39.28-1.07.55-1.43.39-2.65-1.12-4.88.19-7.12,1.17-2.22.97-4.35,2.14-6.53,3.21-.93.45-1.06,1.24-1.02,2.15.05,1.24.15,2.49.05,3.73-.06.72-.47,1.4-.72,2.1l-.4-.05c-.13-.4-.32-.78-.39-1.19-.55-3.17-1.08-6.34-1.61-9.51-.05-.32-.08-.65-.1-.98-.1-2.33.43-3.06,2.71-3.56,7.11-1.59,14.23-3.14,21.34-4.74,1.02-.23,2.04-.54,2.98-.99,1.06-.5,1.1-1.13.36-2.02-.98-1.17-2.07-1.57-3.64-1.09-3.44,1.05-6.94,1.91-10.42,2.83-.43.11-.91.21-1.34.14-1.86-.31-3.65-.03-5.45.46-1.9.51-3.86.79-5.75,1.33-2.74.79-5.16,2.26-7.36,4.04-.34.27-.55,1.19-.36,1.56,1.58,3.02,1.12,6.14.55,9.25-.47,2.58-1.08,5.14-1.7,7.69-.29,1.22-.69,1.46-2.17,1.54-6.77.38-13.48.31-20.15-1.28-2.72-.65-5.6-.56-8.41-.86-3.26-.35-6.54-.63-9.77-1.19-4.95-.86-4.41-1.62-3.9-5.27.28-2.01.6-4.03.99-6.02.32-1.64.64-1.87,2.26-1.75,3.86.29,7.72.67,11.59.89,2.49.15,4.98.1,7.48.12.24,0,.48-.15.71-.23-.04-1.92-.35-2.31-2.05-2.35-1.84-.04-3.68.09-5.51-.03-4.58-.3-9.16-.58-13.72-1.1-1.8-.21-3.55-.76-5.4-.59-1.41.13-1.86.39-1.7,1.8.43,3.73-1.29,6.75-2.92,9.83-.95,1.8-1.93,3.58-2.89,5.38-.76,1.42-1.09,1.63-2.67,1.24-2.36-.59-4.69-1.26-7.03-1.91-8.74-2.42-17.4-5.06-25.85-8.37-1.89-.74-3.83-1.37-5.75-2.06-1.92-.69-2.15-1.06-1.44-2.87,1.26-3.24,2.58-6.46,3.9-9.68.39-.95.95-1.19,2.49-.91,2.25.41,4.5.87,6.73,1.42,3.44.84,6.88,1.72,10.29,2.69,2.39.68,4.73,1.55,7.1,2.34,1.02.34,2.03.48,3.03.08.14-1.81-.05-2.1-1.64-2.58-4.46-1.34-8.96-2.57-13.38-4.04-6.85-2.28-13.58-4.91-20.01-8.22-.29-.15-.59-.3-.9-.4-.83-.27-1.47-.06-1.58.89-.34,2.83-2.11,4.66-4.16,6.42-2.18,1.88-4.13,4.03-6.21,6.03-1.1,1.06-1.55,1.15-2.76.33-5.05-3.44-10.06-6.92-15.08-10.4-.3-.21-.56-.5-.7-1.01.33.07.66.11.98.21,1.44.43,2.85.96,4.31,1.3,1.24.29,2-.67,3.12-1.47-.59-.52-1.05-.94-1.52-1.33-.91-.75-1.5-1.57-1.18-2.88.28-1.12-.08-2.17-.7-3.18-.56-.91-1.23-1.4-2.31-1.6-.85-.16-1.72-.62-2.42-1.15-.98-.75-1.86-1.64-2.69-2.56-.42-.47-.87-1.11-.89-1.69-.05-1.42-.03-2.88.29-4.25.38-1.61.39-2.35-.96-3.18-1.12-.69-1.45-1.73-1.64-2.98,2.7,2.16,5.39,4.34,8.11,6.47,3.66,2.88,7.34,5.73,11.02,8.59.31.24.64.52,1,.61.4.09,1.09.13,1.21-.08.22-.38.3-1.04.11-1.41-.25-.49-.76-.9-1.24-1.22-7.22-4.83-13.82-10.45-20.24-16.28-2.09-1.89-4.1-3.87-6.14-5.82-1.31-1.26-1.78-1.23-2.65.36-1.28,2.32-3.24,3.99-5.43,5.32-2.63,1.6-5.44,2.9-8.16,4.36-.86.46-1.49.19-2.08-.47-.99-1.12-1.95-2.28-3.04-3.31-.82-.78-1.22-1.63-1.23-2.96.5.32.86.54,1.21.77,1.04.67,2.03,1.47,3.14,1.97.73.33,1.75.53,2.45.27,1.06-.39,1.96-1.23,2.93-1.88-.4-1.22-.49-2.69-1.25-3.6-2.93-3.53-6.07-6.88-9.12-10.31-.52-.58-.96-1.23-1.48-1.91.35-.48.65-.87.93-1.26-2.13-3.83-4.15-7.66-6.36-11.38-1.03-1.73-1.35-3.13.13-4.78.64-.71.8-1.85,1.31-3.11.56.67,1.08,1.2,1.49,1.8,3.77,5.53,7.51,11.09,11.29,16.62.48.7,1.05,1.35,1.63,1.97.53.56,1.23.92,1.92.34.7-.59.37-1.33-.05-1.95-.33-.49-.73-.92-1.11-1.38-1.17-1.42-2.4-2.78-3.49-4.25-4.32-5.88-8.3-11.97-11.79-18.39-.25-.46-.55-.91-.72-1.4-.77-2.35-2.48-3.67-4.8-4.17-1.91-.41-3.86-.68-5.81-.89-.49-.05-1.1.3-1.54.63-1.03.79-1.97,1.69-2.99,2.5-.4.32-.9.54-1.38.73-3.28,1.31-6.76,1.58-10.22,1.92-1.31.13-2.11-.55-2.51-1.75-.67-1.99-1.33-3.99-2.01-5.97-3.54-10.25-6.54-20.65-8.99-31.2-.38-1.66-.72-3.34-.98-5.02-.22-1.44,0-1.69,1.42-2.05,3.44-.86,6.88-1.65,10.48-1.57,1.88.04,2.35.17,2.81,2,.88,3.5,1.6,7.03,2.48,10.53,1.12,4.45,2.32,8.89,3.52,13.32.25.93.4,2.04,1.61,2.24,1.23.21,1.94-.6,2.5-1.55,1.01-1.73,2.65-2.71,4.38-3.54.91-.44,1.07-.96,1.06-1.98-.04-3.88-1.34-7.42-2.47-11.04-.76-2.43-1.22-4.96-1.84-7.44-.13-.51-.22-1.07-.52-1.48-.8-1.1-.8-2.31-.76-3.57.06-2.08-.12-2.19-2.01-3.05-1.31-.6-2.54-1.37-3.79-2.09-2.03-1.17-4.07-1.32-6.18-.19-2.18,1.16-4.57,1.2-6.93.92-2.28-.27-4.54-.72-6.79-1.2-1.77-.37-1.85-.67-1.53-2.4.14-.76.19-1.59.04-2.34-.8-4.04-.62-8.11-.39-12.16.33-5.63.81-11.26,1.24-16.89.02-.23.13-.46.26-.88,1.3.74,1.66,1.8,1.69,3.01.06,2.36.16,4.72.08,7.08-.05,1.37.16,2.35,1.52,3.05,1.54.8,2.58,2.01,2.96,3.9.36,1.83,1.31,3.55,1.88,5.35.23.72.27,1.57.15,2.32-.37,2.2-.01,4.31.5,6.42.11.44.28.88.49,1.28,1.01,1.93,1.69,2.23,3.82,1.66,1-.27,2.04-.4,2.75-1.36.51-.71,1.17-.49,1.92-.12,1.56.78,3.2,1.4,4.99,2.16.96-2.11,1.88-3.91.55-5.94-.48-.73-.43-1.4-.25-2.23.23-1.07.34-2.22.19-3.29-.26-1.9-1.56-2.92-3.5-3.06-.59-.04-1.16-.22-1.75-.24-.71-.02-1.49-.12-2.13.12-1.32.5-2.58,1.16-3.84,1.82-.91.47-1.45.41-1.85-.57-.78-1.87-1.4-3.81-2.19-5.68-.31-.75-.72-1.71-1.36-2.02-2.41-1.18-2.64-3.43-3.04-5.6-.14-.76-.03-1.57.04-2.36.25-2.94.57-5.87.75-8.81.06-.94-.24-1.9-.4-2.85-.07-.38-.36-.77-.31-1.12.28-1.71-.78-2.66-1.87-3.65-.64-.58-1.61-.98-1.42-2.37,2.64.2,5.24.34,7.81.85,1.35.27,2.68.64,4.01,1,1.63.45,1.93.86,1.83,2.5-.11,1.77-.33,3.53-.43,5.3-.33,6.03-.64,12.06-.93,18.09-.04.78.02,1.59.19,2.35.28,1.29,1.08,1.74,2.34,1.36.49-.15.94-.45,1.39-.72,1.52-.93,3.05-1.76,4.89-1.94.65-.07,1.25-.7,2.01-1.16.11.6.21,1.22.35,1.84.12.51.17,1.09.47,1.48.27.37.84.76,1.24.72.4-.03.94-.53,1.07-.93.16-.51.14-1.24-.13-1.67-.66-1.04-1.46-2-2.3-2.9-.58-.62-1.03-1.12-.54-2.04.99-1.87.55-3.75-.44-5.4-.72-1.21-1.04-2.36-.9-3.71.49-4.83.86-9.67,1.48-14.49.27-2.14-.03-3.88-1.66-5.34-.49-.43-.82-1.03-1.31-1.46-1.32-1.17-2.82-1.8-4.67-1.67-2.97.2-5.85-.31-8.54-1.63-.75-.37-1.38-.97-2.08-1.44-.48-.32-.95-.7-1.48-.89-1.94-.67-1.95-.64-2.49-2.47-1.45.17-.71,1.85-1.91,2.54-.02-.7-.14-1.25-.03-1.75,1.72-8.09,3.49-16.18,7.02-23.74,2.94-6.3,5.88-12.61,8.83-18.91.19-.42.42-.82.63-1.22.32-.61.8-.88,1.46-.6,2.78,1.16,5.59,2.25,8.01,4.13.87.67,1.88,1.17,2.85,1.72,1.08.61,1.19,2.26.13,2.86-.25.14-.88.04-1.03-.17-1.11-1.51-2.9-1.39-4.42-1.87-1.03-.32-1.28.04-1.6,1.13-.51,1.76-1.08,3.5-1.72,5.21-.21.56-.7,1.01-1.06,1.51-.14-.05-.29-.1-.43-.15,0-.4-.14-.88.02-1.19.78-1.52-.2-2.8-.47-4.17-.12-.61-.67-.78-1.25-.6-.31.1-.63.24-.87.45-1.48,1.31-3.2,2.39-4.02,4.33-.93,2.17-1.93,4.31-2.85,6.49-.27.63-.38,1.33-.6,2.12,1.17.19,2.14.55,3.07.46,1.35-.13,2.13.34,2.63,1.52.07.16.28.25.47.41.32-.22.63-.43.98-.68.05.24.17.44.13.59-.52,1.76-1.01,3.52-1.61,5.25-.58,1.68-1.65,2.81-3.62,2.68-.16-.01-.33.18-.53.3.25,1,.61,1.98.7,2.98.09.97-.08,1.96-.19,2.94-.1.84-.12,1.74-.44,2.5-.81,1.9-.65,3.87-.57,5.83.02.57.4,1.12.62,1.68.17,0,.35.01.52.02.29-.6.63-1.17.85-1.79,1.31-3.64,2.58-7.3,3.89-10.94.2-.55.5-1.07.81-1.57.5-.8,1.25-1.06,2.01-.5,2.04,1.49,4.13,1.33,6.36.52.71-.26,1.55-.23,2.33-.21,1.83.03,1.84.06,2.4-1.76.97-3.14,1.88-6.29,2.91-9.4,1.91-5.8,3.88-11.58,6.57-17.07.57-1.16.63-2.29.05-3.4-.67-1.27-1.31-2.59-2.21-3.69-.53-.64-1.49-1.15-2.32-1.29-3.88-.66-6.75-2.7-8.95-5.88-.58-.84-1.42-1.55-2.26-2.14-1.5-1.04-1.76-1.62-.87-3.23,1.21-2.18,2.45-4.35,3.76-6.47,4.17-6.78,8.85-13.19,14.13-19.15,2.66-2.99,5.33-5.98,8.01-8.94.6-.66,1.29-1.24,2.04-1.95,1.33,1.18,2.52,2.2,3.67,3.25.63.58.72,1.15,0,1.82-2.73,2.55-5.42,5.14-8.12,7.73-1.37,1.32-2.7,2.68-4.1,3.97-2.03,1.88-3.12,4.37-4.41,6.72-1.36,2.47-2.53,5.04-3.79,7.57-.09.18-.18.35-.26.53-.22.58-.38,1.18.25,1.58.69.43,1.16.11,1.66-.48,2.08-2.45,4.2-4.86,6.33-7.26.6-.68,1.23-1.31,2.24-1.5.5-.09.98-.62,1.34-1.05,2.72-3.21,5.44-6.41,8.08-9.68.98-1.21,1.78-2.58,2.59-3.91.68-1.12.71-1.17,2.23-.74-.12.3-.18.63-.36.88-2.11,3-4.29,5.95-6.35,8.98-1.1,1.62-1.99,3.38-3,5.07-.77,1.29-1.51,2.59-2.35,3.82-.81,1.19-1.76,2.29-2.62,3.45-.31.42-.6.87-.78,1.36-.51,1.36-.05,2.16,1.36,2.42.58.1,1.18.07,1.76.17,1.23.21,2.48.35,3.65.72,1.07.34,1.68.07,2.3-.83,1.78-2.6,3.64-5.15,5.49-7.69.58-.79,1.2-1.58,1.93-2.22.53-.46,1.2-1.12,1.99-.11.17.22,1.04.19,1.37-.04,2.64-1.82,5.26-3.69,7.83-5.63.47-.36.77-1.05.97-1.65.27-.83.3-1.74-.45-2.37-.71-.59-1.36.03-1.99.31-.76.33-1.5.7-2.56,1.19.49-1.44,1.15-2.36,2-3.13.84-.76.96-1.64.82-2.68-.31-2.28-1.17-4.08-3.47-5.07-2.46-1.06-3.96-3.22-5.24-5.44-1.02-1.76-1.78-3.66-2.68-5.48-.74-1.51-.43-2.81.76-3.92.77-.71,1.56-1.41,2.39-2.05,3.79-2.93,7.6-5.83,11.42-8.74.89-.68,1.77-1.36,2.7-1.97,4.82-3.17,9.65-6.33,14.48-9.48,1.43-.93,2.84-1.88,4.31-2.74,1.36-.79,1.62-.63,2.55.63,2.15,2.91,3.28,6.25,4.34,9.64.28.9-.09,1.45-.73,2.04-4.27,3.93-8.98,7.25-13.85,10.38-2.26,1.45-4.43,3.05-6.64,4.59-.32.22-.66.45-.9.75-.75.93-.51,1.9.6,2.37,1.45.61,2.9,1.21,4.39,1.7.42.14,1.04-.05,1.46-.28.56-.31,1.01-.84,1.53-1.23,7.13-5.25,14.35-10.36,22.09-14.68,3.42-1.91,4.07-5.51,1.49-8.53-1.33-1.55-2.75-3.03-3.21-5.11-.08-.34-.01-.71-.01-1.34,1.45.96,1.33,3.05,3.05,3.36,1.39.25,2.79.73,4.15-.44.04.15.09.3.13.45-.31.37-.61.75-.93,1.12-.97,1.11-.79,2.53.46,3.31.53.33,1.42.28,1.42,1.14,0,1.03-.11,2.06-.28,3.08-.08.47-.41.9-.64,1.39,5.63,1.15,5.44,1.55,6.25,3.12,1.02.32,1.88-.28,2.76-.65,1.51-.63,2.89-.97,4.46.05,1.45.94,2.85.08,3.91-.94,1.36-1.32,2.6-2.77,3.77-4.26.6-.76,1.22-1.24,2.16-1.55,2.38-.78,4.74-1.49,7.28-1.55.97-.02,1.92-.48,2.88-.73,0-.18,0-.37,0-.55-1.41-.36-2.83-.71-4.28-1.08-.34-1.37-.3-2.68.71-4.12-2.73-.26-5.03.17-7.2,1.33-.27.14-.45.47-.64.73-1.18,1.73-2.84,2.38-4.89,2.29-1.04-.04-2.09.02-3.13.14-1.5.17-2.53-.59-2.68-2.09-.07-.76-.16-1.51-.25-2.35.98-.07,1.39.74,1.93,1.34,1.62,1.83,1.88,1.87,4.04.99,9.2-3.74,18.63-6.76,28.33-8.91.78-.17,1.67.04,2.49.18,1.14.19,1.25.09,1.66-1.04.83-2.27.32-4.41-.66-6.44-.98-2.02-1.26-4.13-1.15-6.32.03-.55.2-1.09.3-1.63.14,0,.29-.02.43-.03.31,1.26.63,2.52.98,3.91,1.72-.34,3.06-.79,4.4-1.78,1.87-1.38,4.04-2.39,6.17-3.36,1.24-.57,2.65-.74,3.98-1.11.61-.17,1.2-.41,1.8-.97-.31-.09-.63-.27-.94-.25-3.73.21-7.46.46-11.19.69-.32.02-.65,0-.98-.02-1.28-.08-2.56-.17-4.13-.28.16-1.63.25-3.47,1.51-5.03.62-.77,1.46-1.1,2.42-1.12,8.47-.19,16.93-.44,25.4-.51,4.86-.04,9.72.21,14.57.33.59.02,1.18.06,1.77.11.77.06,1.26.47,1.19,1.27-.27,3.12-.06,6.29-1.13,9.75-.41-1.47-.38-2.69-1.53-3.47-.79-.54-1.5-.98-2.48-1.01-.95-.03-1.9-.17-2.84-.63,1.22-.1,2.44-.22,3.66-.31,1.41-.1,1.93-.49,1.91-1.44-.02-.98-.47-1.36-1.93-1.48-2.15-.18-4.36-.56-6.21,1.04-.43.37-.85.82-1.1,1.32-.72,1.46-1.07,1.71-2.71,1.52-1.69-.2-3.38-.49-5.08-.61-.85-.06-1.71.16-2.57.25,0,.14,0,.27,0,.41.41.13.82.27,1.24.38,1.39.36,2.79.69,4.18,1.07,1.43.39,2.57,1.2,3.53,2.36.51.62,1.31,1.14,2.08,1.38,1.93.61,3.92,1.04,5.88,1.54.31.08.74.02.94.21.3.29.56.73.59,1.13.01.21-.49.62-.79.66-.84.11-1.7.11-2.55.09-5.91-.2-11.81-.43-17.72-.62-1.57-.05-3.16-.02-4.72.1-.5.04-1.25.39-1.39.78-.15.42.19,1.11.48,1.57.38.6.88,1.16,1.44,1.6.36.29.94.49,1.39.45,1.5-.12,3.02-.26,4.48-.61,1.43-.35,2.59-.06,3.66.83.73.61,1.51.9,2.5.95,6.03.31,12.05.69,18.08,1.07,1.49.09,3.25-1.29,3.6-3.05.18-.89.31-1.85.16-2.73-.38-2.39.17-4.59,1.15-6.69,1.19-2.56,2.43-5.09,3.8-7.56.96-1.72,1.53-1.9,3.4-1.46,11.89,2.81,23.71,5.86,35.22,10.01,1.42.51,2.88.92,4.3,1.43,1.38.49,1.57.81,1.16,2.21-1.16,3.93-2.98,7.57-5.08,11.06-.89,1.48-1.91,1.69-3.76,1.07-4.85-1.65-9.68-3.34-14.54-4.96-2.55-.85-5.14-1.59-7.72-2.36-.5-.15-1.03-.26-1.55-.28-.96-.04-1.39.42-1.17,1.34.38,1.59.78,3.19,1.35,4.72.19.5.87.96,1.43,1.15,1.36.46,2.79.76,4.18,1.12,7.25,1.87,14.36,4.18,21.29,7.04,3.31,1.37,5.9-.19,6.16-3.82.17-2.49,1.09-4.54,2.67-6.41,1.31-1.54,2.71-3.03,3.26-5.1.17-.65.77-1.21,1.21-1.77.54-.68,1.25-.83,2.12-.7,3.39.52,6.32,2.1,9.21,3.81.63.37.81.84.5,1.47-.29.59-.57,1.2-.96,1.71-.68.9-1.26,1.8-1.31,3-.04.94-.73,1.24-1.54.98-1.74-.55-3.46-1.15-5.17-1.79-1.41-.52-2.79-1.15-4.2-1.66-.41-.15-.91-.13-1.35-.05-.66.12-1.16.59-.86,1.26.79,1.79.39,3.88,1.69,5.58.56.74,1,1.04,1.86,1.04,1.7,0,2.05.36,2.2,2.01.01.13.02.26.02.39,0,.92,0,1.83,0,2.68q-2.35,1.95-1.36,3.69c-.5,0-.92.05-1.32,0-2.37-.36-4.7-.4-6.99.5-.52.2-1.16.13-1.74.16-2.01.11-4.03.21-6.12.32-.71,2.09-1.41,4.12-2.15,6.28,1.8,0,2.82,1.18,3.86,2.38,1.24,1.44,2.52,2.86,3.86,4.2.77.78,1.72,1.37,2.56,2.09.43.37.87.79,1.16,1.27.91,1.52,1.76,3.08,2.63,4.62.99,1.77,1.31,1.81,3,.16-.63-.71-1.3-1.41-1.92-2.15-.76-.9-1.44-1.87-2.22-2.75-.46-.52-.98-1.08-1.59-1.36-1.47-.66-2.22-1.75-2.4-3.3-.05-.46-.04-.93-.14-1.37-.46-1.95-1.37-3.49-3.44-3.37-.4.02-.82-.22-1.21-.5,2.65-1.09,5.24-1.24,7.83.18,2.18,1.2,4.37,2.42,6.63,3.46,1.72.79,3.54,1.36,5.34,1.95,1.66.55,1.88.76,1.67,2.53-.12,1.01-.21,2.07-1.04,2.97-1.52-1.08-1.96-3.28-4.02-3.6-1-.16-2-.34-3.37-.57.27.98.42,1.59.62,2.18.18.56.43,1.1.63,1.66.65,1.81,2.01,3.64-.42,5.21,2.52,1.51,4.72,1.36,6.92-.33.42-.32.76-.74,1.19-1.03,1.22-.79,2.51-1.1,3.9-.36.87.47,1.77.87,2.63,1.35,2.12,1.19,2.72,2.91,1.79,5.07-.71-.93-1.36-1.9-2.13-2.75-.9-.99-2.03-1.66-3.41-1.77-1.17-.09-2.2.13-3.01,1.08-.72.84-1.52,1.59-2.25,2.35.12.34.13.56.25.7,1.25,1.44,1.56,1.41,2.47-.25,1.11-2.01,3.32-2.15,4.78-.06-.59-.17-.99-.29-1.39-.4-.87-.24-1.59-.03-1.99.8-.28.59-.18,1.2.44,1.54.75.42,1.52.42,2.15-.28.21-.24.37-.53.59-.85.58.68,1.1,1.29,1.65,1.94-.98,2.66-3.44,3.69-5.89,2.28-1.4-.81-2.84-1.66-3.05-3.6-.05-.44-.66-.99-1.14-1.19-2.08-.9-4.32-.96-6.54-1.04-.09,0-.18.17-.35.33,0,.85.58,1.34,1.26,1.76,1.4.86,2.84,1.65,4.18,2.6,1.06.75,2.14,1.56,2.97,2.55,1.68,2,3.86,3.05,6.34,3.15,1.56.06,3.24-.41,4.71-1.02.93-.39,1.7-.57,2.6-.28,1,.32,1.98.71,2.97,1.04.7.23,1.48.84,2.01-.28.45-.96-.31-1.23-.89-1.67-.72-.55-1.36-1.19-2.11-1.85.91-.87,1.7-.44,2.46-.14,2.93,1.18,3.03,1.14,3.96-1.84.49-1.55.33-1.76-1.26-2.08-1.35-.27-2.66-.63-4.01.13-.3.17-.89-.15-1.34-.24-.1-.2-.19-.41-.29-.61.34-.17.72-.28,1.02-.51.57-.44,1.21-.85,1.6-1.42.71-1.06,1.46-1.98,3.2-2.05-1.04-1.78-2.09-3.15-3.67-4.5.23.92.38,1.53.49,1.98-1.47,1.06-2.82,2.03-4.18,2.99-.59.42-1.12.26-1.58-.22-.62-.63-.68-1.4-.41-2.2.34-.99.7-1.97,1.07-2.94.44-1.15.84-1.09,2.1-1.17,2.37-.15,3.66,1.37,5.15,2.74,2.82,2.61,4.97,5.74,7.17,8.84.6.85,1.35,1.61,1.92,2.48.68,1.02,1.22,2.14,1.86,3.18.36.59.7,1.33,1.25,1.66,1.96,1.16,3.44,2.81,4.98,4.43,1.1,1.16,2.08,2.52,3.77,3.18.76-1.84.57-3.56-.05-5.23-.11-.3-.84-.69-1.03-.58-.97.56-1.46,0-1.98-.65-.16-.2-.34-.46-.57-.54-1.91-.68-2.32-2.07-2.01-3.9.1-.57-.03-1.18-.08-1.77-.12-1.67-.55-2.08-2.49-2.37-.42,1.59.77,3.5-1.04,5.17-.22-.66-.47-1.1-.5-1.55-.05-.78.03-1.57.06-2.36.07-2.21-.67-4-2.73-5.05-1.51-.77-1.72-2.25-1.94-3.66-.23-1.5-.72-2.86-1.51-4.14-1.42.41-.74,1.74-1.34,2.61-1.12-.43-1.61-1.32-1.63-2.39-.02-1.27-.37-2.26-1.38-3.09-1.06-.88-.82-2.27-1.15-3.45-.39-1.43.23-2.38,1.18-3.38-.93-1.25-1.81-2.42-2.88-3.85-2.63,3.79-3,7.91-3.45,12.09-2.77-.47-4.87-2.75-7.85-3.42.1,1.37.86,1.69,1.72,1.81.71.1,1.1.31,1.39,1.09.18.49,1.09.71,1.78,1.11-.25,1.48-1.17,2.68-1.87,3.98-.1.18-.62.3-.85.21-.23-.09-.51-.49-.48-.72.11-.83.33-1.65.58-2.79-.85.96-1.51,1.72-2.18,2.48-.16-.05-.33-.09-.49-.14-.15-1.23-.31-2.46-.46-3.69l-.32-.04c-.16,1.05-.32,2.09-.49,3.13-1.36-.02-1.91-.6-1.8-2.05.08-1.17.32-2.33.5-3.56h1.55c-.07-.2-.07-.47-.19-.54-.55-.32-1.12-.66-1.72-.85-1.68-.55-3.39-1-5.07-1.55-.4-.13-.73-.48-1.17-.79,2.64-1.56,3.92-4.07,5.46-6.38.35-.53.69-1.11,1.16-1.53,2.15-1.91,1.9-4.47,2.29-7.23-1.87.98-.73,3.37-2.7,3.99-.1-.38-.27-.68-.25-.97.09-1.17,0-2.43.39-3.5,1.35-3.74,2.29-7.64,4.23-11.16.97-1.77,1.76-1.96,3.43-.8.32.22.6.53.95.7,2.37,1.12,4.3,2.69,5.55,5.05.43.81,1.28,1.01,2.19,1.1,1.57.16,2.53,1.17,3.23,2.51-1.48,1.33-2.85,2.64-4.31,3.84-1.8,1.47-2.31,3.63-3.1,5.62-.36.9.3,1.59,1.13,2.21.25-.16.55-.27.74-.49.53-.59,1.13-.51,1.53-.02,1.32,1.65,2.89,3.02,4.59,4.27.23.17.3.55.52.97-3.33,1.94-1.85,4.54-1.09,7.18.66-.32,1.27-.88,1.75-.79.72.14,1.43.66,1.98,1.18.74.71,1.44,1.52,1.96,2.4.43.73.96.98,1.59.58.69-.44,1.48-.99,1.79-1.69,1.36-3.09,3.6-5.27,6.52-6.86,1.96-1.07,3.9-2.17,5.82-3.31.88-.52,1.59-.48,2.29.25.36.38.75.74,1.1,1.13,2.75,3,5.58,5.94,8.22,9.03,2.81,3.29,5.46,6.71,8.14,10.11,1.91,2.42,3.75,4.9,5.61,7.36.24.31.46.64.65.99.66,1.18.6,1.58-.48,2.29-1.43.94-2.89,1.81-4.35,2.7-.67.41-1.36.78-2.05,1.16-.8.44-1.62.83-2.67.61-.34-1.35.19-2.52.76-3.57.62-1.14.47-1.99-.12-3.1-1.01-1.89-1.76-3.91-2.64-5.87-.18-.41-.37-.86-.69-1.15-2.22-2.05-4.47-4.06-6.72-6.07-.22-.2-.55-.28-.95-.48-.79,1.16-.89,2.34-.83,3.61.04.67-.04,1.46-.36,2.02-.53.93-.54,1.77.02,2.58,1,1.45,2.07,2.86,3.12,4.28.86,1.15,1.77,2.28,2.59,3.46.22.32.22.8.39,1.54-.5-.36-.75-.47-.9-.65-1.91-2.42-3.79-4.87-5.72-7.27-1.02-1.28-2.08-2.54-3.22-3.72-.47-.48-1.16-.84-1.82-1.04-.89-.28-1.12.7-1.67,1.08-1.86,1.27-2.23,3.34-2.97,5.2-.54,1.37-.02,2.54.95,3.59,2,2.15,3.98,4.32,5.91,6.53,1.68,1.93,3.33,3.89,4.91,5.9,1.65,2.09,3.88,2.33,5.85.52.14-.13.3-.26.41-.43,2.54-4.09,6.75-5.52,11.01-6.85.75-.23,1.52-.41,2.27-.64,1.48-.45,1.8-.39,2.58.93,3.93,6.75,7.98,13.44,11.71,20.3,3.01,5.53,5.63,11.27,8.42,16.92.17.35.36.71.49,1.08.39,1.11.23,1.58-.84,2.02-3.29,1.33-6.58,2.64-9.89,3.89-1.65.62-2.22.38-2.98-1.21-1.23-2.54-2.35-5.14-3.6-7.66-2.38-4.82-4.85-9.61-7.23-14.43-.73-1.48-1.69-2.32-3.43-1.8-.18.06-.39.04-.59.05-2.46.17-3.29,1.06-2.97,3.49.13,1.01.53,2.04,1,2.96,3.89,7.53,7.62,15.13,10.14,23.24.7,2.24,2.41,2.57,4.26,2.8.76.1,1.56-.06,2.32-.11-.98.78-1.98,1.59-3.19,2.55-.24-.1-.75-.33-1.42-.62v2.78c-.41.2-.85.41-1.32.64,0,.2-.07.44.01.57.94,1.46.85,2.97.3,4.54-.32.92-.58,1.87.66,2.82.38-1.24.7-2.29,1.12-3.69.65.9,1.07,1.49,1.42,1.98,1.03-.93,1.92-1.88,2.96-2.61,1.06-.74,2.28-1.25,3.52-1.9.23.28.51.54.7.87,1.05,1.74,2.05,3.5,3.1,5.23,1.14,1.87,1.26,3.97,1.33,6.06.03.95-.24,1.91-.44,3.36-.31-.77-.49-1.08-.55-1.41-.29-1.48-.55-2.96-.8-4.45-.24-1.36-.72-2.46-2.14-3.05-.49-.21-.78-.97-1.09-1.52-.27-.48-.44-1.02-.71-1.68-2.22,1.62-3.9,3.14-3.65,6.03.17,1.96.31,3.89.75,5.83,1.65,7.17,2.7,14.45,3.32,21.78.33,3.91,3.4,6.2,7.11,4.96,3.01-1.01,5.94-.86,8.92-.14,1.79.43,3.56.92,5.34,1.39,1.77.47,2.26,1.04,2.43,2.85.06.65.07,1.32.02,1.97-.5,6.35-.89,12.71-1.58,19.03-.66,6-1.64,11.96-2.48,17.94-.18,1.3-.34,2.61-.59,3.89-.25,1.24-.71,1.59-1.95,1.33-3.6-.74-7.19-1.55-10.77-2.38-.51-.12-.97-.49-1.87-.96,1.03-.62,1.64-1.05,2.31-1.38,2.75-1.33,4.36-3.49,4.78-6.51.16-1.17.26-2.35.33-3.53.12-1.83.52-3.5,1.38-5.22.82-1.63.98-3.67,1.13-5.55.28-3.66.2-7.33-.32-10.98-.22-1.53-.96-2.52-2.6-3.01-.22.37-.56.71-.63,1.1-.31,1.61-.6,3.22-.78,4.85-.14,1.27-.54,2.4-1.32,3.81-.23-.7-.36-1.08-.48-1.46-.41-1.3-1.14-1.72-2.38-1.16-1.61.73-3.16,1.59-4.71,2.45-.9.5-1.46,1.25-1.55,2.36-.61,7.94-2.24,15.71-3.87,23.48-.31,1.46.02,2.57.95,3.61,1.4,1.58,2.96,2.7,5.27,2.48,3.37-.32,6.31.92,9.05,2.76,1.2.8,2.41,1.59,3.64,2.35,1.95,1.21,2.49,2.57,1.72,4.84-.59,1.74-1.34,3.42-1.97,5.15-3.81,10.29-8.1,20.37-12.97,30.2-.55,1.12-1.06,2.26-1.62,3.37-.42.83-1.05,1.16-1.93.67-3.04-1.69-6.08-3.38-9.11-5.09-.21-.12-.35-.37-.6-.65.41-.93.83-1.82,2.05-1.75,1.11.07,1.9-.34,2.45-1.29.12-.2.37-.34.66-.6.53.91.03,1.4-.45,1.89-2.25,2.31-2.25,2.33.6,3.66,1.07.5,2.11,1.07,3.17,1.58,1.17.56,1.35.38,2.15-.48,2.6-2.82,3.57-6.37,4.42-9.91.42-1.74.34-3.6.86-5.37.5-1.69.89-3.42,1.25-5.15.15-.69.1-1.42.15-2.31-.74-.22-1.4-.41-2.25-.66-.8,2.2-1.94,4.06-3.71,5.58.21-.58.4-1.17.63-1.74.81-2.01,1.64-4.01,2.44-6.02.68-1.71,1.32-3.43,1.14-5.34-.04-.43.17-.89.3-1.33.67-2.32,1.4-4.62,2.01-6.96.13-.49-.08-1.12-.27-1.64-.15-.41-.54-.73-.76-1.13-.84-1.55-.83-1.56-2.63-1.26-.2-1.16-.52-2.2-2.05-2.31-1.11-.09-2.05-1.24-3.34-.48-.68.39-1.27.03-1.67-.58-.35-.54-.68-1.09-1.12-1.8-.32.39-.58.59-.67.85-1.18,3.55-2.35,7.1-3.49,10.66-.29.91-.76,1.81.52,2.53,1.39.77,2.87,1.01,3.81.14.61-.57,1.17-1.04,2.03-.93.11.08.25.13.32.23,1.41,1.98,1.57,1.98,3,.06.5-.66.99-1.33,1.62-1.92-.69,2.16-.39,4.74-2.9,6.23-.99-1.15-2.26-1.09-3.68-.79-1.53.33-3.11.39-4.89.59-2.3,5.26-4.6,10.68-7.04,16.04-1.33,2.92-2.82,5.77-4.34,8.6-1.21,2.26-.37,4.98,2.02,6.02.54.24,1.11.41,1.69.53,3.11.63,5.48,2.41,7.48,4.78.93,1.1,1.87,2.2,2.78,3.32,1.6,1.97,1.8,4.15.27,6.14-2.71,3.54-5.57,6.97-8.37,10.45-.21.25-.49.45-.66.73-3.99,6.42-9.87,11.21-14.68,16.91-1.39,1.65-2.81,3.27-4.21,4.9-2.01-1.99-3.92-3.84-5.77-5.74-.4-.41-.61-1.01-.91-1.53,0,0-.05.05-.05.05ZM158.12,105.7c1.01-.74,2.1-1.38,2.33-2.8.05-.31.49-.65.82-.8.56-.24,1.23-.56,1.77-.44.96.22.68,1.09.59,1.8-.01.09.13.19.19.29,1.13-.67,1.37-.91,1.45-2.04.21-2.91,1.63-5.02,4.03-6.6.93-.61,1.81-1.32,2.58-2.11.55-.56,1.18-1.27.44-2.28-.29.13-.54.2-.72.35-1.06.87-2.04,1.85-3.16,2.62-1.89,1.29-3.47,2.79-4.16,5.05-.03.11-.18.18-.29.27-.58,0-1.16,0-1.75,0-1.52.03-2.52.68-2.88,2.17-.32,1.31-.39,2.69-1.34,3.78-.1.12.08.49.12.73-1.82.11-2.62.58-3.12,1.89.79.22,1.17-.33,1.64-.75.46-.41.98-.76,1.47-1.14Zm-52.87,160.91c.44.87.7,1.53,1.08,2.12.92,1.41,1.14,2.87.69,4.51-.28,1.01-.4,2.06-.53,3.1-.27,2.1.07,2.65,1.86,3.6,3.41,1.81,7.08,2.72,10.88,3.19.56.07,1.28.09,1.7-.2,1.26-.87,2.46-.64,3.74-.16.69.26,1.44.37,2.17.54.1-.14.19-.28.29-.43-.37-.48-.64-1.14-1.12-1.4-.97-.51-2.03-.91-3.09-1.15-.86-.19-1.4-.54-1.72-1.37-.5-1.27-1.04-2.53-1.68-3.74-.29-.55-.81-1.02-1.31-1.42-.56-.44-1.23-.76-1.84-1.14-2.71-1.66-3.13-1.62-5.46.53-.75.69-1.48,1.43-2.7,1.56-.18-1.55.76-2.55,1.38-3.63.46-.81,1.18-1.33,2.25-1.29.79.03,1.51-.48,1.46-1.3-.08-1.38-.04-2.68.75-3.88.09-.13.03-.39-.02-.58-.3-1.24.32-1.82,1.43-2.14.79-.23,1.45-.62,1.3-1.69-.24-.12-.45-.29-.69-.35-1.4-.34-2.55-.98-3.25-2.32-.16-.31-.56-.65-.89-.7-1.65-.27-2.59-1.39-3.51-2.64-.58-.79-1.31-1.46-1.99-2.17-.37-.39-.79-.74-1.43-1.33.85-.28,1.36-.36,1.78-.61.71-.42,1.62-.81,1.96-1.47.63-1.21,1.43-1.95,2.89-1.98.15-1.09.28-2.07.47-3.44-.71.41-1.05.56-1.34.77-.72.51-1.44.35-1.99-.15-.99-.88-1.88-1.87-2.89-2.91.26-.2.48-.5.75-.55,1.75-.34,2.67-1.55,3.31-3.07.15-.36.31-.86.6-.98,1.37-.59,1.43-1.66,1.32-2.92-.03-.34.36-1,.62-1.04,1.76-.21,1.51-1.61,1.62-2.7.18-1.75-.48-2.37-2.22-2.45-.68-.03-1.7-.07-1.98-.49-1.37-2.1-2.69-4.25-3.35-6.71-.03-.12.01-.26.02-.39q.01-1.9-1.79-2.36c-.05-.17-.17-.35-.16-.53.05-1.4-.57-2.24-1.86-2.89-1.32-.66-2.58-1.54-3.63-2.57-1.21-1.17-2.11-2.65-3.64-3.49-.17-.09-.2-.43-.3-.66,1.93-.8,2.76,1.45,4.47,1.48.2-.85.38-1.63.56-2.42-3.23-.48-3.26-.47-3.47-3.56-.08-1.24.02-2.49,0-3.74,0-.52-.02-1.14-.75-1.15-.66-.01-.83.47-.87,1.07-.07,1.02-.2,2.03-.31,3.05-.81-.06-.94-.55-.84-1.11.09-.51.29-1,.42-1.51.28-1.07-.76-3.19-1.52-2.98-1.03.28-2.06.79-2.9,1.44-.86.65-1.45,1.64-2.24,2.4-1.03.98-2.13,1.87-3.21,2.8.14.06.28.11.42.17-.03,1,.13,2.05-.13,2.98-.35,1.23-.54,2.6-2.22,3.13-1.01.32-1.24,2.3-.54,2.92,1.02.89,1.47-.29,2.12-.68.68-.41,1.11-1.36,2.39-.97-.02,2.59,1.13,5.12.66,7.83-.84.23-1.56.42-2.42.66.49,2.31.92,4.48,1.44,6.62.11.45.5.9.88,1.21,2.04,1.69,2.58,3.84,1.54,6.73-1.2-1.87-2.35-3.66-3.52-5.48-1.05,1.41-1.1,1.65-.93,3.94.28,3.72.58,7.44.86,11.17.04.57.14,1.18-.82,1.59-.29-.55-.66-1.07-.83-1.64-.57-1.94-.98-3.94-1.63-5.86-.47-1.38-1.22-2.65-1.9-4.08-1.5,2.2-1.41,2.58,1.29,6.08-.78,1.16-1.86,2.23-2.27,3.52-.43,1.36-.23,2.93-.3,4.51.73-.06,1.16-.09,1.86-.14-.06.73-.07,1.35-.17,1.95-.12.71-.42,1.4-.45,2.11-.02.44.21,1.17.51,1.29,1.26.48,1.51,1.53,1.79,2.63.38,1.53.74,3.06,1.22,4.56.23.73.59,1.49,1.1,2.04.67.73.92,1.53,1.09,2.46.45,2.38.94,4.76,1.49,7.12.32,1.36.96,2.51,2.12,3.44,1.09.86,1.46,2.2,1.18,3.8-.75-.81-1.5-1.61-2.48-2.66-.06,1.43.51,2.16,1.23,2.83.73.68,1.63,1.23,1.78,2.39-1.37-.89-2.68-1.84-3.84-2.95-.93-.89-1.98-1.26-3.2-1.2-1.19.07-1.61.6-1.18,1.66.3.76.93,1.38,1.38,2.09.33.52.85,1.09.84,1.62-.02,1.1.44,1.72,1.33,2.19,1.63.85,2.44,2.34,2.97,3.99.53,1.63,1.04,2.22,2.78,2.12,1.95-.11,3.9-.49,5.83-.87.99-.2,1.22-.91.67-1.79-.31-.48-.8-.84-1.22-1.25-1.17-1.16-2.57-2.12-3.49-3.72,1.69.33,1.65.38,3.43,1.64,1.01.71,2.12,1.28,3.23,1.84.38.19,1.03.32,1.3.12.88-.65,1.57-.3,2.35.12.35.19.8.19,1.26.29-.3-2.05-1.12-3.5-2.12-3.9-2.25-.89-2.74-1.8-1.65-3.81.68-1.25.75-2.44.66-3.78-.05-.74.01-1.65.4-2.23.64-.95.81-1.91.73-2.98-.05-.75.08-1.39.7-1.94.42-.37.67-.94,1.23-1.76Zm42.52,53.72c.53-.07,1.02-.3,1.35-.15,1.24.54,2.54,1.06,3.62,1.86,2.15,1.6,3.15,3.96,3.82,6.49,1.23,4.69,3.25,9,6.45,12.7.15.18.19.45.38.92-2.21,1.22-4.27,2.71-6.57,3.52-2.35.83-4.94.99-7.42,1.44-.01.15-.02.29-.03.44.52.11,1.03.26,1.56.32.98.1,1.97.08,2.94.21,2.73.38,5.35.06,7.9-1,1.74-.72,3.53-1.33,5.19-1.96,2.36,1.96,2.71,2.08,4.25,1.51-.77-.86-1.51-1.69-2.26-2.52.8.09,1.45.36,2.03.74,2.48,1.62,4.94,3.19,8.02,3.49.94.09,1.86.61,2.72,1.07.52.27.92.79,1.58,1.39-1.85.37-3.51-.45-5.1.93.85.7,1.56,1.33,2.31,1.9,1.35,1.04,2.74,2.03,4.08,3.08.29.22.45.6.67.91-2.36-1.51-4.72-2.75-7.34-3.51-.74-.22-1.43-.66-2.12-1.03-2.36-1.29-4.79-2.46-7.04-3.92-3.16-2.05-5.95-.36-9.19.34.47.59.65.95.94,1.15,3.38,2.38,6.77,4.73,10.15,7.1.75.52,1.69.96,2.13,1.69.9,1.49,2.16,1.81,3.69,1.64,1.79-.19,3.37.4,4.87,1.27.74.43,1.44.92,2.14,1.4.81.55,1.6.65,2.6.41,1.79-.43,2.6-1.62,2.84-2.99,1.3-.67,2.32-1.2,3.35-1.73.08.12.16.24.24.36-.41.34-.82.68-1.23,1.02-.7.59-1.41,1.16-2.1,1.76-.73.64-1.5,1.26-2.15,1.98-.55.61-1.11,1.29-1.38,2.04-.31.84-.4,1.8-.4,2.71,0,1.34-.18,2.38-1.71,2.89-.99.34-.99,1.03-.24,1.84.93.99,2.04,1.62,3.43,1.71.98.06,1.96.16,2.93.3,1.7.24,2.21-.15,2.42-1.92.09-.78.09-1.61.4-2.3.33-.74.87-1.51,1.53-1.95,1.36-.9,2.84-1.61,4.31-2.34,1.33-.66,1.96-2.44,1.18-3.76-.66-1.12-1.44-2.17-2.13-3.28-.31-.5-.54-1.05-.81-1.58,1.7.53,3.45.07,4.96.96-.46.79-1.76.33-1.74,1.42.11.12.2.29.28.29,1.98-.12,3.65.58,5.34,1.59,1.84,1.11,4.83-.31,5.41-2.41.33-1.19.48-2.44.63-3.67.28-2.3.91-4.29,3.85-4.53,0-.93-.07-1.77.03-2.6.05-.47.24-1.11.58-1.32,1.99-1.21,3.91-2.59,6.48-2.33,1.48.15,1.92.44,1.69,1.9-.08.49-.34.94-.51,1.4-1.34.05-2.64-.37-3.69.81,1.15,1.27,2.75,1.56,4.11,2.3,1.37.74,2.33,2.21,4.04,2.45-.77-1.63-1.86-3.09-2.08-4.68-.23-1.67.37-3.45.63-5.36-.51-.03-1-.06-1.49-.1-.58-.06-1.25.03-1.72-.23-1.73-.95-3.29-.48-4.86.34-.83.43-1.69.82-2.59,1.26-.15-.45-.22-.63-.26-.82-.42-1.74-.81-2.2-1.97-2.29-1.31-.1-2.08.48-2.78,1.89-.2.41-.66.84-1.08.96-1.01.27-2.06.42-3.11.48-1.07.06-2-.34-2.66-1.2.65-1,1.69-1.6,1.93-2.84-1.47-.15-2.99.05-4.12-.52-1.11-.56-1.83-1.9-2.78-2.95.76-.33,1.29-.56,1.99-.86-1.48-.77-2.7-1.38-3.91-2.03-.67-.36-1.34-.56-2.04-.12-1.05.65-1.86.24-2.62-.54-.4-.41-.8-.87-1.73-.52.89,2.2,3.08,3.91,2.39,6.26.76,1.02,1.44,1.79,1.96,2.66.46.77.71,1.68,1.13,2.48.51.97.81,1.9-.08,3.24-.34-.62-.67-.99-.75-1.41-.68-3.39-2.9-5.19-6.35-5.11-1.86.04-3.67-.17-5.36-1.03-.35-.18-.78-.44-1.09-.36-.43.11-.91.43-1.12.81-.1.19.27.8.57,1.02.35.26.87.26,1.29.44,1.26.53,2.59.95,3.74,1.67,1.6,1.01,3.06,2.25,4.57,3.39,1.18.89,2.35,1.78,3.45,2.61-.35.83-.7,1.59-.99,2.38-.3.8-.53,1.62-.82,2.42-.22.61-.73.84-1.25.52-1.09-.66-2.11-1.43-3.35-2.28,1.61-.15,2.38,1.63,3.82,1.01.48-1.95.48-1.94-.96-2.95-1.34-.93-2.76-1.79-3.99-2.85-2.18-1.9-4.62-3.25-7.45-3.79-1.46-.28-2.77-.78-3.97-1.63-2.57-1.81-4.98-3.89-7.71-5.41-3.08-1.71-5.32-3.98-6.62-7.22-.44-1.09-.89-2.18-1.3-3.29-.43-1.17-.73-2.39-1.21-3.54-1.89-4.46-4.88-7.62-9.77-8.95-3.81-1.03-9.41.47-11.89,4.54-.44.73-.81,1.5-1.24,2.24-1.33,2.28-.82,4.56-.02,6.83.26.75.75,1.27,1.61,1.14,1-.16,1.57.28,2.06,1.11,1.17,2.01,3.05,2.9,5.29,2.81,2.57-.1,5.2-.3,6.49-3.16.13-.28.41-.54.69-.69,1.55-.89,1.89-2.46,2.25-3.99.41-1.72-1.28-3.48-2.99-3.06-.79.19-1.3.05-2-.29-1.38-.67-1.64-1.88-2.05-3.31Zm197.54-186.41c-1.12-1.67-2.44-1.28-3.85-.77-2.94,1.06-5.94.95-8.9.09-1.88-.55-3.47-1.55-4.35-3.43-.33-.7-.55-1.34.19-1.93.57-.45.47-1.02.25-1.61-.23-.61-.46-1.23-.65-1.86-.8-2.62.27-6.07,2.34-7.83.69-.59,1.51-1.11,2.02-2.26-1.48.22-2.1,1.2-2.95,1.86-1.67,1.29-2.65,3.51-5.09,3.79-.21.02-.42.3-.58.5-2.58,3.47-2.71,7.16.15,10.87,1.45,1.89,3.48,3.35,5.32,4.92.63.54,1.46.89,2.25,1.18,3.34,1.24,6.81,1.27,10.3.95,1.08-.1,1.84-.6,2.26-1.62.29-.71.55-1.49,1.52-1.63.19.2.37.39.54.59,1.01,1.25,1.08,1.82-.15,2.78-.9.7-2.04,1.35-3.14,1.49-2.59.34-5.22.36-7.83.5-.49.03-.98,0-1.97,0,2.27,2.48,2.12,5.53,3.46,7.95.99,1.79,2.54,3.28,3.87,4.87.19.23.57.3.88.41,2.04.74,4.07,1.48,6.12,2.19.52.18,1.07.27,1.83.46-.17-.54-.17-.84-.32-1-1.39-1.48-2.77-2.98-4.23-4.39-2.48-2.4-5.03-4.74-7.52-7.12-.19-.18-.2-.56-.42-1.21.95.27,1.61.44,2.26.65,1.06.34,2.08.9,3.16,1.02,2.29.25,3.74,1.4,4.48,3.52.11.31.27.6.38.91.77,2.09,1.26,4.29,2.76,6.05.2.23.32.61.31.91-.05,1.58,1.03,1.97,2.25,2.22,3.06.61,5.83,1.86,8.32,3.74.59.44,1.27,1,2.09.22-.12-1.05-.89-1.59-1.55-2.21-1.58-1.47-3.13-2.98-4.71-4.45-1.15-1.07-2.36-2.07-3.49-3.15-1.39-1.32-2.9-2.56-3.57-4.84.81.14,1.32.17,1.78.33,1.43.48,2.81,1.12,4.27,1.49,2.12.54,3.34,1.84,4.06,3.86.97,2.71,2.07,5.35,3.99,7.61,1.11,1.31,2.3,2.28,3.95,2.75,1.65.47,3.21,1.12,4.55,2.25.46.39,1.11.55,1.84.89.06-.59.23-.97.11-1.19-.52-.9-1-1.9-1.74-2.59-2.15-2.01-4.43-3.89-6.65-5.83-1.37-1.21-2.74-2.42-4.08-3.67-.29-.27-.43-.72-.66-1.13,1.34-.27,1.39-.25,2.14.17,1.2.66,2.41,1.32,3.64,1.93,1.01.5,2.01.97,3.09.01.27-.24.89-.21,1.32-.11,1.15.26,2.32.49,3.39.96,1.68.73,3.29,1.63,4.93,2.47.57.29,1.09.82,1.76.21.02-.14.07-.27.04-.39-.05-.19-.1-.4-.23-.53-2.24-2.37-4.15-5.05-7.34-6.41-1.18-.51-2.13-1.71-3-2.74-.32-.38-.32-1.3-.1-1.81.3-.71,1.11-.59,1.74-.36.61.22,1.18.56,1.77.85.95.48,1.87.94,2.97.32.34-.19.93-.16,1.33-.02,3.25,1.21,6.67,2,9.65,3.89.32.2.76.2,1.28.33-.13-1.53-1.12-2.11-1.96-2.82-1.1-.92-2.19-1.86-3.24-2.84-1.43-1.34-2.82-2.73-4.23-4.1-.62-.6-1.86-1.03-1.28-2.1.51-.94,1.56-.38,2.31-.07,1.5.61,2.98.43,4.91.31-.8-.85-1.29-1.43-1.84-1.95-2.29-2.14-4.6-4.27-6.91-6.39-.92-.84-1.88-1.63-2.77-2.51-1.21-1.19-2.38-2.41-3.55-3.65-.5-.53-.68-1.7-1.68-1.21-1.01.49-.46,1.5-.27,2.3.09.37.3.73.5,1.07.45.8.93,1.58,1.38,2.39.54.96.87,1.96.58,3.32-.46-.4-.76-.63-1.01-.9-1.86-1.95-3.69-3.92-5.57-5.84-2.34-2.41-6.46-2.13-8.14.61.28.24.57.47.85.73,2.18,2.02,4.23,4.11,4.94,7.17.25,1.07.87,2.04,1.3,3.07.36.87.68,1.77,1.02,2.65l-.45.25c-.49-.57-1.08-1.08-1.44-1.72-.54-.97-1.25-1.61-2.26-2.08-1.36-.64-2.67-1.4-3.98-2.14-1.16-.66-1.22-1.01-.55-2.17.33-.57.64-1.14.89-1.74.43-1.02.14-1.81-.85-2.52-.83-.6-1.59-.47-2.32.17-.34.3-.67.61-1,.92-.24-.45-.22-.69-.13-.91.56-1.32,1.35-2.57,1.66-3.94,1.15-5.11.85-9.91-3.38-13.76-.84-.76-1.39-1.87-1.98-2.87-.47-.81-.88-1.59-2.02-1.59-.54,1-1.05,1.95-1.57,2.91.83.6,1.64,1.04,2.28,1.66,1.49,1.47,2.76,3.12,3.6,5.04.47,1.06.81,2.19,1.1,3.32.23.89-.02,1.71-.85,2.23-.86.54-1.1,1.39-1.38,2.28-.43,1.37-.91,2.74-1.55,4.03-.52,1.05-1.44,1.9-1.94,2.95-.49,1.03-.67,2.2-1.05,3.54Zm-220.8,193.85c.11-.01.23-.03.34-.04.57-2.66,1.13-5.33,1.7-7.99.03-.13.05-.26.06-.39.12-1.34-.13-1.61-1.42-1.81-.69-.11-1.44-.22-2.01-.57-1.78-1.11-3.48-2.34-5.22-3.52-1.76-1.19-2.06-1.1-2.81.81-.75,1.93-1.27,2.2-3.05,1.01-2.44-1.63-4.74-3.47-7.09-5.23-.04-.03.04-.21.09-.42,3.15.66,6.32,1.33,9.71,2.04-.43-1.5-1.23-2.15-2.25-2.71-2.01-1.1-4.05-2.18-5.91-3.51-4-2.87-7.88-5.89-11.8-8.86-.25-.19-.38-.52-.57-.78.73-.01,1.29.16,1.78.44,2.9,1.68,5.99,2.59,9.36,2.59.63,0,1.25.3,1.88.44.34.07.69.1,1.27.18-.8-1.89-2.17-3.25-2.32-5.18,1.55,1.59,3.08,3.2,4.24,5.05.85,1.36,1.89,2.11,3.38,2.4,1.54.3,3.13.47,4.62.96,1.94.64,3.84,1.27,5.93,1.09.5-.04,1.02.18,1.54.29,1.02.21,2.03.47,3.06.62,2.38.36,4.64.93,6.14,3.06.21.3.59.48.7.57,2.66-.83,5.12-1.61,7.85-2.46-.81-.65-1.43-1.22-2.11-1.68-2.87-1.96-5.74-3.92-8.64-5.83-1.15-.76-2.18-1.6-3.1-3.1,1.9.34,3.47.84,5.05.84,1.57,0,3.07.95,4.74.45-.1-.21-.11-.28-.15-.32-4.46-3.32-8.9-6.68-13.42-9.93-1.08-.78-2.3-1.61-3.94-1.34,1.12,2.65,3.14,4.71,3.64,7.81-.57-.25-.81-.34-1.03-.46-3.32-1.79-6.1-4.29-8.94-6.72-1.96-1.68-3.95-3.29-6.64-4.15.22,1.41.32,2.66.64,3.84.42,1.55,1.28,3.06-.19,4.44,1.74.92,3.41,1.65,4.91,2.63.91.59,1.77,3.33,1.92,5.1-1.22-1.19-2.6-1.61-4.16-1.63-.47,0-.99-.37-1.38-.69-1.97-1.63-3.92-3.29-5.86-4.95-.55-.47-1.06-.98-1.61-1.43-.11-.09-.35-.01-.57-.01-.07.58-.13,1.12-.21,1.76-.52-.07-.89-.12-1.27-.17-2.14-.29-4.33-.07-6.1,1-1.19.72-2.31,1.08-3.59,1.29-2.41.38-2.97,1.49-1.66,3.51.85,1.31,1.25,2.7,1.56,4.2.29,1.39.59,2.92,1.37,4.06,2.21,3.22,3.98,6.62,5.33,10.27.36.97.92,1.89,1.49,2.77,1.25,1.92,2.68,3.74,3.84,5.72,1.13,1.94,2.2,3.87,4.08,5.22.31.22.6.54.78.88,1.68,3.21,4.52,5.43,6.84,8.08.34.39.9.59,1.44.92.39-.78.66-1.31.99-1.97,1.32,1.12,2.56,2.03,3.38,3.44,1.64,2.82,4.23,4,7.45,3.81.4-.02.78-.28,1.54-.56-.93-.87-1.57-1.6-2.33-2.14-2.89-2.04-5.81-4.04-8.74-6.03-2.13-1.44-4.03-3.13-5.62-5.15-1.18-1.49-2.41-2.95-3.51-4.49-.42-.6-.92-1.5-.75-2.09.47-1.62-.27-2.71-1.24-3.7-2.23-2.28-3.74-5.04-5.32-7.76-.15-.26-.1-.65-.14-.98l.36-.2c.45.51.96.97,1.33,1.53,1.37,2.03,2.89,3.9,4.84,5.4.46.36.94.78,1.22,1.27,1.25,2.18,3.2,3.15,5.59,3.45.71.09,1.42.22,2.13.3,3.07.32,5.39,1.6,6.26,4.78.07.24.22.45.34.67Zm162.51-240.71c1.19-.2,2.28-.46,3.37-.53,1.44-.09,1.94.44,1.69,1.85-.16.91.13,1.51.74,2.09.33.31.64.66.94,1.01,1.36,1.55,3.33,2.44,4.49,4.27.68,1.07,1.84,1.83,2.78,2.74.71.68,1.4,1.38,2.13,2.04,1.2,1.11,2.43,2.18,3.62,3.29,2.24,2.1,4.46,4.23,6.71,6.32.21.19.56.23,1.02.4.34-1.19.64-2.25.93-3.31.28-1.03,0-1.89-.68-2.73-1.1-1.38-2.07-2.87-3.14-4.27-1.03-1.35-2.04-2.76-3.76-3.34-2.32-.78-4.53-1.72-6.21-3.61-.21-.24-.55-.37-.79-.58-2.05-1.73-4.09-3.46-6.13-5.2-.72-.61-.8-1.31-.17-2.06.7-.84,1.39-1.69,2.01-2.44,3.5.93,5.65,3.1,7.35,5.87.54.88,1.26,1.67,1.99,2.41.96.97,2.14,1.75,2.99,2.8,2.34,2.91,4.49,5.97,6.85,8.87,1.1,1.35,1.97,2.95,3.67,3.76.36.17.69.83.69,1.27,0,.84-.08,1.73-.39,2.5-1.64,4.16-2.07,8.53-2.29,12.92-.06,1.14.12,2.29.19,3.44.16.11.33.23.49.34.02-1.7.96-2.04,2.1-1.87.24-.82.3-1.59.67-2.16.53-.84.55-1.65.1-2.41-.84-1.42-.51-2.81.04-4.14.53-1.26,1.25-2.45,1.97-3.61.77-1.24.79-1.49-.22-2.54-.46-.47-.93-.92-1.4-1.38.09-.11.17-.22.26-.33.46.18.93.33,1.37.56,1.93.99,3.88,1.84,6.05,2.26,2.31.45,4.56,1.19,6.82,1.85.29.08.5.43.88.77-.65.24-1.07.38-1.48.56-4.06,1.73-6.16,5.58-5.25,9.9.51,2.41,2.12,4.66,4.64,5.01,2.57.36,5.01.06,7.14-1.46.96-.68,1.85-1.15,3.03-1.16.48,0,1.16-.18,1.4-.52,1.49-2.15,2.58-4.6,2.12-7.19-.56-3.2-2.47-5.85-5.24-7.57-2.63-1.64-5.56-2.56-8.75-2.66-4.21-.13-7.89-1.73-11.03-4.57-1.8-1.62-3.57-3.28-5.49-4.75-2.05-1.57-3.41-3.6-4.4-5.89-.99-2.27-2.54-4.12-4.14-5.92-1.34-1.51-2.91-2.83-4.39-4.21-1.48-1.38-2.95-2.78-4.48-4.11-.9-.78-1.63-.57-2.19.51-.28.54-.27,1.29-1.14,1.51-.65-1.81,1.08-3.25.61-5.2-2.59.79-5.59-.23-7.54,2.44-.14.2-.43.29-.65.44-.81.54-1.33,1.19-1.31,2.26,0,.45-.29,1-.6,1.36-.83.95-1.83,1.68-3.14,1.88-.47.07-.91.29-1.36.45,0,.14,0,.27,0,.41.98.36,1.95.71,3.14,1.14-.51.56-.84.92-1.14,1.24-.79-.28-1.46-.5-2.13-.75-.97-.37-1.27-.85-.91-1.81.32-.85.83-1.62,1.25-2.43.44-.84.24-1.39-.67-1.61-.43-.1-.91-.07-1.36-.01-1.24.15-2.47.3-3.7.53-1.07.19-2.15.41-2.94,1.24,1.03,1.82,2.98,1.57,4.46,2.18.65,2.49.44,5.03,1.5,7.35.85,1.87.29,2.82-1.71,3.56-1.83.67-2.09,1.13-1.79,3.08.28,1.79-.11,2.13-1.86,2.4-1.97.31-3.89.88-5.83,1.35-.06.01-.07.22-.15.47.26.11.53.29.82.33,4.21.66,8.41,1.32,12.63,1.93,1.38.2,1.81-.29,1.59-1.68-.22-1.43-.55-2.83-.79-4.26-.13-.77-.03-1.49.87-1.72.86-.21,1.03-.88,1.26-1.58.32-.99.73-1.95,1.08-2.94.48-1.37.85-2.73.32-4.22-.23-.63-.04-1.41-.04-2.43Zm-155.86,236.87c-.19-.07-.37-.14-.56-.22.13-.62.25-1.25.39-1.87.43-1.9,1.78-3.17,3.11-4.44,1.28-1.22,2.47-2.6,3.95-3.52,3.17-1.99,6.72-2.41,10.4-1.89,4.96.69,8.87,3.02,11.64,7.24.65.99,1.26,1.93,1.47,3.16.37,2.19.68,4.44,1.45,6.5,1.07,2.87,2.49,5.52,5.29,7.34,1.9,1.24,3.97,2.53,5.01,4.81.24.53.73,1.14,1.56.87.45-1.94-.32-4.59-1.75-5.64-1.42-1.04-2.9-2.01-4.38-2.97-1.13-.74-2.35-1.71-2.1-3.04.2-1.12.09-2.1-.22-3.04-.35-1.07-.11-1.76.71-2.4.26-.2.5-.43.71-.68,1.49-1.74,3.28-2.29,5.46-1.44.53.21,1.14.46,1.64-.33-.14-.28-.23-.72-.49-.92-1.52-1.18-1.55-2.62-.89-4.23.12-.3.32-.61.32-.92,0-.33-.2-.65-.32-.98-.28.2-.7.34-.82.61-.43.95-.73,1.96-1.12,2.93-.48,1.2-.82,1.41-2.08,1.24-.91-.12-1.82-.24-2.71-.45-.4-.1-.75-.42-1.12-.63,1.26-2.84,1.22-3.4-.47-5.18-.75-.8-1.67-.92-2.62-.48-.44,2.01-.43,1.99,1.22,2.74.39.18.73.49,1.04.79.08.08-.02.36-.05.63-.55.15-1.08.3-1.53.43-.19.66-.35,1.18-.5,1.7-.13.03-.26.06-.4.08-.5-.95-1.07-1.88-1.49-2.87-.6-1.38-1.54-2.44-2.74-3.28-7.34-5.07-17.29-5.27-24.23,1.37-.69.66-1.36,1.19-2.4,1.1-1.16-.1-1.85.56-2.21,1.58-.42,1.17-.83,2.35-1.17,3.55-1.08,3.81-2.44,7.58-1.9,11.66,0,.06-.17.15-.45.39-.2-.49-.49-.92-.53-1.37-.08-1.06-.63-1.67-1.55-2.06-.42-.18-.83-.4-1.21-.66-3.05-2.02-6.41-3.58-9.04-6.22-1.02-1.02-2.03-1.07-3.43-.26.39.53.74,1.07,1.15,1.55,1.9,2.25,3.87,4.46,5.72,6.75.79.97,1.71,1.61,2.9,1.88,1.28.29,2.56.56,3.85.83,1.01.21,1.74.68,2.34,1.6,1.17,1.81,2.44,3.58,3.83,5.22.78.93,1.83,1.68,2.88,2.32.85.52,1.61-.07,1.43-1.06-.11-.62-.43-1.24-.76-1.79-.57-.96-1.25-1.85-1.83-2.8-.25-.41-.37-.89-.54-1.34.43.03.65.16.8.36,1.53,1.96,3,3.97,4.58,5.89.78.95,1.62,1.93,2.63,2.61,4.61,3.13,9.24,6.22,13.94,9.22,5.59,3.57,11.16,7.15,16.54,11.03,2.92,2.11,5.97,4.04,8.96,6.07.8.54,1.57,1.13,2.23,1.61,1.41-.9,2.62-1.67,4.09-2.61-2.04-1.41-3.86-2.67-5.68-3.92-1.84-1.26-3.66-2.55-5.54-3.75-1.82-1.16-3.72-2.22-5.58-3.32.03-.06.05-.13.08-.19.82.17,1.64.34,2.46.51.04-.15.09-.29.13-.44-1.74-1.48-3.69-2.56-6.01-2.88-1.42-.19-2.6-.81-3.71-1.69-3.3-2.61-6.65-5.15-11.14-5.25-.32,0-.67-.06-.96-.18-.84-.34-1.74-.61-2.2-1.58.71-1.18,1.62-2.06,2.99-2.35,1.9-.4,2.93-1.56,3.27-3.46.21-1.15.62-2.26,1.66-3.21.36.57.65,1.06.98,1.52.39.54,1,.85,1.52.42.38-.31.53-.96.68-1.48.06-.2-.09-.55-.25-.72-1.25-1.3-1.61-2.91-1.72-4.63,0-.07-.2-.12-.44-.26-.54.78-1.08,1.59-1.63,2.38-1.22,1.75-2.89,2.87-4.93,3.36-4.88,1.18-10.64-1.53-12.68-6.11-1.24-2.77-1.99-5.71-1.48-8.81.05-.32.11-.65.14-.97.08-.82-.44-1.17-1.1-1.41-.75-.26-1.27-.03-1.61.68-.26.56-.55,1.1-.83,1.65Zm271.75-188.62l.46-.27c.39.54.87,1.03,1.15,1.62,1.93,4.01,3.83,8.05,5.73,12.08.59,1.25,1.14,2.51,1.7,3.77.31.68.8,1.02,1.57.84,1.02-.24,2.07-.4,3.06-.75.38-.14.89-.74.86-1.08-.12-1.16-.23-2.41-.76-3.41-1.26-2.36-2.77-4.59-4.14-6.9-.56-.95-1-1.98-1.52-2.96-.55-1.04-1.06-2.1-1.71-3.07-.69-1.02-1.57-1.92-2.27-2.93-1.09-1.58-2.2-3.05-4.07-3.85-1.06-.45-1.93-1.33-2.89-2.02-.42-.3-.79-.8-1.25-.9-1.04-.24-1.47-1.01-1.96-1.8-1.45-2.34-2.9-4.69-4.41-6.99-.34-.51-.85-1.08-1.39-1.25-1.22-.38-3.82,1.05-4.17,2.33-.34,1.27-1.12,2.08-2.14,2.68-2.09,1.24-4.22,2.42-6.76,2.47-.22,0-.43.17-.53.2,1.27,1.99,2.51,3.89,3.71,5.81.62,1,1.15,2.06,1.78,3.06.25.4.66.71,1.08,1.15.43-.5.79-.8,1-1.19,1.02-1.91,2.61-3.02,4.66-3.65,1.63-.5,2.08-.38,3.16.98.72.91,1.52,1.82,2.46,2.47.95.66,1.42,1.38,1.61,2.52.23,1.4.37,3.08,1.21,4.07,1.41,1.67,3.31,2.93,5.09,4.26.36.27,1.19.23,1.6-.01.3-.17.49-.96.38-1.38-.35-1.32-.85-2.6-1.34-3.88-.27-.7-.64-1.36-.96-2.03Zm-274.31-9.84c-2.1-1.2-3.82-.79-4.45,1.36-.62,2.11-1.8,3.91-2.61,5.91-.54,1.34-1.34,2.33-2.73,2.91-1.14.49-1.13.73-.58,1.97.09.21.13.45.2.75-.4.16-.72.43-.98.38-1.59-.33-2.76.66-4.04,1.24-.77.34-1.56.71-2.21,1.22-1.49,1.16-3.1,2.27-3.87,4.07-.54,1.26-.89,2.6-1.33,3.91-.41,1.22-.2,2.31.57,3.34.47.63.94,1.27,1.29,1.96.35.68.44,1.47-.32,1.93-1.02.61-1.11,1.5-1.1,2.53,0,1.25-.12,2.49-.12,3.74,0,.41.18.82.25,1.09,1.08-.18,1.99-.34,3.08-.52.28-.89.55-1.9.91-2.87.34-.91.63-1.89,1.18-2.67.62-.88,1.07-1.72,1.27-2.8.32-1.72.9-3.34,2.82-4.09,2.75-1.06,4.3-3.57,6.35-5.48.15-.14.13-.45.21-.73-1.56-.65-1.98,1.41-3.5,1.26.43-1.01.77-1.9,1.18-2.75.1-.2.43-.44.62-.41,1.59.26,2.74-.5,3.82-1.52.19-.18.61-.12.83-.16,1.05.75,1.02,2.42,2.91,2.62-.31-.86-.51-1.52-.79-2.14-.61-1.37-.53-2.63.25-3.93.54-.89.89-1.89,1.36-2.82.17-.34.35-.77.65-.93.94-.49,1.93-.87,2.9-1.3.53,1.41-.88,2.74.14,4.14,1.18-.85,2.32-1.62,3.39-2.46.32-.26.67-.74.67-1.11-.02-1.09-.07-2.23-.37-3.27-.32-1.12-.13-2.06.43-2.99.41-.67.88-1.31,1.26-2,.67-1.23,1.14-2.53,1.2-4-2.1.12-3.69.73-5.1,1.93-.68.58-1.55.96-2.38,1.34-1,.46-2.05.83-3.28,1.33Zm-15.55,40.24c-.51-1.15.04-1.96.39-2.78.46-1.07.7-2.15.2-3.23-.14-.3-.71-.64-1.01-.58-1.06.21-2.44,2.65-1.86,3.48.83,1.19.2,1.88-.41,2.78-1.28,1.89-2.48,3.83-3.68,5.77-.14.23-.06.6-.1,1.07,2.65,0,3.02-2.59,4.6-3.63,1.58.81,1.63,1.08.61,2.39-2.35,3-5.64,4.74-8.81,6.58-.15-1.33-.33-2.67-.46-4.01-.14-1.38-.24-2.77-.39-4.49-1.39,1.61-.56,3.75-2.22,4.87-.41-.09-.89-.19-1.27-.27-1.36,2.17-2.65,4.22-3.92,6.28-.33.53-.96,1.17-.34,1.74.33.3,1.07.18,1.62.18.42,0,.84-.1,1.34-.16.16,2.35.15,4.44-1.71,6.08-.57.51-.93,1.27-1.31,1.95-.17.31-.15.72-.21,1.08,1.49.19,2.88.37,4.42.57.83-.78.19-3.23,2.59-2.77,1.38-.92,2.78-1.52,4.19.14.61-.94,1.12-1.72,1.81-2.79.4,1,.65,1.62.98,2.42.53-.29.99-.49,1.39-.77,2.13-1.52,4.24-3.07,6.38-4.57,1.07-.75,1.24-.97.72-2.28-.94-2.37-2.01-4.7-2.97-7.06-.24-.59-.44-1.25-.43-1.87.02-1.11.22-2.21.34-3.32.07-.68.36-1.09,1.11-1.08.29,0,.58-.12.92-.2-.23-1.59-1.43-1.39-2.49-1.51Zm32.11-98.13c-.52.22-.96.34-1.33.56-2.79,1.66-5.71,2.93-8.97,3.29-.31.03-.63.2-.9.37-2.66,1.68-5.33,3.33-7.94,5.08-1.96,1.31-3.9,2.67-5.76,4.12-1.69,1.33-3.26,2.82-4.89,4.24-.39.34-.76.73-1.19,1.02-1.84,1.24-3.08,3.02-4.29,4.81-.91,1.34-.59,2.44.76,3.36.59.4,1.23.77,1.89,1.05,1.63.68,2.96,1.76,3.86,3.24,1.03,1.69,2.83,3.07,1.96,5.57-.38,1.08.72,1.94,1.96,1.75.96-.14,1.92-.43,2.84-.76,1.85-.64,3.68-1.36,5.52-2.03,2.02-.74,3.48-2.07,4.28-4.07.44-1.1-.08-1.89-1.17-1.91-.32,0-.66.06-.96.17-1.72.63-3.45,1.24-5.13,1.96-1.13.48-2.25.81-3.45.92.64-1.44,1.25-2.73,1.78-4.06.16-.39.27-.97.09-1.29-.79-1.42-.22-3.62-2.41-4.25-.13-.04-.17-.34-.27-.5-.44-.71-.84-1.45-1.33-2.13-.9-1.27-.9-2.69.11-3.77,1.71-1.84,3.59-3.44,5.99-4.33.74-.28,1.5-.51,2.19-.87,5.11-2.67,10.22-5.34,15.3-8.07,1.29-.69,1.68-1.89,1.45-3.46Zm113.66,333.69c-.33-1.44-.37-1.5-1.68-1.51-.92,0-1.83.1-2.75.12-1.77.05-3.54.11-5.31.12-1.06,0-2.08-.07-2.97.72-.24.22-.75.27-1.1.21-2.07-.35-4.12-.77-6.18-1.13-2.13-.38-4.26-.67-6.38.16-.97.38-2,.61-3,.91-1.8.55-3.59.55-5.43.08-2.28-.59-3.13-.06-3.87,2.11-.19.56-.39,1.11-.58,1.67-.35,1.03-.15,1.51.96,1.61,1.29.11,2.67.2,3.9-.11,3.99-1.02,7.93-.76,11.87.15,3.13.72,6.25,1.49,9.38,2.18,2.34.51,4.68.52,7-.15.37-.11.79-.3,1.14-.23,1.79.37,3.6.69,5.33,1.25,1.98.65,3.17-.01,3.46-2.03.28-1.94.73-3.85,1.07-5.78.09-.53.07-1.08.1-1.58-2.11-.67-3.13,1.8-4.97,1.21Zm-77.33-79.45c-.35,1.29-.6,2.5-1.03,3.64-.27.72-.27,1.23.32,1.74.66.57,1.39.57,1.98.08.47-.39.73-1.05,1.24-1.81,1.83,2.22,3.27,3.96,4.71,5.71.51.62.42,1.75,1.57,1.81,1.08.06,1.31-.97,1.9-1.52.12-.12.16-.32.27-.55-.88-.54-1.72-1.05-2.53-1.55.94-.65,1.73-1.21,2.67-1.87.49.14,1.24.34,2.12.59.3-2.02,1.61-2.47,3.37-2.48,3.6-.03,6.81-1.38,9.68-3.45,1.96-1.41,3.71-3.1,5.55-4.69.23-.2.38-.49.74-.99-1.68-.89-3.18-1.81-4.78-2.47-.64-.26-1.6-.15-2.27.13-1.51.64-3.25,1.08-3.88,2.95-.07.2-.37.32-.69.58-.28-1.11-.53-2.08-.86-3.4-1.39.96-2.49,1.73-3.6,2.49.26,1.48-.82,3,.18,4.49-1.81,1.15-3.81,1.6-6,1.77.04-.3.04-.48.08-.65.43-1.76.09-2.14-1.68-1.84-1.29.22-2.58.52-3.88.68-.9.11-1.83.08-2.73,0-.95-.08-1.53-.64-1.65-1.71.3-.18.59-.32.83-.52,1.55-1.3,3.98-1.55,4.64-3.93.08-.3.58-.51.9-.73.81-.55,1.66-1.07,2.45-1.65.32-.24.54-.62,1.02-1.21-1.93-.01-2.78,1.43-4.12,1.79-1.38.38-2.72.97-4.11,1.29-1.4.32-2.85.54-4.29.57-1.37.03-2.74-.23-4.58-.41.49.71.67,1.22,1.03,1.44.84.49,1.74.91,2.66,1.22.75.25,1.46.64,1.46,1.4,0,1.29.65,2.21,1.31,3.07Zm-40.54,26.8c.1.37.1.62.21.7.86.68,1.7,1.41,2.64,1.97,1.17.7,2.47,1.56,2.3,2.91-.19,1.46.52,2.05,1.43,2.69,1.77,1.24,3.57,2.44,5.35,3.68.14.1.2.31.32.51-.56.2-1.09.39-1.56.56-.11,1.63.43,2.78,1.7,3.63,1.14.77,2.17,1.68,3.29,2.48.72.52,1.22,1.08,1.42,2.01.41,1.94,2.19,3.38,4.14,3.59,1.82.2,3.63.47,5.45.7.32.04.72.19.96.06.49-.26,1.06-.6,1.26-1.06.15-.34-.09-1.04-.39-1.36-.57-.61-1.32-1.06-1.98-1.59-.24-.2-.44-.45-.66-.68,4.03,1.51,7.53,4.19,12.04,4.22-.3-.55-.69-.94-1.14-1.26-3.56-2.58-7.08-5.2-10.71-7.68-2.97-2.04-5.98-4.06-9.13-5.79-4.56-2.49-8.84-5.37-13-8.45-1.15-.85-2.34-1.59-3.94-1.82Zm223.76-105.83c-1.83,1.55-4.17,2.4-5.27,4.78-1.12,2.44-2.48,4.77-3.63,7.2-.52,1.11-.82,2.34-1.13,3.53-.42,1.58-.79,3.16-1.11,4.76-.16.82-.3,1.68-.22,2.49.08.86.7,1.07,1.42.64.83-.49,1.7-.94,2.47-1.51.32-.24.63-.74.63-1.11-.03-1.66.94-2.6,2.32-3.57.43,1.15.95,2.15,1.15,3.21.19,1.04.04,2.14.04,3.3,1.45.2,2.91.29,4.04-.52,1.19-.86,2.35-1.6,3.78-1.99,1.01-.28,1.3-.93.67-1.79-.97-1.33-.8-2.66-.56-4.12.19-1.15.22-2.35.15-3.51-.07-1.22-.54-2.22-1.88-2.71-.61-.23-1.28-.79-1.55-1.37-.57-1.2-1.26-2.12-2.73-2.22.04-2.01,2.31-3.22,1.4-5.5Zm-99.98-204.66c.87.92,1.78,1.85,2.65,2.82,1.41,1.56,1.31,2.58-.29,3.97-.71.62-1.38,1.28-2.21,2.06,1.13.55,1.98.96,3.12,1.52-.83,1.15-1.6,2.03-2.16,3.02-.67,1.18-1.6,1.6-2.9,1.62-1.5.02-3.01.18-4.51.3-.55.04-1.1.14-1.71.23.08.39.06.65.17.73.57.42,1.22.72,1.74,1.19.54.49.94,1.12,1.42,1.68.07.09.24.12.36.13,1.36.19,2.73.48,4.06-.14,1.25-.58,2.57-1.05,3.73-1.77,1.61-1,3.25-1.64,5.18-1.49,1.02.08,2.01-.2,2.38-1.33.36-1.08-.16-1.86-1.01-2.54-1.26-1.01-2.44-2.11-3.72-3.23.82-.47,1.61-.81,2.25-1.33,1.3-1.08,2.49-2.29,3.79-3.39.37-.31.92-.53,1.41-.55.91-.05,1.89-.12,2.73.16,3.84,1.3,8.01,1.4,11.71,3.25,1.29.65,2.71.58,4.22.02-.29-.23-.42-.4-.59-.45-7.2-2.21-14.4-4.45-21.62-6.6-1.24-.37-2.58-.39-3.87-.59-1.09-.17-2.2-.27-3.25-.56-1.58-.44-1.97-.34-3.09,1.28Zm61.7,279.78c1.36-.57,2.26-1.24,3.06-2.15.5-.56,1.14-1.18,1.82-1.36,4.71-1.25,8.55-3.95,12.12-7.1,1.22-1.08,2.47-2.17,3.1-3.76.25-.64,1.01-1.33.28-1.91-.32-.26-1.16.13-1.77.25-.82.16-1.67.56-2.45.45-1.57-.23-2.99.1-4.42.59-.48.16-1.1.49-1.48.32-1.4-.62-2.73-.03-4.07.11-.76.08-1.51.71-2.23.66-2.24-.14-3.8,1.18-5.54,2.19-1.42.83-1.72,2-1.43,3.5.78.24,1.49.45,2.4.73-.48.59-.92.93-1.09,1.38-.22.57-.54,1.56-.28,1.8,1.2,1.14,1.56,2.65,1.97,4.3Zm-212.77-111.87c.22.09.37.11.45.19.31.33.59.7.91,1.03.41.42.81.88,1.29,1.19,1.06.68,1.71.39,1.99-.83.38-1.66.83-3.31,1.09-4.98.22-1.43.21-2.89.3-4.34-.16-.02-.32-.04-.48-.06-.23.97-.46,1.94-.71,2.98-.67-.11-1.23-.2-1.49-.24-.97.93-1.7,1.73-2.55,2.39-.26.2-.94.17-1.23-.04-.29-.2-.56-.82-.46-1.15.51-1.81,1.14-3.59,1.73-5.39,1.7.74,1.68.72,3.18-.44.34-.26.79-.46,1.21-.52,1.88-.28,2.57-.94,2.76-2.86.18-1.81-.47-3.45-.94-5.14-1.27.07-1.72.93-2.25,1.64-.83,1.1-1.59,2.25-2.41,3.36-.78,1.06-1.75,1.9-3.14,2.38-.16-.79-.3-1.48-.49-2.42-1.52.42-1.34-1.36-2.36-1.94-.37.34-.68.66-1.03.92-2.16,1.66-3.11,3.74-2.5,6.48.22,1.01.16,2.09.25,3.13.05.49.16.98.27,1.56,1.06-.39,1.98-.67,2.86-1.06.87-.39,1.14-1.71,2.7-1.74-1.03,1.54-1.74,2.99-2.82,4.08-.93.94-1.8,1.86-2.49,2.98-.17.28-.43.52-.76.89-.13-.4-.25-.58-.23-.75.18-1.5-.95-2.08-1.95-2.65-1.02-.58-1.46.56-2.15.95-.62.35-1.17.93-.89,1.58.4.93,1,1.84,1.73,2.52.37.35,1.24.33,1.84.24,1.79-.27,3.39-.97,4.46-2.43q1.76.67,3.13-.59c.38-.35.8-.65,1.16-.94Zm290.41,26.79c.51-.15.79-.17.99-.3,2.27-1.41,4.63-2.71,6.77-4.29,1.66-1.23,3.01-2.89,5.01-3.25,0-2.21,0-4.17,0-6.12,0-2.17-.27-2.59-2.3-3.33-1.36-.5-2.7-1.02-3.7-2.13-.26-.29-.56-.58-.89-.76-1.04-.58-2.22-.99-3.33-.5-1.27.57-1.48,1.72-1.43,3.12.1,2.54.01,5.11-.2,7.64-.22,2.67-.7,5.31-1.02,7.97-.07.59.06,1.21.1,1.94Zm-58.74,58.08c.33,1.19.15,2.46-.81,3-1.08.61-2.48.72-3.76.92-1.02.15-2.07.06-3.1.16-1.25.13-2.19.84-2.85,1.89-.69,1.08-.5,1.55.71,1.99.24.09.62.09.71.25.67,1.25,1.78.85,2.79.79,1.03-.06,2.09-.38,3.09-.26,3,.35,5.75-1.05,6.89-3.9.56-1.39,1.37-2.51,2.45-3.49.53-.48,1.08-.96,1.55-1.51.87-1.03.78-2.11-.24-3.23-.28.13-.58.26-.88.4-.36.17-.69.39-1.07.5-.91.26-1.49-.23-1.19-1.11.32-.95.45-1.97,1.45-2.68,1.02-.72,1.04-1.98.9-3.33-.62.17-1.14.23-1.58.44-2.3,1.09-4.55,2.28-6.87,3.31-1.71.76-2.86,1.96-3.68,3.6-.99,1.98-.71,2.92,1.29,3.81.11.05.25.02.43.04,1.2-.44,1.89-2.09,3.77-1.58Zm-145.14,107.44c-.04.16-.08.32-.13.48-.23.06-.48.21-.69.17-1.93-.39-3.92-.61-5.75-1.28-1.66-.61-3.24-.37-4.84-.23-1.19.1-1.43.82-1.04,1.99.43,1.28,1.49,1.67,2.59,1.81,2.67.33,4.64,2.05,6.86,3.27.22.12.51.35.53.54.12,1.84,1.51,1.69,2.73,1.76,1.7.1,3.4.06,5.09.22,1.49.14,1.76.12,2.48-1.27.93-1.8,1.81-3.63,2.68-5.46.8-1.69.58-2.1-1.3-2.57-3.68-.93-7.37-1.87-11.06-2.78-.69-.17-1.42-.29-2.12-.27-.34,0-.66.4-1.2.74,1.9,1.06,3.52,1.97,5.15,2.88ZM82.3,137.08c1.05,1.57,1.93,2.84,2.77,4.13.93,1.43,1.73,3.09,3.43,3.66,1.79.6,2.51,1.69,2.43,3.47,0,.08.17.17.44.42.52-.37,1.1-.75,1.64-1.17.47-.36.86-.81,1.35-1.14,1.77-1.22,2.29-2.72,1.54-4.63-.54-1.4-.93-2.88-1.66-4.17-.78-1.36-1.67-2.61-1.48-4.28.01-.11-.11-.23-.18-.34-1.36-2.12-2.72-4.25-4.07-6.37-.89.75-3.2,3.78-3.48,4.6-.08.24-.16.52-.14.77.14,1.59-.7,2.73-1.7,3.82-.42.45-.73,1.01-.89,1.24Zm94.65,191.78c-.93-1.26-1.34-2.77-2.84-3.33-1.47-.55-2.95-.67-4.4-.03-1.51.67-2.1,2.31-1.57,4.15.24-.04.49-.07.72-.13.29-.08.57-.2.84-.29.8,1.5,1.43,1.91,2.4,1.7.8-.18.97-.79,1.05-1.47.25-2-1.41-1.88-2.76-2.19,1.43-.94,2.11-.97,3.15-.28,1.56,1.03,1.37,2.49.8,4.02.58.13,1.01.23,1.42.32-.13,2.3-2.05,2.46-3.65,3.16,1.24.63,2.44,1.01,3.65,1.41,1.1.36,1.68,1.07,1.15,1.81-.95,1.33-.31,2.67-.36,3.99-.05,1.15.78,1.65,1.83,1.2,1.09-.47,1.85-1.22,1.85-2.52,0-.68.07-1.36.12-2.16,1.78.42,3.29.81,4.82,1.11.56.11,1.22.14,1.72-.07.4-.16.76-.7.89-1.14.18-.6-.27-.92-.85-1.09-1.31-.39-2.6-.8-3.9-1.23-.63-.21-1.4-.17-1.95-1.09,1.93-.13,3.68-.25,5.39-.36.15-.72.23-1.16.34-1.6.29-1.19-.01-2.01-1.05-2.62-1.03-.6-2.1-.57-3.22-.2-1.27.42-1.34.32-1.9-.88-.64-1.36-1.31-2.7-2.05-4.01-.18-.32-.64-.47-1-.72-1.16,1.49.95,3.08-.66,4.55Zm-88.12-28.82c-.23-.65-.25-1.17-.51-1.4-.94-.81-1.17-1.81-1.19-2.98-.02-1.17.07-2.43-.32-3.49-.69-1.9-1.55-3.78-2.64-5.47-1.53-2.39-3.99-2.67-6.29-1.05-.85.6-1.79,1.09-2.71,1.59-.91.49-1.85.93-2.89,1.45.81,2.78,1.92,5.28,3.32,7.64.73,1.22,1.2,1.24,2.64.92,1-.22,2-.63,3.03.03,2.22,1.42,4.78,1.91,7.55,2.77Zm225.79-177.08c-.22-1.79-.55-3.34-.55-4.89,0-1.43-.72-2.28-1.67-3.14-1.64-1.49-3.23-3.03-4.81-4.58-2.85-2.79-5.67-5.6-8.51-8.4-.19-.18-.42-.32-.61-.5-1.19-1.12-2.38-2.24-3.57-3.36-1.85-1.75-3.67-3.52-5.55-5.23-.76-.69-1.27-.51-1.66.39-.7,1.61-.4,3.01.91,4.22,2.93,2.72,5.94,5.36,8.79,8.17,4.44,4.37,8.77,8.85,13.16,13.27,1.27,1.29,2.57,2.55,4.08,4.04Zm30.74-61.75c-.57-.83-1.33-.58-2-.6-.85-.02-1.7.09-2.54,0-2.02-.19-3.93.99-4.5,2.93-.28.94-.59,1.9-.65,2.87-.09,1.64-.04,3.27-1.43,4.49-.17.15-.2.48-.25.73-.27,1.35-.59,2.69-.77,4.04-.1.79-.27,1.43-1.12,1.63-.84.2-1.52.62-1.52,1.54,0,.97.87,1.33,1.6,1.5,1.58.37,2.82,1.33,4.19,2.08.58.32,1.25.46,1.96.71.47-2.52.94-4.76,1.26-7.01.07-.47-.32-1.11-.67-1.51-.49-.55-.65-1.07-.52-1.78.47-2.53,1.05-4.99,2.88-6.96.34-.37.58-.89.72-1.38.41-1.43,1.23-2.42,2.7-2.83.22-.06.4-.28.64-.47ZM61.98,284.6c-.11-1.2-.06-2.01-.27-2.73-1.3-4.46-1.44-9.19-3.17-13.55-.36-.91-.54-1.89-.76-2.85-.22-.96-.34-1.93-.58-2.89-.28-1.12-.55-1.22-1.66-.97-.82.19-1.67.25-2.5.38-.67.11-1.33.24-1.89.34-.14,3.26.9,5.92,2.14,8.54.26.55.45,1.33.26,1.86-.4,1.15,0,2.04.48,2.99,1.61,3.23,4.08,5.76,6.7,8.16.22.2.53.31,1.25.72Zm211.3,74.07c.75-1.22.71-2.32-.42-3.33-.35-.31-.49-.89-.64-1.37-.37-1.18-.81-1.45-1.79-.79-1.2.79-2.34,1.67-3.43,2.6-.43.36-.83.92-.93,1.45-.2.99-.83,1.36-1.63,1.77-.82.42-1.83.77-1.95,2.26,1.44.12,2.81.24,4.32.36-.48.88-.95,1.74-1.53,2.8h2.26c.32.47.6.89.89,1.31,1.43-.03,2.08-1.16,2.96-1.88,2.12-1.71,2.57-1.7,4.22.41.26.34.63.6.92.87.91-.52.45-1.22.52-1.82.04-.4.24-1.05.49-1.11.42-.1,1.01.05,1.39.31.48.32.79.87,1.22,1.27.43.41.92.8,1.54.17.3-1.24-1.42-1.99-.98-3.3.82.18,1.52.34,2.51.55-.24-1.11-.36-1.86-.57-2.59-.3-1.06-1-1.46-2.08-1.22-.83.19-1.64.43-2.47.63-.98.23-1.8.53-2.29,1.59-.5,1.08-1.18,1.04-1.88.1-.19-.26-.34-.56-.63-1.04Zm-163.24-57.43c-.07.1-.13.2-.2.31.3.39.6.77.89,1.16.65.9,1.47,1.73,1.88,2.73.78,1.9,1.99,3.52,3.04,5.24.89,1.45,1.98,1.9,3.52,1.98,2.62.13,5.22.42,7.61,1.67.51.27,1.11.45,1.68.53.49.07,1.18.12,1.5-.15,1.11-.95,2.48-1.71,3.16-3.27-2.52-2.9-5.86-4.61-9.03-6.52-.31-.19-.8-.09-1.31-.13.38,1.19.71,2.17.99,3.16.27.93,1.35,1.59,1.01,3.02-.77-.37-1.44-.61-2.02-.99-1.79-1.2-3.54-2.47-5.33-3.68-1.46-.99-3.01-1.82-4.16-3.25-.52-.64-1.31-1.08-2.04-1.52-.33-.2-.79-.19-1.19-.28Zm224.69-151.29c.1-.12.2-.24.3-.35-1.28-1.37-2.52-2.77-3.85-4.09-1.35-1.33-3.24-2.14-3.84-4.37,1.02.4,2.03.8,3.15,1.24.22-.88-.05-1.41-.5-1.93-.29-.33-.49-.72-.73-1.09-.29-.46-.5-1.02-.89-1.37-.77-.7-1.61-1.34-2.48-1.92-1.16-.77-2.37-1.47-3.96-2.45.19,1.57.33,2.71.49,3.96-.31.2-.72.46-1.19.76.38,1.41.56,2.81,1.14,4.02.6,1.27,1.42,2.53,2.44,3.48,2.77,2.56,6.34,3.39,9.91,4.11Zm-209.01,30.66c-.39-.23-.62-.35-.84-.5-2.11-1.36-2.2-1.7-1.43-4.15.21-.67.43-1.45.29-2.1-.37-1.71-.93-3.39-1.44-5.06-.28-.93-.58-1.86-.97-2.74-.22-.49-.56-1.08-1-1.27-.74-.33-1.2.31-1.51.91-.62,1.23-1.22,2.47-1.77,3.73-.18.4-.32.91-.24,1.33.6,3.15,1.14,6.36,3.18,8.98,1.03,1.32,2.25,2.51,3.46,3.85.7-.91,1.36-1.77,2.28-2.96Zm164.2,179.73c.11.15.22.31.33.46,1.69-.66,3.43-1.22,5.05-2.01.86-.42,1.65-.65,2.59-.65,2.64,0,4.48-1.61,4.74-4.19.07-.67-.04-1.53-.43-2.02-.75-.97-.92-1.97-.88-3.11.02-.64-.05-1.32-.25-1.93-.1-.31-.58-.49-1.11-.9-.19,2-1.35,2.37-2.85,2.23.09.76.16,1.38.25,2.11-.74.11-1.37.2-1.6.24-1,.83-1.74,1.4-2.43,2.04-.51.47-1.09.96-1.37,1.56-.49,1.06-1.22,1.43-2.34,1.39-.78-.03-1.57.04-2.35.16-.31.05-.58.33-.87.51.02.14.04.27.07.41,1.88.14,3.86-.57,5.66.38.09,1.68-1.61,2.17-2.21,3.33ZM194.93,85.45c-.66,0-1.09-.01-1.52,0-1.37.06-2.78.37-4.1.13-2.77-.49-4.37.74-5.47,3.06-.11.24-.21.49-.35.7-.9,1.34-1.86,1.69-3.47,1.31-.81-3.02.02-4.4,2.97-4.9.26-.04.53,0,.78-.07,1.98-.48,3.72-1.43,5.5-2.6-.73-.84-1.41-.74-2.1-.47-1.22.48-2.45.94-3.63,1.5-1.12.52-2.16,1.14-3.48,1.21-1.17.07-2.29,1.28-2.2,2.4.12,1.54.47,3.08.85,4.58.37,1.44.91,2.84,1.36,4.27.13.4.19.81.31,1.31,1.67-.7.4-3.05,2.26-3.49.4.28.8.55,1.27.88.81-1.44-.66-2.38-.59-3.82,1.17.1,2.24.27,3.31.27,1.04,0,2.2.06,2.78-1.33-.78-.24-1.44-.44-2.09-.64.68-2.35.68-2.34,2.86-2.5.91-.06,1.84-.11,2.73-.3.72-.15,1.58-.22,2.01-1.51Zm120.22,257.02c-.69,1.35-1.31,2.59-1.95,3.84,1.6.42,2.43.05,2.97-1.66.39-1.24.98-1.65,2.25-1.6,1.85.07,3.15-1.08,3.29-2.91.08-1.1-.07-2.2,1.2-3.24-1.39-.09-2.35-.13-3.3-.22-1.97-.18-3.53.34-4.16,2.42-.24.8-.78.97-1.51.87-.32-.05-.69,0-.97-.15-1-.52-1.67-.16-2.41.58-1.05,1.05-2.23,1.98-3.28,2.89-.11.84-.24,1.59-.3,2.35-.08,1.07.43,1.55,1.4,1.15,1.37-.57,2.66-1.31,4.05-2-.32-.95-.75-1.68.06-2.35.77-.65,1.49-.69,2.67.03Zm-85.25,21.66c.3.51.42.94.69,1.12,1.35.88,2.88.72,4.37.55.25-.03.64-.57.63-.86-.07-1.67,1.04-2.49,2.26-3.17,1.19-.65,2.43-1.24,3.7-1.7.73-.26,1.41.05,1.66.94.29,1.01.93,1.78,1.95,2.04.87.22,1.34.71,1.66,1.49.22.53.51,1.05,1.35.94.07-1.38.33-2.61,1.44-3.53.32-.27.47-.78.64-1.21.76-1.98-.43-3.47-2.52-3.25-.76.08-1.57.07-2.32-.09-2.88-.6-5.15.02-7.13,2.45-1.68,2.06-3.77,3.86-6.77,3.87-.48,0-.95.23-1.61.4Zm-49.1,15.11c3.14,1.65,6.4,2.17,9.4,3.37.36.14.83.02,1.35.02-.17-.65-.29-1.11-.39-1.53,1.01-.5,1.77-.14,2.55.24,1.11.55,2.24,1.06,3.38,1.56,1.61.7,3.24,1.34,4.84,2.07.61.28,1.16.57,1.82-.07-.71-1.5-1.82-2.51-3.17-3.36-.92-.58-1.9-1.23-2.51-2.09-.75-1.04-1.6-1.42-2.81-1.42-1.63,0-3.27-.08-4.9-.09-.65,0-1.34-.04-1.95.15-1.54.49-3.06.49-4.64.22-.92-.16-1.95-.27-2.97.92Zm127-259.16c-.97-1.05-1.93-2.09-2.9-3.14-2.35-2.56-4.64-5.16-7.45-7.27-1.67-1.25-3.25-2.67-4.66-4.21-1.53-1.68-3.53-2.92-4.66-4.97-.15-.27-.45-.47-.7-.69-.81-.73-1.7-.77-2.9-.34.82,1.16,1.43,2.24,2.25,3.13,1.73,1.88,3.53,3.7,5.38,5.46,3.66,3.48,7.36,6.92,11.07,10.35,1.21,1.12,2.61,1.92,4.56,1.69Zm-147.9,190.88c-.15-.78-.17-1.13-.28-1.46-.24-.74-.63-1.44-.76-2.19-.31-1.83-.57-2.12-2.36-2.04-.45.02-.92.09-1.35.22-1.26.37-2.2-.06-3.25-.8-2.79-1.95-5.68-3.76-8.57-5.56-.54-.34-1.27-.36-2.06-.56,0,.56-.1.88.02,1.05,1.35,1.99,2.49,4.2,4.18,5.86,1.01.99,2.87,1.13,4.35,1.63.24.08.52.09.78.11,2.12.22,4.1.82,5.95,1.9.95.55,1.92,1.05,3.36,1.84Zm194.24-201.54c-.13.13-.26.26-.38.38.47.92,1.03,1.81,1.4,2.77.69,1.84,1.32,3.7,1.89,5.58.44,1.44,1.22,2.37,2.77,2.71,1.59.34,3.14.86,4.7,1.34,1.05.32,2.06.85,3.17.39.18-1.87-1.21-5.66-2.6-6.69.33,1.39.6,2.55.99,4.18-2.73-1.49-3.94-3.97-6.01-5.45-2.15-1.53-3.65-3.84-5.92-5.22Zm10.25-25.68c-.45.79-.7,1.24-.97,1.69-.92,1.52-.98,1.83.11,3.14,1.91,2.29,3.88,4.52,6.75,5.72,1.67.7,1.83.58,2.95-.9,2.17-2.89.82-3.33-1.82-3.82-.87-.16-1.74-.34-2.52-.5,0-.92-.08-1.57.02-2.2.13-.78-.14-1.3-.81-1.59-1.18-.52-2.38-.99-3.71-1.53Zm15.79,84.93c.14-1.26-.55-1.9-1.36-2.52-1.3-1-1.82-2.25-1.67-3.78,2.57,1,5.15,1.72,7.92.37-.14-1.29-.99-1.95-1.94-2.36-3.19-1.39-6.41-2.7-9.63-4.03-.21-.09-.48-.01-.89-.01.14.44.15.81.34.99.99.98,1.33,2.23,1.63,3.52.3,1.28.55,2.59,1.03,3.8.48,1.2,1.14,2.35,1.86,3.43.61.91,1.53,1.18,2.72.59Zm25.98,24.07c-.73-2.46-1.29-4.66-2.06-6.79-.46-1.27-1.24-2.43-1.92-3.61-.58-1.03-1.83-1.48-2.87-1-1.09.5-.58,1.43-.5,2.23.09.9.17,1.81.29,2.71.22,1.61.45,3.23.7,4.84.14.96.7,1.58,1.68,1.62,1.41.06,2.83.02,4.68.02Zm-208.3-111.35c1.83,2.2,3.42,4.12,5.16,6.22.16-.75.28-1.37.41-1.99.12-.57.11-1.25.93-1.29.69-.03,1.28.15,1.63.85.17.35.48.62.99,1.25.12-2,.26-3.59,2.33-4.24.94,1.39,2.42,1.82,4.22,1.75-.45-3.04,1.58-5.19,2.28-7.83-1.04.74-1.96,1.55-2.81,2.44-1.83,1.9-5.11,2.29-7.17.09-.31-.34-.76-.55-1.3-.93-.37,1.37-.65,2.42-.96,3.61,1.46.03,2.82-1.19,3.97.2-.41.89-1.08,1.19-1.91,1.31-.77.12-1.57.24-2.29.52-1.2.46-2.13.27-2.95-.76-.51-.63-1.05-1.34-2.52-1.22Zm199.47,104.6c-.17.05-.35.11-.52.16.06.7.2,1.41.16,2.1-.03.47-.2,1.17-.53,1.33-1.03.5-.91,1.31-.87,2.16.1,2.48.26,4.96.26,7.45,0,1.93-.23,3.87-.35,5.8-.05.76-.03,1.53.98,1.6,1.1.08,1.43.71,1.47,1.69,0,.22.28.43.56.84.46-2.51.65-4.76.35-7.04-.12-.89-.21-1.79-.41-2.66-.4-1.79-.82-3.62-.21-5.38.24-.71.41-1.31.3-2.04-.22-1.36-.38-2.72-.62-4.07-.12-.66-.36-1.3-.55-1.94ZM138.01,115.05l-.3.4c.7.84,1.07,2.05,2.34,2.26,1.27.21,1.73-.94,2.32-1.79.04-.05.07-.11.09-.18.41-1.29,1.23-2.07,2.59-2.36,1.1-.23,1.81-1.01,2.27-2.02.3-.65.57-1.32.79-2,.74-2.21,1.87-4.17,3.62-5.75.3-.27.47-.67.96-1.39-1.66.36-2.48,1.21-3.23,2.04-1.78,1.95-3.78,3.6-6.15,4.78-1.03.51-1.56,1.34-1.73,2.45-.13.84-.23,1.69-.46,2.51-.18.65-.54,1.24-.82,1.87-.92-.33-1.61-.58-2.3-.83Zm160.44,210.64c-.95-.45-1.49-.59-1.86-.9-2.11-1.78-4.61-2.02-7.2-1.85-.7.05-1.42.29-2.06.58-.8.37-.92,1.18-.18,1.49,1.63.69,1.96,1.87,1.86,3.46-.05.81.23,1.63.4,2.73,2.95-1.8,5.8-3.54,9.04-5.51ZM126.12,145.53c-1.83-1.05-1.88-1.09-2.89,0-1.34,1.43-2.61,2.94-3.89,4.42-1.48,1.71-2.58,3.47-2.44,5.97.07,1.25.29,2.05,1.37,2.91,3.14-4.16,5.27-8.78,7.86-13.29Zm-63.65,44.61c1.45.06,2.21.55,2.5,1.66.07.28.34.59.6.74.96.54,1.91,1.22,2.96,1.48,1.38.34,2.85.49,4.27.44,1.31-.05,1.95-1.08,1.65-2.15-.44-1.58-3.55-4.05-5.16-4.08-.85-.01-1.71-.11-2.55.01-1.22.18-2.43.48-3.62.81-.2.06-.3.49-.64,1.09Zm13.89,110.06c-.95-.9-1.55-1.46-2.14-2.02-.65-.63-1.49-1.15-1.91-1.91-1.19-2.17-3.23-2.98-5.5-3.95.07.61.07.99.16,1.36.4,1.58.79,3.17,1.25,4.73.26.87.56,1.75,1,2.54.21.38.82.81,1.2.77,1.86-.19,3.69-.6,5.94-1.52Zm51.47-145.1c-1.15.37-2.26.7-3.34,1.08-.3.1-.61.29-.8.54-1.67,2.16-2.38,2.84-.53,5.53.91,1.33,1.38,2.64.89,4.22-.16.52-.39,1.1.3,1.67.24-.43.45-.73.59-1.07.63-1.51,1.03-3.15,1.9-4.5,1.55-2.4,1.24-4.9.99-7.47Zm-39.21,15.78c-1.69.7-1.86.74-2.09,1.51-.43,1.43-.76,2.89-1.11,4.35-.24,1,.05,1.8,1.01,2.3,1.72.89,3.44,1.8,5.1,2.67,1.48-1.53,1.65-2.53.76-3.43-1.81-1.81-3.41-3.74-3.47-6.49,0-.25-.11-.5-.2-.9Zm248.24,150.39c-.06,1.44-1.2,1.55-2.34,1.65-.91.07-1.83.1-2.74.15-1.29.07-2.18.67-2.78,1.84-.35.67-.87,1.32-1.47,1.77-1.25.94-2.61,1.72-3.9,2.59-.54.37-1.26.65-1.21,1.51.26.06.41.16.49.11,2.68-1.46,5.54-2.23,8.59-2.49,1.48-.13,1.87-.69,2.12-2.11.31-1.76.88-2.25,2.72-2.41.51-.04,1.05-.1,1.53-.28.95-.35,1.63-1.28,1.39-1.9-.36-.92-1.19-.56-1.87-.58-.12,0-.25.07-.52.15Zm-7.62-26.49c-.33.17-.96.37-1.46.76-1.69,1.34-3.34,2.74-4.98,4.14-.72.62-1.89,1.12-1.57,2.26.29,1.06,1.56.73,2.37,1.06.68.27,1.45.55,2.03-.09,1.79-1.99,3.58-3.99,5.26-6.07,1.04-1.29,0-2.05-1.65-2.06Zm-187.32,1.14c-.33-1.84-.56-3.47-.94-5.06-.13-.53-.61-1-.99-1.44-1.37-1.57-2.76-3.13-4.18-4.66-.21-.22-.6-.27-.91-.4l-.21.24c.47.79.95,1.58,1.52,2.53-.92.11-1.63.2-2.4.3,1.48,2.29,2.77,4.47,4.24,6.51.83,1.16,2,2.03,3.86,1.99Zm24.79,11.8c.39.54.78.86.88,1.25.32,1.27,1.16,1.77,2.38,1.97,1.11.18,2.11.33,3.23-.19,1.65-.77,3.41-1.27,5.13-1.88.51-.18,1.02-.37,1.57-.57-.64-1.96-2.1-1.65-3.34-1.59-2.74.14-5.48.4-8.21.64-.48.04-.96.22-1.63.37Zm-27.73-167.45c1.8-.99,3.52-1.99,4.67-3.53.68-.91,1.02-2.32.96-3.47-.06-1.15-1.63-.76-2.38-1.33-.05-.04-.12-.06-.18-.08-1.99-.65-3.85.63-3.53,2.64.27,1.73.55,3.4.08,5.12-.02.09.12.22.38.64Zm-29.49-12.49c-.48.37-.81.5-.94.74-1.91,3.43-3.77,6.88-5.05,10.61-.18.53-.35,1.06-.53,1.59.1.06.19.12.29.19.76-.68,1.52-1.37,2.28-2.05.74-.67.64-1.98,1.81-2.48.56,1.09-.17,2.53,1.33,3.38.54-1.42,1.05-2.76,1.57-4.12-.23-.19-.36-.34-.52-.44q-1.43-.93-1.03-2.47c.29-1.14.61-2.27.86-3.42.08-.39-.03-.82-.06-1.53Zm132.6-52.37c2.32.5,4.07-.58,5.93-1.1,1.45-.4,1.7-1.22.87-2.47-1.27-1.92-3.13-2.57-5.48-1.88,0,.42.04.87-.01,1.31-.04.35-.11.9-.34,1.01-1.47.72-.82,1.97-.97,3.13Zm-105.87,197.78c-.14.08-.27.16-.41.24.38,1.94.67,3.83-.44,5.67-.53.88.34,1.56.92,2.16.61.63,1.29,1.12,2.25.81,1.81-.58,2.79-2.75,1.71-4.24-1.2-1.65-2.67-3.11-4.02-4.65Zm-37.05-141.53c-1.68-1.33-2.17-1.55-3.31-1.51-2,.08-2.79,1.54-1.73,3.23.28.44.56.88.85,1.31,1.24,1.84,3.87,1.68,4.78-.37.41-.93.56-1.98.89-3.21-.69.26-1.08.4-1.47.55Zm304.69,78.75c.17.09.34.18.51.27,1.01-1.48,2.39-2.64,3.19-4.29.08-.17.12-.38.12-.57.07-2.97-.81-5.73-1.65-8.5-.13,0-.26,0-.4,0-.59,4.36-1.18,8.72-1.77,13.08Zm-63.43,68.24c.36.14.59.26.84.33,2.05.52,2.12.5,3.1-1.31.97-1.78,1.96-3.56,2.86-5.38.19-.39.05-.95.06-1.44-.55.04-1.35-.14-1.6.16-1.98,2.31-4.2,4.47-5.26,7.65Zm-83.14-178.86c-1.6-1.15-2.85-2.08-4.15-2.95-.35-.23-.87-.4-1.26-.33-1.63.29-3.12,2.42-3.01,4.44,2.69-.54,5.52.17,8.41-1.16Zm-102.36,12.76c.01.2.02.41.03.61,1.62.74,3.22,1.53,4.87,2.2.85.35,2.21-.71,2.25-1.63.06-1.86-2.19-3.61-3.94-2.92-1.12.44-2.14,1.15-3.21,1.74Zm-37.24,158.88c2.48,1.47,3.53,4.33,6.82,4.06-1.03-2.56-2.13-4.81-3.38-6.37-1.21.82-2.24,1.51-3.43,2.32Zm56.06-175.89c-.08-.14-.15-.27-.23-.41-.25,0-.54-.09-.73.01-1.63.82-3.27,1.62-4.84,2.55-.76.45-1.08,2.64-.6,3.43.17.29.58.56.91.59.95.1,1.85-.9,1.94-1.92.04-.38.22-.82.48-1.11.99-1.08,2.04-2.11,3.07-3.15Zm170.68,214.59c-.07.52-.24.88-.14,1.12.64,1.4.09,2.51-.67,3.66-.57.87-1.08,1.81-1.39,2.79-.13.42.33,1.02.53,1.53.43-.21,1.07-.31,1.27-.66.84-1.47,1.72-2.95,2.27-4.54.55-1.58-.15-2.85-1.87-3.9Zm-186.24-6.75c1.52,2.34,2.36,2.82,3.97,2.31,1.29-.42,2.54-.96,3.78-1.5.24-.1.36-.48.67-.93-2.88-.82-5.5.03-8.42.13Zm1.51-1.75c-.39-1.09-1.35-.82-2.03-1-2-.54-3.95-.99-4.44-3.5-.16-.81-1.16-1.02-1.96-.62-.77.38-.87,1.07-.48,1.64.42.6,1.02,1.18,1.68,1.5,1.34.65,2.75,1.08,3.96,2.08.91.75,2.17.55,3.27-.1Zm237.35-91.35c-.34,0-.66-.03-.98,0-1.38.15-2.1,1.46-1.19,2.43.72.76.87,1.51.93,2.44.02.31.33.79.59.86.28.07.69-.21.99-.43.19-.14.29-.42.42-.65.92-1.65.51-3.12-.75-4.65Zm-11.72-38.1c1.29-.99,1.32-2.31,1.63-3.5-.75-.45-1.45-1-2.25-1.32-.67-.27-1.46-.28-2.38-.44.14,1.22-.37,2.5.75,3.01,1.04.48,1.85,1.01,2.25,2.25Zm-238.48-83.71c-2.85.63-5.32,1.69-7.91,3.07,2.94,1.42,6.62-.03,7.91-3.07Zm249.34,130.25c-.01.16-.02.31-.04.47.76.27,1.54.51,2.28.81,2.15.88,3.26.23,3.33-2.07.01-.45-.18-1.15-.48-1.29-.35-.15-1.14.04-1.36.34-.92,1.29-2.17,1.78-3.73,1.73Zm-6,7.29c-.58.06-1.21,0-1.71.23-.38.18-.85.76-.83,1.13.07.95.81,1.44,1.72,1.58.94.14,1.96.51,2.7-.47.15-.19.21-.48.24-.73.14-1.24-.42-1.68-2.12-1.74Zm-236.34-112.42c-.04-.18-.08-.35-.12-.53-.7.1-1.4.29-2.1.29-2.79.02-4.85.98-5.5,3.96-.06.29-.28.55-.47.9.85.44,1.58.5,1.76-.46.42-2.23,1.9-3.05,3.94-3.36.85-.13,1.66-.52,2.49-.79Zm98.91-58.64c-1.1-1.67-2.75-1.61-4.29-1.6-1.1,0-2.39-.06-2.81,1.43,1.26.57,4.6.66,7.1.17ZM114.68,218.95c-.42.99-.74,1.58-.93,2.22-.2.68-.25,1.4-.41,2.09-.13.57-.91,1.21-.05,1.68.77.42,1.31-.3,1.79-.81.25-.27.56-.64.56-.98.02-1.27.15-2.57-.96-4.2Zm-.56-2.7c1.45-.82,2.21-2.33,1.65-3.53-.23-.49-.91-.8-1.45-1.08-.15-.08-.71.22-.74.4-.24,1.44-.55,2.92.54,4.2Zm71.57,96.69c-1.4-1.12-1.42-1.18-4.58-.5-1.01.22-2.36,0-3.08,1.56,2.68.06,5.11.02,7.66-1.06Zm42.52-236.7c1.91.75,2.92.36,3.77-1.49.16-.36.22-1.11.05-1.2-.39-.22-1.17-.39-1.39-.17-.88.87-2.14,1.48-2.43,2.87Zm18.51,305.56c-1.36-.8-2.79-.49-4.18-.24-.4.07-.73.53-1.19.89,2.34,1.23,4.43.93,5.37-.65Zm-81.62-69.62c-.03.15-.06.3-.09.45,2.23.58,4.46,1.17,6.7,1.73.25.06.57.12.77.02.31-.17.54-.48,1.14-1.06-3.2-.33-5.79-1.29-8.52-1.14Zm-74.19-129.07c-.77.08-1.55.06-2.25.28-.4.13-1.01.7-.96.97.11.64.44,1.36.93,1.76.25.21,1.19-.01,1.5-.34.6-.63,1.13-1.43.79-2.67Zm315.27,52.29c-1.2.25-2.14.93-3.03,1.63-.56.44-.43,1.21.19,1.39.91.26,1.85.24,2.53-.48.64-.67.92-1.51.31-2.53ZM212.63,75.01c-1.23,1.38-2.21,2.45-3.14,3.56-.12.14-.07.65.03.69.32.15.75.3,1.06.19,1.43-.49,2.31-2.18,2.05-4.45Zm-80.17,35.65c-1.61.41-3.31.32-3.82,2.3,2.83.28,3.73-.23,3.82-2.3Zm14.24,16.75c1.81-.55,3.3-1.03,4.28-2.64-1.74-.56-2.92.16-4.28,2.64Zm75.33-50.2c1.14,2.29,2.61,2.42,4.2.39-1.39-.39-2.73-.79-4.2-.39Zm37.59,289.59c1.86.45,3.54.31,4.5-.32.24-.16.32-.57.59-1.1-1.87.05-3.38.32-5.09,1.41ZM82.58,198.98c1.31-.46,1.81-1.32,1.8-2.42,0-.35-.37-.81-.7-.99-.2-.11-.88.13-.94.33-.26.94-.79,1.9-.16,3.09Zm112.8-94.51c-.79-.19-1.45-.58-1.8-.4-.9.47-1.55,1.26-1.62,2.61,1.24-.56,2.44-.73,3.42-2.21Zm-6.81,237.03c-1.12-1.38-2.61-1.33-4.14-1.12,1.14,1.21,2.51,1.59,4.14,1.12Zm119.97,10.74c1.18-.37,1.65-1.12,1.78-2.07.04-.32-.2-.95-.37-.97-.38-.05-.95.08-1.16.36-.57.73-.82,1.6-.25,2.68Zm-130.41-33.79c-.17-.08-.34-.15-.51-.23-.48.8-1,1.57-1.41,2.41-.13.26.07.68.12,1.03.36-.06.9,0,1.05-.2.65-.89,1.17-1.86.74-3.01Zm87.02,12.95c-1.68-.84-2.51.24-3.46.69-.2.1-.2.62-.3.95.35.04.78.24,1.04.1.84-.45,1.61-1.01,2.72-1.74Zm73.7-4.87c.94-.35,1.64-.51,2.23-.87.27-.17.31-.72.45-1.09-.41-.12-.9-.43-1.21-.31-.81.32-1.41.92-1.47,2.27Zm50.3-179.81c-.12-1.54-.81-2.73-2.19-3.98.2,1.92.59,3.28,2.19,3.98Zm-79.54,172.17c1.74-.69,3.08-1.39,4.06-2.63-1.34.7-3.23.52-4.06,2.63ZM176.88,99.21c-1.71-1.48-2.69-1.43-3.68,0h3.68Zm-86.07,90.31c.98-.73,1.79-1.31,1.7-2.59-2.1.95-2.17,1.05-1.7,2.59Zm253.56,130.93c1.19-.2,1.81-.71,2.13-1.68-1.57-.15-1.68-.07-2.13,1.68ZM151.1,116.8c-.79.57-1.58,1.13-2.66,1.91,1.66.07,2.45-.52,2.66-1.91Zm-1.33,15.24c-1.58-.02-1.61,0-1.76,1.41.82-.22,1.62-.35,1.76-1.41Zm89.31-61.99c-1.06-.33-1.71-.66-2.36.22.73.73,1.36.79,2.36-.22Zm-93.99,52.04c-.24.03-.47.06-.71.09.09.44.18.87.27,1.31.18-.03.36-.05.55-.08-.03-.44-.07-.88-.1-1.32Zm-2.71-2.45c.14.12.28.25.42.37l.76-1.03c-.11-.09-.22-.17-.33-.26-.28.31-.57.62-.85.93Z"/>
  <path class="cls-1" d="m171.31,60.3c-.03-1.01-.18-2.04-.04-3.03.06-.45.65-.9,1.1-1.19,1.14-.74,2.34-1.39,3.53-2.06.51-.29,1.02-.57,1.56-.8,1.51-.63,3.01-1.29,4.55-1.84,1.99-.7,2.72-2.26,3.16-4.26-.53,0-.98-.09-1.38.01-5.4,1.36-10.8,2.76-16.2,4.12-1.46.37-3.14.3-4.35,1.04-1.25.77-2.4,1.75-3.73,2.44-1.73.89-3.48,1.74-5.24,2.62-2.54-3.22-1.54-7.53,2.3-9.09,3.04-1.23,6.15-2.28,9.23-3.4,9.68-3.53,19.66-6.1,29.57-8.87,1.42-.4,1.75-.25,2.1.93,1.19,3.99,2.04,8.01,1.26,12.21-.29,1.57-.34,1.78-1.9,1.98-1.72.22-3.28.81-4.85,1.5-1.67.73-3.46,1.23-5.22,1.73-4.1,1.18-8.22,2.28-12.31,3.48-1.87.55-1.99.76-2.71,2.46-.14,0-.29,0-.43-.01Z"/>
  <path class="cls-1" d="m425.68,200.97c.88.19,1.5.33,2.28.5,1.04-2.28.54-4.36-.79-6.11-1.03-1.36-1.49-2.89-2.11-4.38-.23-.55-.11-1.26-.09-1.9.02-.78.17-1.56.16-2.34-.02-1.11-.39-1.95-1.54-2.5-.69-.32-1.25-1.11-1.64-1.82-.77-1.36-1.56-2.76-2.01-4.24-.61-1.99-.99-4.06-1.33-6.12-.46-2.78-.76-5.59-1.2-8.37-.21-1.29-.83-1.72-2.22-1.72-.92,0-1.83.14-2.75.14-.69,0-1.39-.13-2.23-.21.38-.99,1.13-.95,1.69-1.02,1.82-.25,3.65-.4,5.48-.57.98-.09,1.96-.14,2.95-.2,1.68-.11,2.27.27,2.67,1.92.41,1.66.74,3.33,1.1,5,1.35,6.29,2.83,12.55,4.02,18.86,1.11,5.93,1.94,11.91,2.85,17.88.34,2.22.06,2.58-2.12,2.75-3.21.25-6.42.43-9.63.61-.53.03-1.24.27-1.43-.66,1.81-.52,3.58-1.19,5.42-1.51,1.54-.27,2.16-1.01,2.24-2.46.02-.44.14-.88.24-1.53Z"/>
  <path class="cls-1" d="m153.18,147.51c1.71,1.19,1.92,1.83,1,3.08-4.77,6.5-9.55,13-14.37,19.47-1.43,1.92-3.23,2.06-5.14.67-.68-.5-.76-1.01-.36-1.67.17-.28.4-.52.6-.78,1.7-2.33,3.37-4.68,5.1-6.98.46-.62,1.07-1.13,1.64-1.65.63-.56,1.37-1.01,1.93-1.63,2.68-2.97,5.31-5.99,7.97-8.97.51-.57,1.11-1.05,1.64-1.54Z"/>
  <path class="cls-1" d="m126.65,231.94c.95,1.26.87,2.76,1.14,4.13.28,1.41.26,2.87.47,4.3.28,1.88.64,3.74.98,5.6.21,1.16.42,2.32.67,3.47.32,1.47.67,2.93,1.01,4.39.28,1.2.59,2.39.86,3.53-.27.25-.39.42-.55.5-2.26,1.03-2.69.86-3.34-1.49-.54-1.96-1.03-3.93-1.47-5.91-.17-.76-.24-1.57-.17-2.34.3-3.19-.42-6.24-.96-9.34-.31-1.78-.22-3.65-.18-5.47.02-.78.7-1.18,1.53-1.36Z"/>
  <path class="cls-1" d="m83.3,314.57c-1.75,1.01-2.11,2.42-2.23,4.07-.08,1.08.17,1.93.71,2.77,1.49,2.32,2.99,4.63,4.5,6.92,1.01,1.53,1.91,3.08,2.54,4.84.56,1.56,1.68,2.93,2.56,4.38.35.57.71,1.14,1.06,1.71-.13.12-.26.24-.39.36-.37-.27-.84-.47-1.09-.83-2.11-3-4.2-6.02-6.25-9.06-1.39-2.06-2.75-4.16-4.05-6.28-1.06-1.73-2.07-3.5-3.01-5.3-.64-1.23-.5-1.5.6-2.27.59-.41,1.13-.89,1.73-1.27.94-.59,1.91-1.15,3.31-.06Z"/>
  <path class="cls-1" d="m369.93,289.87c-.59-.53-.85-.87-1.18-1.04-2.03-1.02-2.02-2.87-1.53-4.56.69-2.37,1.76-4.63,2.69-6.92.08-.2.37-.31.59-.49.87.49,1.04,1.18.81,2.02-.28,1.01-.56,2.01-.86,3.01-.35,1.14-.26,2.24.48,3.17.63.79.63,1.48.16,2.32-.41.72-.7,1.5-1.15,2.49Z"/>
  <path class="cls-1" d="m368.69,205.33c-.83-.73-1.48-1.8-2.86-1.69-.24.02-.82-.67-.77-.96.21-1.39-.66-2.15-1.63-2.98.92-1.12,2.25-1.09,3.45-1.61.11-.57.24-1.19.36-1.82,1.31,1.57,1.6,4.06,1.1,5.91-.24.89.19,1.96.35,3.15Z"/>
  <path class="cls-1" d="m116.14,364.7c1.43.31,2.86.64,4.3.93,1.43.29,2.09,1.5,2.92,2.47.67.78,1.23,1.66,1.74,2.55.26.46.31,1.03.46,1.56-.11.07-.23.15-.34.22-3.12-2.51-6.23-5.01-9.35-7.52.09-.07.18-.14.28-.2Z"/>
  <path class="cls-1" d="m362.14,306.95c-.32.44-.51.86-.84,1.11-1.07.85-2.16,1.68-3.3,2.43-1.05.69-1.84.46-2.42-.59-.58-1.06-.41-2,.51-2.53.84-.49,1.67-1.02,2.57-1.37.49-.19,1.14-.16,1.66-.02.6.17,1.13.59,1.82.97Z"/>
  <path class="cls-1" d="m367.57,350.52c-1.49-.63-2.16-2.04-2.97-3.26-.61-.92-.37-2.03.44-2.89,1.69-1.8,3.39-3.59,5.22-5.53.47,2.69-1.36,4.05-2.6,5.67-.27.36-.69.6-1.03.91-.66.59-.83,1.23-.39,2.09.5.98.85,2.04,1.27,3.06,0,0,.05-.05.05-.05Z"/>
  <path class="cls-1" d="m360.33,297.15c.36-.43.7-.87,1.07-1.29,1.13-1.26,2.3-2.48,3.39-3.77.53-.63,1.03-1.25,1.94-.91.83.32.81,1.1.79,1.82-.01.32-.09.64-.14.95-2.87.03-4.36,2.64-7.05,3.2Z"/>
  <path class="cls-1" d="m383.8,256.54c2.52,2.39,1.69,5.09-1.81,6.4.04-.42.05-.78.12-1.12.09-.43.44-.96.29-1.26-.85-1.82.58-2.71,1.39-4.01Z"/>
  <path class="cls-1" d="m377.3,205.24c.14.28.33.54.42.84q.78,2.34,2.66,3.81c-2.65.58-1.89,3.1-2.81,4.83-.64-.91-.66-1.75-.43-2.67.39-1.58.68-3.14-.01-4.78-.24-.56.12-1.37.21-2.07l-.05.04Z"/>
  <path class="cls-1" d="m377.35,205.19c-.29-.56-.84-1.14-.81-1.68.1-1.65-.49-3.05-1.23-4.44-.05-.09,0-.25.03-.66,1.62.74,3.13,1.43,4.65,2.13,0,.13.01.26.02.39-1.08.09-2.17.25-2.41,1.45-.19.94-.2,1.9-.3,2.86,0,0,.05-.04.05-.04Z"/>
  <path class="cls-1" d="m352.98,169.08c.69-.81,1.22-1.21,1.89-.68,1.48,1.17,1.84.84,1.78,4.21-1.31-1.26-2.45-2.36-3.67-3.53Z"/>
  <path class="cls-1" d="m368.11,212.59c.46,2.84-.12,4.34-2.09,5.43.07-2.03.25-3.95,2.09-5.43Z"/>
  <path class="cls-1" d="m324.85,88.9c-1.01.69-1.66.66-2.14-.25-.33-.63-.76-1.22-.99-1.88-.12-.35-.02-.97.23-1.19.45-.39.99-.2,1.3.34.53.95,1.03,1.91,1.6,2.98Z"/>
  <path class="cls-1" d="m373.08,280.6c.59,1.67.68,2.96-.31,4.25-1.14-1.41-1.1-2.38.31-4.25Z"/>
  <path class="cls-1" d="m381.63,110.36c.25.31.49.63.74.94-.09.06-.18.13-.27.19-.24-.32-.47-.65-.71-.97.08-.06.16-.11.24-.17Z"/>
  <path class="cls-1" d="m103.2,260.1c.54-.16.9-.36,1.26-.37,1.02-.02,1.48-.57,1.83-1.46.55-1.39.82-1.47,2.22-1.11,1.64.43,2.8,1.27,3.15,3.08.21,1.05.71,2.05,1.07,3.07-1.78.47-3.44,1.11-5.15,1.28-1.24.12-2.55-.36-3.81-.68-.26-.07-.54-.58-.57-.9-.08-.9-.03-1.81-.03-2.9Z"/>
  <path class="cls-1" d="m90.62,262.1c1.76-.83,1.88-2.39,2.17-4.03,1.57-.28,3.14-.55,4.87-.86v4.25c-1.61.07-2.7-.66-3.63-1.75-.12.08-.23.16-.35.24.91,2.59,1.82,5.19,2.69,7.67-.99-.32-1.93-.59-2.85-.92-.29-.1-.65-.27-.79-.52-.72-1.3-1.37-2.64-2.11-4.09Z"/>
  <path class="cls-1" d="m102.69,229.75c-.86,1.2-1.69,2.43-2.61,3.58-.48.6-.97,1.15-.54,1.9.62,1.08.14,1.88-.52,2.65-.89,1.04-1.91,1.92-3.31,2.37-.62-.93-.09-1.58.45-2.09.99-.95,1.13-1.85.52-3.14-.76-1.61-.11-2.9,1.48-3.66,1.39-.66,2.78-1.35,4.17-2.02.12.14.25.27.37.41Z"/>
  <path class="cls-1" d="m107.21,227.22c.73,1.73,1.49,3.3.11,4.9-.21.25-.4.57-.68.69-.32.14-.77.2-1.08.08-.2-.08-.35-.54-.35-.83,0-.38.11-.78.27-1.13.53-1.19,1.09-2.35,1.73-3.71Z"/>
  <path class="cls-1" d="m105.05,246.2c1.21.62,1.35,1.38.85,2.23-.15.26-.69.49-.97.42-.24-.06-.56-.59-.52-.86.09-.58.4-1.13.65-1.78Z"/>
  <path class="cls-1" d="m142,329.02c.59.18.86.2,1.06.34,1.32.9,2.73,1.12,4.3.87.92-.14,1.96-.36,2.81.38-2.09,2.98-5.76,2.37-8.18-1.59Z"/>
  <path class="cls-1" d="m146.29,322.17c-1.48.8-2.85,1.53-4.32,2.32.03-2.16,1.76-3.01,4.32-2.32Z"/>
  <path class="cls-1" d="m148.29,327.65c-1.32-.44-2.24-.75-3.24-1.08,1.28-1.65,2.2-1.39,3.24,1.08Z"/>
  <path class="cls-1" d="m349.44,135.78c-.75-.11-1.12-.16-1.78-.25,1.2-1.48,2.27-2.79,3.4-4.18.81.96.36,1.55,0,2.16-1.11,1.84-1.07,1.81.39,3.47.86.98,1.58,2.08,2.34,3.14,1.16,1.64,2.23,3.34,2.86,5.27.15.45.25.91.42,1.56-.46-.13-.7-.13-.8-.24-1.64-1.87-3.82-2.94-6-4.01-1.66-.81-2.4-2.89-1.66-4.58.3-.69.51-1.42.83-2.34Z"/>
  <path class="cls-1" d="m369.49,152.74c-1.58-1.41-3.21-2.78-4.73-4.25-3.02-2.91-5.98-5.89-8.79-9.14.42.06.95-.01,1.25.22,2.09,1.6,4.62,2.14,7,3.02,1.02.38,1.61.96,2.04,1.93.81,1.86,1.78,3.64,2.64,5.48.38.8.64,1.66.95,2.49-.12.08-.24.17-.36.25Z"/>
  <path class="cls-1" d="m364.86,133.43c2.81-.05,5.09.74,7.27,1.71.72.32,1.21,1.33,1.6,2.13,1,2.05,1.89,4.15,2.79,6.24.14.32.1.72.18,1.36-1.21-.78-1.82-1.69-2.29-2.67-.79-1.65-2.06-2.65-3.77-3.18-1.99-.62-3.7-1.63-4.76-3.5-.34-.59-.59-1.23-1.01-2.11Z"/>
  <path class="cls-1" d="m117.13,294.02c-.27-.43-.56-.87-.82-1.32-.09-.15-.09-.35-.13-.53,3.09.56,6.15,1.08,9.19,1.71.63.13,1.27.62,1.73,1.11.53.56.87,1.29,1.29,1.96.79,1.27,1.57,2.54,2.34,3.81.16.26.31.54.71,1.27-.94-.34-1.51-.42-1.94-.71-2.62-1.82-5.2-3.7-7.81-5.52-1.36-.94-2.61-2.2-4.57-1.78Z"/>
  <path class="cls-1" d="m333.32,124.46c.99.14,1.68.19,2.36.33,1.33.28,2.59.18,3.86-.33.51-.2,1.15-.28,1.68-.17.99.21,1.55-.19,1.79-1.06.81-2.98,1.08-4.81-1.59-7.1-.14-.12-.23-.31-.35-.48,1.9.06,3.44,2.23,3.78,5.07.38,3.19-2.26,5.93-5.28,6.59-2.77.61-5.31-.39-6.25-2.85Z"/>
  <path class="cls-1" d="m335.28,119.5c.03-.6.05-1.08.1-1.97-1.21.81-2.13,1.42-3.32,2.21.3-2.14,1.68-3.08,3.06-3.47,2.52-.72,4.95-.15,6.8,1.86.49.53.76,1.37.89,2.11.07.37-.28,1-.62,1.23-.46.32-1.19.48-1.56-.18-1.07-1.88-2.72-2.02-4.58-1.69-.18.03-.38-.04-.77-.09Z"/>
  <path class="cls-1" d="m339.25,122.18c-.62.85-1.53.61-2.33.54-.34-.03-.84-.43-.91-.74-.07-.34.18-.96.47-1.11.47-.24,1.11-.33,1.64-.25.81.12,1.14.76,1.12,1.57Z"/>
  <path class="cls-1" d="m129.62,328.55c.94,1.48.73,2.58.38,4.06-.84-1.38-1.01-2.45-.38-4.06Z"/>
  <path class="cls-1" d="m128.13,133.73c-.39.78-.64,1.55-1.12,2.14-.64.8-.97,1.63-1.06,2.66-.13,1.42-.94,1.77-2.16,1.08-1.76-1-1.91-1.36-1.41-3.42.06-.25.08-.52.14-.77.62-2.8,3.13-3.65,5.62-1.69Z"/>
  <path class="cls-1" d="m300.71,351.48c.14,2.59-1.3,4-4.05,4.08-.5-2.06,1.61-4.27,4.05-4.08Z"/>
  <path class="cls-1" d="m186.15,88.68c-.08.32-.17.64-.25.97-.14-.05-.28-.09-.42-.14.11-.31.23-.62.34-.93.11.04.22.07.33.11Z"/>
  <path class="cls-1" d="m319.45,339.01c.33-.23.65-.47,1.29-.93-.14,1.03-.3,1.44-1.29.93Z"/>
  <path class="cls-1" d="m330.96,326.43c.09-1.09.66-1.51,1.73-1.46q-.26,1.56-1.73,1.46Z"/>
</svg>