<?xml version="1.0" encoding="UTF-8"?>
<svg id="Calque_2" data-name="Calque 2" xmlns="http://www.w3.org/2000/svg" viewBox="0 0 461.7 186.88">
  <defs>
    <style>
      .cls-1 {
        fill: #faf7dc;
        stroke-width: 0px;
      }
    </style>
  </defs>
  <g id="Layer_1" data-name="Layer 1">
    <g id="layer1">
      <g id="g1072">
        <g id="g276">
          <path id="path290" class="cls-1" d="m168.4,186.69c.15-.1.22-.28.14-.4-.08-.13.38-.59,1.08-1.09l1.22-.87v-2.35c.02-1.29.1-2.44.2-2.54.35-.38.41-1.21.12-1.6-.24-.32-.29-1.54-.29-6.82,0-4.38.07-6.5.22-6.65.16-.16.16-.34,0-.64-.12-.23-.22-1.24-.22-2.26v-1.84h-2.01c-1.37,0-2.07.08-2.2.25-.1.14-1.04,2.08-2.08,4.32s-1.93,4.11-1.97,4.15c-.04.05-.08-2.55-.08-5.77v-5.85l1.68.15c.92.08,1.79.23,1.92.34.15.12.38.12.61,0,.2-.1.47-.15.6-.11.13.05.3-.01.37-.13.19-.3,13.98-.3,14.28,0,.16.16.34.16.64,0,.23-.12.97-.22,1.65-.22h1.23v3.62c0,2.94-.06,3.7-.32,4.07-.29.41-.28.52.01,1.14.21.44.3,1.08.26,1.76l-.06,1.07-2.05-4.35-2.05-4.35-2.06-.06-2.06-.06v2.55c0,2.16-.06,2.67-.41,3.31-.47.87-.56,1.51-.16,1.11.13-.13.32-.24.41-.24s.17,4.05.17,9v9s1.74,1.22,1.74,1.22l1.73,1.22-1.36.06c-1.01.04-1.45-.02-1.71-.25-.43-.39-.57-.39-.96,0-.25.25-1.03.3-4.41.3-2.42,0-3.99-.08-3.82-.18h0Zm139.93.12s.77-.6,1.72-1.27c1.4-.99,1.72-1.31,1.73-1.75.02-1.13.25-1.76.75-1.99.58-.27.57-.79-.04-1.12-.22-.12-.47-.32-.56-.43-.25-.34-.19-16.73.06-16.89.12-.07.17-.25.12-.39-.05-.14-.02-.34.09-.45.11-.11.11-.44,0-.82-.12-.42-.11-.71.04-.85.16-.16.12-.33-.12-.6-.19-.21-.34-.52-.34-.68s-.79-.87-1.77-1.56l-1.77-1.25h1.15c.63,0,1.38.11,1.67.24.4.18.58.18.76,0,.17-.17,1.63-.24,5.01-.24h4.77l-1.77,1.25-1.77,1.25v2.62c0,1.87-.08,2.78-.29,3.18-.16.32-.22.68-.13.83.09.15.12.43.07.63-.05.2,0,.42.13.5.14.08.22.98.22,2.36,0,1.22.07,2.22.15,2.22.08,0,1.73-2.28,3.65-5.06,3.02-4.36,3.61-5.11,4.32-5.43.45-.21.87-.54.94-.75.14-.41-.12-.79-.26-.39-.05.14-.23.25-.39.25-.23,0-.2-.13.14-.56l.44-.56-1.29-1.17-1.29-1.17h5.26s5.26,0,5.26,0l-1.07.73c-.81.56-1.1.67-1.23.47-.12-.2-.26-.14-.58.23-.23.27-.42.6-.42.73,0,.13-.08.27-.17.31-.09.04-1.2,1.58-2.47,3.42-2.2,3.2-3.36,4.66-3.73,4.67-.44.02-.83.74-.87,1.61-.04.88.13,1.22,2.51,5.1,2.81,4.59,3.13,5.23,2.97,5.87-.08.3-.02.44.18.44.34,0,1.61,1.47,2.55,2.96.54.86.99,1.22,2.74,2.24l2.09,1.21-.91.06c-1.1.08-2.24-.11-2.24-.38,0-.31-.94-.22-1.22.11-.21.25-.94.31-4.19.31-2.49,0-3.94-.07-3.94-.2,0-.11-.18-.2-.41-.2-.61,0-.5-.22.53-1.13l.94-.82-1.04-1.68c-1.06-1.71-1.2-2.06-.84-2.06.42,0,.18-.37-.36-.57-.43-.15-1.13-1.13-3.07-4.29-1.38-2.25-2.55-4.09-2.59-4.09s-.08,2.81-.07,6.25v6.25s1.73,1.21,1.73,1.21c.95.67,1.72,1.24,1.72,1.27s-2.17.06-4.83.06c-3.3,0-4.73-.07-4.52-.21.26-.18.25-.24-.08-.5-.35-.26-.45-.24-.98.21-.47.4-.82.5-1.7.5-.61,0-1.1-.03-1.1-.06h0Zm-32.59-1.41l.65-.46.06-4.37c.03-2.4.03-4.72-.01-5.13-.07-.74-.1-.76-.87-.76-.67,0-.83.09-1.04.56-.13.31-.41.78-.61,1.04-.2.27-.36.7-.36.95s-.1.53-.22.61c-.16.1-.2-.4-.15-1.72.05-1.37.15-1.91.38-2.06.27-.17.27-.22,0-.4-.21-.14.92-.2,3.48-.2,3.19,0,3.83.05,4.05.31.23.28.29.28.43.02.1-.18.33-.26.57-.19.37.1.41.28.41,1.81,0,1-.08,1.7-.2,1.7-.11,0-.2-.14-.2-.31s-.08-.31-.19-.31-.34-.41-.54-.92c-.34-.89-.37-.92-1.24-.92h-.89v3.77c0,3.13-.06,3.85-.33,4.27-.3.46-.3.5,0,.5.25,0,.33.2.33.8s.12.89.51,1.2c.42.33.45.42.19.52-.18.07-.51.02-.73-.1-.3-.16-.48-.16-.64,0-.12.12-.95.22-1.86.22h-1.63l.65-.46h0Zm8.38-.07l.63-.53v-4.14c0-3.71.04-4.16.35-4.34.33-.19.33-.22,0-.59-.19-.21-.35-.56-.35-.78,0-.21-.3-.65-.66-.96l-.66-.57,2.14.11c1.17.06,2.36.12,2.64.13l.51.02-.56.45c-.55.44-.56.49-.56,2.62v2.18h1.53c.84,0,1.59-.02,1.68-.05.08-.03.15-.36.16-.75,0-.38.12-.73.25-.78.35-.12.31-.46-.05-.46-.24,0-.31-.27-.31-1.21,0-1.11-.05-1.24-.65-1.71l-.65-.51h2.78c1.53-.02,2.78,0,2.78.05s-.32.28-.71.52c-.39.24-.71.6-.71.79s-.11.46-.24.58c-.17.17-.17.31-.02.5.29.36.34,5,.06,5.35-.15.19-.16.31-.01.4.12.07.21.8.21,1.63,0,1.36.05,1.54.51,1.9.71.56.37.65-2.4.65h-2.27l.65-.46c.54-.38.66-.59.66-1.22,0-.55.09-.76.32-.76.29,0,.29-.04,0-.45-.2-.28-.32-.89-.32-1.63v-1.17h-1.17c-.64,0-1.35-.05-1.58-.11-.59-.15-1.09.22-.76.55.17.17.25.93.25,2.23v1.98l.66.53.66.53-1.39-.04c-.93-.03-1.49-.14-1.7-.35-.28-.28-.33-.27-.5.03-.13.23-.45.34-1.01.34h-.82l.63-.53h0Zm12.12.33c-.07-.11.07-.31.29-.46.25-.16.41-.48.41-.81,0-.3.15-.64.33-.74.31-.17.31-.22,0-.67-.26-.37-.33-.96-.33-2.65,0-1.45.08-2.2.23-2.25.17-.06.17-.19,0-.51-.13-.24-.23-1.01-.23-1.72,0-1.2-.04-1.32-.66-1.84l-.66-.55h3.7c2.03,0,3.93.08,4.2.18.48.18.51.27.52,1.93,0,.96-.06,1.74-.14,1.74s-.45-.59-.81-1.32l-.65-1.32h-2.65v4.27h.65c.48,0,.79-.17,1.21-.66l.57-.66v1.91c.02,1.88.01,1.91-.38,1.56-.22-.2-.35-.48-.29-.62.15-.4-.24-.55-1.05-.39l-.72.14.06,2.37c.05,2.24.08,2.36.46,2.3.22-.03.74-.05,1.14-.04.89.02.98-.08,1.82-2.13.36-.89.72-1.69.79-1.77.07-.08.1,1,.06,2.39l-.06,2.53h-2.82c-1.93,0-2.84-.07-2.9-.23-.06-.17-.19-.17-.51,0-.53.28-1.41.3-1.58.04h0Zm-43.22-6.43c0-.28.1-.7.22-.92.13-.24.14-.51.04-.65-.1-.13-.19-1.52-.2-3.09-.01-1.57.02-2.69.08-2.49.06.2.19.36.29.36s.19.14.19.31.16.31.36.31.51.26.7.57c.6,1.02,2.34,2.62,3.44,3.17,2.06,1.02,4.7.5,5.53-1.09.51-.98.37-2.42-.34-3.41-.3-.42-.45-.79-.33-.83.26-.09.27-.64.01-.64-.11,0-.25.09-.31.2-.23.37-1.93-.84-1.93-1.37,0-.2-.11-.24-.36-.14-.84.35-1.1.31-2.31-.33-1.76-.94-3.3-2.41-3.99-3.8-.76-1.55-.8-3.93-.09-5.3.44-.84.5-.88,1.26-.81.92.09.97,0,.36-.53-.43-.37-.43-.38-.05-.68,2.15-1.65,6.18-2.04,9.21-.89l1.01.38.85-.48c.47-.27.89-.48.93-.48s.08.8.08,1.78c0,1.3-.09,1.91-.32,2.25-.21.3-.26.54-.13.71.24.31.47,1.48.32,1.63-.14.14-.77-.48-1.76-1.73-2-2.53-6.46-3.11-7.56-.98-.17.33-.31.79-.31,1.03,0,.77.65,1.84,1.44,2.36.42.28.81.68.87.91.08.31.22.37.61.27.78-.2,3.97,1.54,5.55,3.01,1.85,1.73,2.41,2.97,2.41,5.33,0,1.51-.07,1.93-.41,2.38-.22.3-.52.51-.66.46-.17-.06-.25.11-.25.49,0,1.22-2.09,2.62-4.6,3.09-1.84.34-4.18.15-4.77-.39-.49-.45-.93-.6-.7-.24.19.3-.6.25-1.49-.11-.77-.31-.81-.3-1.83.3l-1.04.62v-.52h0Zm126.08.21c-1.84-.4-3.7-1.37-4.87-2.54-1.3-1.3-2.33-3.37-2.38-4.8-.02-.59-.09-1.16-.15-1.26-.06-.1.07-.23.29-.29.22-.06.4-.26.4-.44,0-.24-.11-.3-.39-.21-.34.11-.41,0-.54-.82-.22-1.46.03-4.31.51-5.82.48-1.52,1.18-2.49,1.94-2.68.42-.11.49-.22.39-.68-.09-.46,0-.62.51-.92.34-.2.62-.45.62-.56,0-.29,1.83-1.15,3.17-1.48,2.8-.7,5.89-.53,8.07.43l.92.41,1.03-.59c.57-.32,1.08-.59,1.14-.59.22,0,.11,5.06-.11,5.2-.12.07-.16.36-.1.63.07.27.05.61-.03.74-.09.13-.16.31-.16.4,0,.4-.42.04-1.52-1.32-3.1-3.82-6.22-4.63-8.56-2.22-1.17,1.21-1.74,2.86-2.02,5.86-.19,2.07-.02,5.96.3,6.79.07.18-.02.44-.19.58-.17.14-.31.41-.31.6s-.1.44-.23.57c-.13.13-.17.39-.1.58.12.32.17.32.59-.07l.45-.42.41.51c1.68,2.11,2.3,2.5,3.97,2.5.58,0,1.37-.15,1.75-.33l.69-.33v-2.64c0-2.46.03-2.66.44-2.99l.44-.36-.44-.44c-.27-.27-.44-.7-.44-1.1,0-.58-.16-.77-1.32-1.56-.72-.49-1.32-.91-1.32-.92,0-.1,9.7.14,9.81.25.08.08-.31.46-.86.83l-1.01.69v2.4c0,1.47-.1,2.61-.25,2.95-.2.44-.2.57,0,.64.2.07.21.15.02.38-.18.22-.19.48,0,1.07.13.43.23,1.44.23,2.25v1.47l-1.14-.64-1.14-.64-.94.4c-2,.86-5.05,1.07-7.55.53h0Zm43.79-.07c-.26-.3-.41-.34-.69-.17-.51.32-2.51-.52-2.81-1.17-.14-.31-.15-.53-.03-.61.38-.24.19-.51-.28-.39-1.23.31-2.77-1.51-3.65-4.28-.38-1.2-.45-1.9-.45-4.37,0-3.76.38-5.09,1.58-5.55.53-.2.43-.56-.16-.56h-.51l.44-.86c.6-1.17,2.42-3.04,3.59-3.67,2.44-1.32,5.7-1.63,8.31-.78,1.56.5,3.63,1.79,3.64,2.26,0,.6.34,1.25.59,1.15.42-.16.73.57.53,1.27-.2.71-.1.78.43.3.35-.31.39-.28.78.63.52,1.21,1.02,4.03,1.01,5.67,0,1.5-.5,4.37-.79,4.67-.12.12-.22.41-.22.65s-.18.6-.41.8c-.22.2-.41.58-.41.83,0,.68-1.83,2.56-3.21,3.3-1.63.87-3.27,1.26-5.28,1.26-1.41,0-1.74-.06-2.02-.39h0Zm3.92-2.24c1.45-.88,2.33-2.86,2.74-6.14.31-2.47.11-6.14-.42-8.11-.36-1.33-.45-1.71-.58-2.49-.01-.08-.13-.15-.26-.15s-.58-.31-1-.7c-.91-.82-2.12-1.08-3.41-.74-1.74.47-2.86,2.32-3.32,5.47-.12.86-.3,1.64-.4,1.75-.23.25-.23,1.74,0,1.74.1,0,.23,1.12.29,2.49.23,5,1.64,7.27,4.52,7.27.84,0,1.42-.12,1.86-.39h0Zm-3.13-7.6c-.48-.7-.86-1.34-.86-1.43,0-.18.95-1.53,1.31-1.86.12-.11.33-.46.47-.77s.33-.52.43-.46c.09.06.64.79,1.22,1.63l1.05,1.52-.8,1.14c-.53.75-.85,1.06-.95.89-.11-.17-.2-.11-.32.19-.26.71-.63.51-1.55-.84h0Zm23.54,9.82c0-.47-5.17-15.25-5.34-15.25-.08,0-.15,2.97-.15,6.61v6.61l1.34.96,1.34.96-.75.06c-.41.04-.88-.05-1.04-.18-.23-.19-.49-.19-1.16,0-.51.14-1.89.21-3.4.18l-2.54-.06,1.27-.9,1.27-.9v-4.83c0-2.65.09-5.06.2-5.35.14-.36.13-.68-.03-1.02-.17-.37-.17-.57,0-.78.13-.15.16-.35.08-.43-.2-.2-.2-.14-.23-3.36l-.03-2.83-.9-.65c-.55-.4-.86-.76-.79-.93.12-.33.79-.38.98-.08.07.11.26.2.43.2s.25-.09.18-.2c-.14-.23,4.75-.29,5.56-.07.35.09.45.23.37.53-.09.35-.03.39.49.28.47-.09.65-.03.87.33.15.25.9,2.44,1.66,4.88.76,2.43,1.44,4.42,1.5,4.42.06,0,.66-1.74,1.32-3.85.7-2.23,1.32-3.9,1.49-3.96.16-.06.56-.11.88-.11s.59-.09.59-.2-.18-.2-.41-.2-.41-.13-.41-.29-.11-.32-.24-.37c-.18-.06-.19-.27-.04-.78l.2-.7,4.35-.05,4.35-.05-1.31.97c-1.23.91-1.31,1.03-1.34,1.83-.02.48-.2,1.09-.42,1.39-.38.52-.38.55-.02.97.33.38.39.92.47,4.19.07,2.73.03,3.79-.14,3.9-.18.11-.18.22,0,.43.13.16.18.35.11.42-.07.07-.17.79-.22,1.6-.07,1.16-.17,1.53-.48,1.75-.44.31-.34.7.12.52.37-.14.71.68.71,1.74,0,.71.09.84,1.27,1.66l1.27.89-4.54.05c-3.57.04-4.62,0-4.93-.22-.37-.26-.34-.31.62-.97l1.02-.69v-6.9c0-3.79-.04-6.86-.09-6.81-.05.05-.97,2.83-2.06,6.19-1.09,3.35-2.1,6.25-2.26,6.43-.16.18-.22.48-.15.68.11.29.06.33-.28.22-.55-.17-.77.2-.37.61.21.21.28.5.19.86-.15.63-.48,1.08-.48.64h0Zm-259.07-.06s.6-.5,1.33-1.04l1.33-.98-.02-2.26c-.03-3.16-.04-3.06.4-3.53.33-.35.35-.47.12-.66-.45-.37-.54-1.39-.58-6.77l-.04-5.13-1.31-.97-1.31-.97,4.66.12c2.56.06,4.84.1,5.07.09.22-.01,1.76-.07,3.4-.12,2.74-.09,3.03-.07,3.41.29.24.22.36.52.29.7-.07.17-.02.38.1.45.14.09.21,1.33.21,3.53v3.39s-.5-.92-.5-.92c-.47-.88-.7-1.64-.31-1.02.26.42.4.21.28-.43-.08-.4-.2-.51-.48-.44-.27.07-.5-.1-.79-.58-.23-.38-.42-.8-.42-.94,0-.14-.16-.43-.36-.64-.2-.21-.52-.63-.73-.92l-.37-.53-2.58.06-2.58.06-.15.92c-.09.5-.15,1.01-.14,1.12,0,.11.06,1.42.12,2.9l.1,2.69h1.46s1.46,0,1.46,0l1.16-1.27,1.16-1.27v3.05c-.02,1.68-.08,3.27-.16,3.53-.13.45-.2.4-1.22-.77l-1.09-1.25-1.35.06-1.35.06-.06,4.12-.06,4.12h5.61l1.6-3.76c.88-2.07,1.63-3.76,1.67-3.76s.07,2.2.07,4.88v4.88h-1.17c-1.46,0-2.08-.17-2.08-.54,0-.19-.09-.23-.25-.13-.87.56-1.89.67-6.29.67-2.74,0-4.66-.08-4.74-.19-.08-.13-.31-.13-.64,0-.47.18-1.91.28-1.91.13h0Zm18.91-.02s.57-.49,1.27-1l1.27-.91,2.22-7.44c1.8-6.03,2.28-7.39,2.5-7.21.33.27.57.09.35-.27-.28-.46-.23-1.27.16-2.41l.38-1.12-.66-.51c-.36-.28-.89-.72-1.18-.97l-.52-.46,3.03.05c2.15.04,3.06.13,3.12.3.05.16.3.2.71.12.53-.11.61-.07.5.2-.07.18-.04.38.07.45.11.07.19.27.19.45s.14.48.31.67c.44.48,1.17,3.24,1.03,3.91-.08.38-.03.56.16.56.33,0,3.31,10.77,3.04,10.96-.34.23-.25,1.04.14,1.24.21.11.49.51.63.89.14.38.51.84.84,1.04.33.19.54.4.47.47s.08.33.33.59l.44.47h-1.52c-1.04,0-1.66-.1-1.97-.32-.41-.29-.45-.29-.45.02s-.2.33-1.88.21c-1.03-.07-2.2-.13-2.59-.13-.6,0-.66-.04-.39-.25.17-.14.57-.45.89-.7l.57-.45-.68-2.76-.68-2.76-2.44.06-2.44.06-.46,1.63c-.31,1.09-.63,1.77-.97,2.07-.6.52-.64.67-.18.67.24,0,.3.12.2.49-.1.41.03.61.74,1.15.48.36.95.74,1.06.83.11.09-1.56.17-3.71.17s-3.9-.04-3.9-.08h0Zm11.7-9.18c.37-.29.37-.33.05-.55-.22-.15-.63-1.35-1.12-3.25-.43-1.66-.83-3.01-.89-3.01-.06,0-.46,1.4-.9,3.1-.43,1.71-.83,3.22-.88,3.36-.06.18.2.26.9.27.54.01,1.22.09,1.5.18.76.24.9.23,1.33-.11h0Zm10.47,9.11c0-.08.55-.52,1.22-.96l1.21-.81v-1.57c0-1.28.07-1.61.36-1.78.23-.14.28-.26.14-.37-.32-.23-.33-.38-.42-7.94l-.09-6.97-.79-.52c-.47-.31-.77-.66-.74-.86.05-.35.16-.36,2.66-.28.45.02,2.24-.02,3.98-.08,3.75-.13,6.67.12,6.94.61.13.22.34.29.68.2,1.08-.27,3.07.9,3.89,2.29.99,1.7.83,4.6-.33,5.99-.47.55-.63.64-.84.43-.35-.34-.66-.32-.52.03.19.49-1.02,1.34-2.41,1.7-.72.19-1.32.42-1.32.51,0,.23.63,1.17,1.12,1.66.23.23,1.39,1.85,2.59,3.6,1.2,1.75,2.41,3.42,2.69,3.7.28.28.51.62.51.75s.14.18.31.11c.32-.12,1.11.26,1.11.53,0,.08-1.58.15-3.51.15h-3.51s-.45-.69-.45-.69c-.39-.6-.41-.73-.15-.94.44-.37.38-.86-.09-.71-.6.19-1.14-.46-3.69-4.43l-2.33-3.62-.06,4.23c-.06,4.21-.05,4.23.41,4.54.26.17.66.5.91.74.24.24.47.42.51.41.04-.02-.07.09-.23.22-.36.31-1.12.33-1.65.04-.28-.15-.52-.14-.83.02-.32.17-.47.17-.58,0-.1-.17-.3-.17-.7-.02-.63.24-6.02.29-6.01.06h0Zm12.81-13.09c1.38-.77,1.72-1.38,1.72-3.09,0-.8.09-1.54.2-1.63.13-.11.11-.21-.06-.28-.15-.06-.51-.34-.81-.62-.3-.28-.8-.64-1.11-.8-.53-.28-2.87-.67-4.07-.68h-.56s0,1.92,0,1.92c0,1.52-.08,2.07-.39,2.62-.35.62-.36.72-.08,1,.17.17.36.74.42,1.27l.11.96,1.88-.1c1.48-.08,2.06-.2,2.75-.59h0Zm105.07,13.12c-.07-.07-2.07-.12-4.46-.11-2.38,0-4.52-.06-4.74-.15-.36-.14-.3-.23.56-.84l.96-.68v-7.27c0-5.04.07-7.31.22-7.41.12-.08.18-.36.13-.62-.06-.32,0-.48.18-.48.4,0,.34-.35-.13-.86-.26-.27-.41-.72-.41-1.19,0-.68-.11-.83-1.07-1.52-.59-.42-1.15-.84-1.26-.93-.11-.09,1.38-.17,3.3-.17,3.36,0,3.5.02,3.5.41,0,.52.3.52.68,0,.25-.36.47-.41,1.67-.36l1.38.06-1.25.88-1.25.88v4.23c0,3.36-.06,4.35-.3,4.82-.37.72-.39,1.11-.04.98.17-.06.26.07.27.36,0,.25.02,2.2.04,4.33l.04,3.86,1.21.81c1.13.75,1.47,1.12,1.06,1.12-.09,0-.22-.06-.29-.12h0Zm3.22-.1c.04-.07.61-.48,1.25-.92,1.35-.91,1.54-1.12,1.27-1.39-.11-.11-.19-2.32-.19-5.31,0-5.08,0-5.12.46-5.44.44-.31.44-.34.09-.61-.26-.2-.33-.44-.24-.8.07-.28.03-.57-.09-.64-.27-.17-.3-2.28-.03-2.44.12-.07.12-.37,0-.77-.1-.36-.19-.95-.19-1.31,0-.56-.16-.76-1.22-1.51-.67-.47-1.22-.89-1.22-.93s1.51-.07,3.35-.07h3.35l3.62,4.87c1.99,2.68,3.69,4.88,3.77,4.88.08,0,.15-1.44.15-3.21,0-2.04.08-3.29.22-3.43.16-.16.16-.26,0-.36-.12-.08-.22-.31-.22-.51s-.31-.57-.7-.81c-.45-.28-.66-.54-.59-.73.08-.21-.03-.29-.36-.29s-.4-.07-.26-.21c.13-.13,1.65-.19,4.13-.15l3.92.06-1.24.9-1.24.9v1.92c0,1.65-.06,2-.45,2.54-.3.43-.37.65-.2.71.13.04.24.34.24.66s.1.64.22.72c.28.17.21,6.59-.07,6.96-.12.16-.12.35,0,.51.27.35.29,1.93.04,2.86-.15.55-.14.86.02,1.05.13.15.2.78.16,1.43l-.06,1.16-1.09-1.36c-1.06-1.33-1.48-2.38-1.06-2.64.12-.07.21-.22.21-.34,0-.23-.85-.02-1.03.26-.12.18-4.7-5.55-4.92-6.16-.07-.19,0-.45.17-.58.41-.34.37-.65-.06-.52-.66.19-1.43-.37-2.63-1.91l-1.19-1.53-.12,1.42c-.06.78-.19,1.58-.28,1.78-.1.22-.08.36.06.36.16,0,.23,1.37.23,4.58v4.58l1.27.93c.7.51,1.29.95,1.3.97.02.02-1.92.03-4.3.03s-4.3-.06-4.26-.12h0Zm42.56-.05c.12-.15.68-.58,1.24-.97l1.02-.7v-6.52c0-3.78.09-7.02.22-7.7.16-.84.16-1.24,0-1.4-.12-.12-.22-.84-.22-1.6v-1.38l-.82-.54c-.52-.34-.78-.65-.71-.83.06-.16.11-.33.11-.37,0-.21,2.59-.06,2.81.16.19.19.3.19.49,0,.16-.16.94-.24,2.19-.24,3.85,0,7.05.78,7.68,1.85.19.33.49.59.66.57.72-.07.99.06,1.82.88,1.18,1.16,1.93,2.37,1.88,3.04-.02.3.05.6.17.67.27.16.27,1.46,0,1.63-.25.16-.25.32,0,.71.18.27.24.26.48-.05.24-.32.29-.22.41.81.24,2.1-.53,6.03-1.22,6.29-.15.06-.28.27-.28.48,0,.23-.17.4-.46.44-.29.04-.48.23-.52.52-.04.25-.26.59-.5.76-.3.21-.35.31-.14.32.48.01-1.09,1.28-2.34,1.9-1.67.82-3.86,1.31-6.49,1.47-2.2.13-2.33.12-2.54-.28-.22-.41-.23-.41-.98-.03-.95.48-4.34.58-3.95.12h0Zm8.97-2.17c.39-.11,1.25-.54,1.91-.95,1.01-.62,1.27-.7,1.59-.51.5.31.68-.09.38-.86-.17-.44-.13-.71.2-1.35.67-1.31,1.01-3.02,1.01-5.01,0-3.2-.7-5.39-2.27-7.1-.9-.98-2.54-1.91-3.37-1.91-.45,0-.46.03-.46,2.9,0,1.59-.08,3.02-.18,3.17-.11.17-.34.22-.58.15-.35-.11-.42-.02-.5.64-.12.95,0,1.11.39.53.17-.25.43-.4.59-.33.24.09.29,1.03.29,5.48,0,2.95.07,5.37.15,5.37s.47-.09.86-.2h0Zm-125.35-7.42c-1.61-.57-2.54-1.63-3.09-3.53-.4-1.38-.28-4.62.21-5.76.45-1.05,1.46-2.14,2.44-2.66,1.18-.62,3.35-.61,4.54.02.78.41,1.18,1.06.65,1.06-.12,0-.16.09-.1.19.07.11.26.14.43.08.2-.08.35.03.42.31.06.23.28.48.49.55.56.18.88,1.55.89,3.76,0,2.3-.39,3.64-1.41,4.76-.58.64-.76.72-1.09.55-.32-.17-.41-.14-.5.19-.21.8-2.31,1.07-3.89.51h0Zm3.17-1.57c.7-.79.98-1.97.98-4.1,0-1.18.08-1.76.25-1.84.2-.09.2-.14,0-.24-.14-.06-.31-.45-.38-.86-.18-1.01-.81-2.21-1.29-2.47-.62-.33-1.54-.25-2.1.19-.83.65-1.2,1.89-1.29,4.35-.05,1.22-.13,2.28-.19,2.37-.05.09.03.42.18.74s.45.93.66,1.37c.68,1.42,2.14,1.65,3.16.49h0Zm-2.04-3.72c-.24-.4-.43-.78-.43-.83s.24-.46.54-.91l.54-.82.57.86c.62.93.58,1.16-.28,1.96l-.5.47-.43-.73Zm6.64,4.83c.78-.65.75-.42.69-6.65l-.04-4.07-.65-.46-.65-.46h.82c.45,0,.92.1,1.04.22.16.16.34.16.64,0,.24-.13,1.57-.22,3.17-.22h2.76v1.68c-.04,2.54-.18,2.66-1.07.87l-.76-1.53h-1.22c-1.04,0-1.22.05-1.22.37,0,.2-.13.55-.3.76-.39.51-.39.72,0,.57.25-.1.31.13.31,1.33,0,1.44,0,1.45.56,1.45.39,0,.73-.2,1.1-.66l.54-.66.07,1.97c.05,1.56.01,1.92-.19,1.75-.14-.12-.26-.31-.26-.44,0-.35-.97-.98-1.37-.9-.3.06-.36.38-.41,2.32-.05,2.04-.02,2.28.36,2.62.23.21.41.45.41.55s-1.12.17-2.49.17h-2.49s.67-.56.67-.56h0ZM386.93,18.78c-5.49-.85-8.53-4.46-8.19-9.75.05-.84.2-1.64.33-1.77.13-.13.23-.48.23-.77,0-.7.78-1.85,1.48-2.19.35-.17.55-.43.55-.71,0-.6,1.54-1.63,3.47-2.32,1.31-.47,1.82-.54,3.95-.54s2.64.07,3.95.54c2.77.99,4.59,2.65,5.56,5.08.34.86.42,1.52.43,3.4,0,2.14-.04,2.44-.55,3.48-.3.63-.55,1.21-.55,1.29,0,.19-1.03,1.16-1.72,1.61-.29.19-.52.47-.52.64,0,.35-1.5,1.15-3.05,1.61-1.13.34-4.27.57-5.39.4h0Zm4.02-2.09c.75-.32,1-.59,1.51-1.58.34-.65.71-1.65.83-2.21.29-1.37.48-6.56.24-6.71-.1-.06-.38-.55-.61-1.07-.86-1.95-2.14-2.76-4.31-2.74-2.28.02-3.69,1.2-4.32,3.61-.39,1.47-.45,5.25-.12,6.85.32,1.56,1.35,3.2,2.35,3.77,1.06.6,3.12.64,4.43.08h0Zm-3.37-5.2l-1.16-1.75.63-.91c.34-.5.71-.91.82-.91s.2-.16.2-.36c0-.2.17-.57.37-.83l.36-.47,1.17,1.75,1.17,1.75-.39.55c-.22.3-.59.72-.82.94-.24.21-.43.53-.43.71,0,.18-.17.54-.37.8l-.36.47-1.16-1.75Zm-94.98,6.91c-2.9-.83-5.16-2.67-6.04-4.94-.52-1.34-.79-5.06-.43-5.81.12-.24.27-.78.34-1.19.09-.53.39-1.01,1.03-1.63.5-.48.91-.99.91-1.14,0-.75,2.41-2.14,4.68-2.71,1.75-.44,5.52-.33,6.99.2l1.2.43.91-.4c.5-.22.99-.4,1.07-.4s.16,1.4.17,3.1v3.1s-1.79-1.78-1.79-1.78c-2.16-2.13-3.53-2.87-5.28-2.84-3.06.04-4.84,2.3-5.03,6.35-.05,1.06-.19,2.14-.32,2.4-.18.37-.16.61.09,1.12.18.36.51,1.08.75,1.6.54,1.23,1.51,2.32,2.49,2.82.96.49,3.17.54,4.04.09l.58-.3.07-2.39c.11-3.86.15-3.73-1.42-4.59l-1.35-.74,4.36.05c4.72.05,5.14.16,3.69.98-.95.53-.88.06-.83,5.52.02,2.05-.05,3.41-.16,3.41-.11,0-.57-.17-1.04-.38-.79-.35-.91-.36-1.7-.06-.58.21-1.38.29-2.48.25-1.97-.07-2.16-.07-3.46.07-.59.06-1.43-.01-2.01-.18h0Zm49.55-2.17c-1.37-1.35-2.49-2.52-2.49-2.61s-.14-.28-.31-.42c-.17-.14-.27-.38-.21-.53.1-.27-.91-.94-1.27-.84-.1.03-1.34-1.03-2.75-2.35l-2.57-2.41v9.99l1.37.71,1.37.71-2.44-.1c-1.34-.06-3.31-.11-4.37-.12l-1.93-.02,1.17-.6,1.17-.6V2.44l-1.37-.7-1.37-.7h3.13s3.13-.02,3.13-.02l.84.76c.46.42.99,1.09,1.17,1.5.18.41.5.8.71.86.66.22,1.14.6,3.59,2.86,1.32,1.22,2.44,2.17,2.5,2.11.18-.18.15-6.54-.03-6.61-.1-.03-.73-.38-1.4-.77l-1.22-.7h4.42c2.43,0,4.42.03,4.42.08s-.37.19-.81.31-1.04.45-1.32.73l-.51.51v4.45c0,2.68-.08,4.5-.2,4.58-.25.15-.23,1.85.03,2.56.1.29.16,1.4.13,2.48l-.06,1.96-2.49-2.45Zm-163.29,1.54l1.37-.7v-3.15c0-2.12.08-3.28.25-3.55.19-.31.19-.54,0-1.08-.15-.42-.25-1.84-.25-3.67v-2.99h-3.21l-1.64,2.54c-.9,1.4-1.69,2.54-1.74,2.54s-.05-.71,0-1.58c.14-2.22.13-3.49-.02-4.38l-.14-.77,7.7.09c4.23.05,7.93.11,8.21.13.28.02.99-.03,1.58-.11l1.07-.16v2.28c0,1.97-.06,2.36-.4,2.79l-.4.51-1.25-1.96-1.25-1.96-1.65.06-1.65.06-.04,4.79c-.02,2.63-.1,4.97-.17,5.19-.07.22-.2.58-.29.81-.09.23-.05.78.09,1.26.14.47.21.9.15.96-.06.06-.03.27.06.47s.17.46.18.57c0,.11.5.46,1.09.78.59.31,1.07.66,1.07.76,0,.11-2.03.19-5.03.18h-5.03s1.37-.71,1.37-.71h0Zm16.25,0l1.35-.69.11-2.09c.06-1.15.11-2.27.11-2.5,0-.22-.03-1.14-.05-2.03-.02-.89-.06-3.07-.09-4.83l-.04-3.2-1.17-.59c-1.07-.55-1.13-.6-.66-.72.28-.07,2.55-.1,5.05-.07l4.54.06-1.34.71-1.34.71.05,3.05.05,3.05.77.12c.42.07,1.91.08,3.3.03l2.54-.1V2.44l-1.37-.7-1.37-.7h5.39s5.39,0,5.39,0l-1.42.76-1.42.76v1.12c0,.91-.08,1.16-.41,1.33-.45.24-.44.66.02,1.6.23.46.29,1.66.29,5.41v4.82l.81.69c.45.38.81.76.81.84,0,.08-1.93.15-4.29.15-4.63,0-4.89-.07-3.32-.96l.8-.45.13-1.69c.07-.93.08-2.43.02-3.35l-.11-1.66-1.04-.12c-1.29-.15-1.88-.17-2.67-.06-.34.05-1.14.1-1.78.12l-1.17.03v3.22c0,3.08.02,3.24.46,3.64.25.23.8.53,1.22.66.42.13.81.33.88.43.07.11-1.96.18-5.13.18h-5.25s1.35-.7,1.35-.7h0Zm22.61.56c.05-.09.65-.42,1.32-.74l1.23-.59.13-1.14c.07-.63.21-1.39.31-1.71.13-.4.09-.83-.11-1.42-.23-.65-.3-1.97-.3-5.53V2.53s-1.38-.77-1.38-.77l-1.37-.77,2.44.1c1.34.06,2.53.1,2.64.09.11,0,2.79-.06,5.95-.11l5.74-.1v3.22s-.02,3.22-.02,3.22l-.62-.71c-.34-.39-.86-1.12-1.16-1.63-.3-.5-.9-1.26-1.34-1.68l-.8-.76h-4.97l-.08,2.1c-.04,1.16-.04,2.53,0,3.05l.08.95h1.2c1.13,0,1.26-.05,2.14-.86l.93-.86.38.48c.33.4.38.82.38,2.79,0,1.27-.07,2.31-.15,2.31-.08,0-.66-.51-1.27-1.12-1.11-1.1-1.13-1.11-2.36-1.11h-1.24s-.1,2.49-.1,2.49c-.05,1.37-.05,2.83,0,3.25l.09.76h5.2l.35-.56c.19-.31.67-.86,1.06-1.23.44-.42.66-.79.59-.98-.07-.17.28-.99.79-1.87l.91-1.56v1.98c0,1.22-.1,2.14-.25,2.39-.2.32-.2.49,0,.81.14.22.25.91.25,1.53v1.12h-8.35c-4.59,0-8.31-.07-8.25-.16h0Zm30.9.02c.06-.1.66-.44,1.32-.76l1.21-.58.1-1.25c.14-1.78-.04-13.23-.21-13.3-.08-.03-.69-.37-1.36-.76l-1.22-.71,4.86.05c3.23.03,4.89.12,4.94.26.04.12-.38.43-.94.69l-1.01.47-.06,5.61c-.03,3.09-.03,6.32,0,7.19l.07,1.58h4.15l.4-.75c.22-.41.61-1.01.87-1.32s.43-.64.37-.73c-.06-.09.22-.48.61-.86.45-.44.68-.83.61-1.06-.05-.2.19-.89.54-1.53.49-.9.66-1.07.72-.76.06.32-.01,3.38-.18,7.32,0,.11.05.47.13.79l.14.59-3.74-.13c-2.06-.07-3.97-.12-4.25-.11-.92.05-1.72.05-2.64,0-.5-.02-1.96.02-3.23.09-1.35.08-2.27.06-2.2-.05h0Zm19.16-.63l1.42-.76V2.54l-1.01-.55-1.01-.55.57-.22c.36-.14,3.2-.22,7.85-.22,6.29,0,7.32.04,7.54.31.2.24.21.43.02.83-.17.36-.17.63-.02.91.12.22.19,1.28.15,2.4l-.06,2-1.84-2.36-1.84-2.36-2.58-.06-2.58-.06v.81c0,.44-.09,1.06-.21,1.36-.15.38-.15.62,0,.77.12.12.21.88.21,1.7v1.48h1.14c1.07,0,1.23-.07,2.44-1.04l1.3-1.04-.02,3-.02,3-1.16-1.15q-1.16-1.15-2.42-1.15h-1.27v6.51h5.21l.43-.77c.24-.43.71-1.07,1.05-1.42.34-.36.62-.81.63-1.01,0-.2.37-.95.82-1.68l.81-1.32-.05,3.91-.05,3.91h-3.27c-1.8,0-3.35-.08-3.46-.18-.22-.2-2.3-.43-2.69-.29-.14.05-.2.18-.14.28.07.11-1.41.18-3.61.18h-3.72s1.42-.76,1.42-.76h0Zm40.21.05l1.37-.71v-3.54c0-2.15.08-3.59.2-3.67.13-.08.15-.65.07-1.49-.07-.75-.17-2.37-.22-3.6-.08-2.13-.11-2.26-.63-2.69-.3-.25-.68-.46-.85-.46-.17,0-.53-.15-.81-.31-.45-.26.52-.29,7.98-.3h8.49s0,3.29,0,3.29c0,2.34-.06,3.23-.22,3.08-.12-.12-.24-.34-.27-.5-.11-.56-.37-.99-.6-1-.13,0-.81-.74-1.53-1.63-1.21-1.51-1.34-1.62-2.07-1.62-.43,0-.82-.07-.88-.17-.1-.16-2.77.04-3.32.25-.22.08-.27.71-.22,3.01l.06,2.9,1.19.06q1.18.06,2.52-1.11l1.33-1.17-.13,1.21c-.07.67-.12,1.3-.12,1.42,0,.11.06.98.12,1.93l.1,1.72-1.22-1.17-1.22-1.17h-2.7l.05.87c.03.48-.01.98-.1,1.12-.08.14-.09.35,0,.48.08.13.15,1.07.16,2.08l.02,1.85,2.64.05,2.64.05,1.12-1.56c.62-.86,1.13-1.71,1.14-1.9.01-.19.33-.86.71-1.49l.69-1.15.06,2.55c.03,1.48-.03,2.72-.15,2.94-.14.26-.14.57,0,.93.11.29.2.72.2.95,0,.38-.09.4-1.17.3-.64-.06-1.26-.1-1.37-.09-.11.01-3.41.05-7.32.09l-7.12.07,1.37-.71h0Zm41.82.23c.25-.27.73-.6,1.05-.74l.59-.24v-4.72c0-2.6.06-4.78.13-4.85.23-.23.27-1.61.05-2.01-.13-.25-.14-.48-.02-.63.11-.13.12-.42.03-.65-.09-.22-.17-.69-.18-1.04-.01-.57-.15-.71-1.39-1.37l-1.37-.74,3.66.06c2.01.03,4.3.14,5.08.23.78.09,1.79.16,2.24.15,1.1-.02,3.52.65,4.94,1.37,2.29,1.16,3.97,3.21,4.2,5.12.05.38.15.95.22,1.25.21.84-.28,3.19-.89,4.3-.35.64-.74,1.06-1.1,1.19-.31.11-.56.27-.56.35,0,.34-1.03,1.23-2,1.72-2.45,1.24-5.72,1.74-11.51,1.74h-3.64s.46-.49.46-.49h0Zm10.41-2.1c2.55-1.26,3.46-2.86,3.48-6.15.02-3.88-2.07-6.38-5.79-6.89-.66-.09-1.23-.11-1.27-.04-.08.13-.19,10.16-.14,12.59l.03,1.3,1.2-.09c.79-.06,1.63-.3,2.49-.72h0Zm40.49,1.87l1.37-.7v-.96c0-.53.09-1.33.2-1.77.12-.5.11-.89,0-1.04-.11-.13-.14-1.07-.08-2.14.06-1.05.1-2.05.1-2.22,0-.17-.06-1.7-.13-3.4l-.12-3.09-.89-.52c-.49-.29-.89-.61-.89-.72,0-.12,3.05-.19,8.03-.19h8.03v1.72c0,.94-.09,1.77-.2,1.84-.28.18-.25,1.6.04,1.89.19.19.19.3,0,.48-.13.13-.27.2-.31.15-.04-.05-.82-1.06-1.74-2.24l-1.67-2.16-1.67-.11c-.92-.06-2.08-.05-2.59.02l-.92.13-.06,3.1-.06,3.1h1.24c1.18,0,1.3-.05,2.3-.9l1.05-.9.25.53c.3.64.33,1.8.05,1.98-.11.07-.16.33-.11.57.05.24.15.99.22,1.67l.13,1.22-1.29-1.27c-1.28-1.26-1.3-1.27-2.44-1.27-.68,0-1.21.1-1.3.24-.08.13-.14,1.53-.12,3.1l.03,2.85.67.57c.37.31.93.62,1.24.69,1.57.35.32.48-4.47.47h-5.25s1.37-.71,1.37-.71h0Z"/>
        </g>
        <g id="g385">
          <path id="path387" class="cls-1" d="m3.75,182.73c0-.11.29-.69.64-1.3.55-.95.76-1.11,1.48-1.11.66,0,.9-.15,1.16-.7.18-.39.59-1.53.9-2.54.5-1.59,2.32-4.49,13.42-21.28,7.06-10.69,12.92-19.56,13.02-19.7.11-.17.49-.11,1.08.18.5.24,1.18.44,1.51.44.54,0,.59-.09.49-.83-.06-.46-.21-1.48-.32-2.27l-.21-1.44,7.98-12.08c6.69-10.12,8.18-12.23,9.23-13.02,1.08-.82,1.31-1.15,1.67-2.44.23-.82.56-1.77.74-2.11.18-.34,1-1.65,1.84-2.9.83-1.26,2.25-3.13,3.14-4.17.9-1.04,1.94-2.6,2.34-3.48.39-.88,1.01-1.83,1.37-2.12.36-.29.66-.77.66-1.06s7.69-12.22,17.1-26.49c9.4-14.27,17.67-26.75,18.38-27.73.7-.98,2.1-2.81,3.11-4.07,1.15-1.44,1.83-2.51,1.83-2.9,0-.36,1.07-2.26,2.53-4.49,1.39-2.13,2.53-3.95,2.53-4.05s-.77-.18-1.71-.18c-1.13,0-2.06-.17-2.78-.5-.59-.27-1.07-.63-1.07-.79,0-.18-.23-.24-.57-.16-.31.07-1.25.43-2.08.79l-1.52.66h-20.72c-14.33.01-20.99-.07-21.6-.27-.49-.15-1.74-.26-2.8-.24-1.05.02-2.21-.08-2.56-.21-.46-.18-1-.14-1.88.13-.67.21-2.68.45-4.46.53l-3.23.15-3.96,3.02c-2.18,1.66-4.03,3.02-4.12,3.02s-.22-.52-.29-1.15c-.07-.63-.26-1.31-.42-1.5-.25-.3-.51-.3-1.77.02l-1.48.38.13.99c.09.69,0,1.19-.3,1.65-.24.37-.83,1.11-1.32,1.65-.49.54-.81,1.11-.72,1.25.09.15.33.26.53.26s.36.09.36.21-.31.5-.69.86c-.38.36-3.08,2.47-6,4.69s-9.56,7.29-14.76,11.25C4.38,49.55.07,52.74,0,52.67c-.07-.07.88-2.82,2.11-6.12l2.23-6h1.16c.64,0,1.55-.2,2.03-.45.48-.25.91-.58.96-.74.05-.16-.42-.66-1.06-1.09s-1.22-1.07-1.3-1.41c-.1-.4.29-1.81,1.15-4.13.71-1.94,1.81-4.86,2.43-6.48.76-1.99,1.51-3.45,2.29-4.46.64-.83,1.44-2.06,1.78-2.74.61-1.22.62-1.23.14-1.99l-.48-.76,1.48-4c.82-2.2,2.19-5.87,3.05-8.15L19.54,0h3.17s3.17,0,3.17,0l.43.9c.23.5.53,1.35.65,1.9.21.96.18,1.03-.89,2.04-.61.58-1.11,1.16-1.11,1.3s.71-.12,1.58-.59c1.54-.82,1.58-.88,1.83-2.19.25-1.29.31-1.38,1.9-2.35C31.92.03,31.93.02,34.64.02c1.49,0,2.72.05,2.72.13s-.19.43-.42.78c-.32.5-.35.71-.11.95.19.19,1.1.31,2.37.31,1.92,0,2.24-.08,4.31-1.09l2.24-1.09h45.07s45.07.02,45.07.02l-.16.66c-.15.6-.11.64.44.47.33-.1.84-.4,1.12-.67.49-.45,1.06-.48,9.77-.48h9.25l.18.81c.12.53.74,1.35,1.81,2.38,1.48,1.42,1.61,1.63,1.45,2.31-.1.41-3.3,5.48-7.11,11.27-3.82,5.79-7.04,10.59-7.18,10.67-.13.08-.53-.04-.88-.28-.38-.25-.88-.37-1.23-.28-.32.08-.92.43-1.34.78-.67.57-.73.75-.62,1.79.1.87.02,1.28-.31,1.65-.24.27-.74.56-1.11.65-.37.09-.9.52-1.17.96s-.99,1.18-1.58,1.63l-1.08.83,1.02.28c.65.18,1.02.42,1.02.68,0,.32-.18.38-.85.27-.8-.13-.87-.08-1.13.78-.15.51-.26.93-.23.95.03.01.38.23.77.48.52.33.69.61.61,1.01-.06.3-3.54,5.75-7.74,12.1-4.78,7.24-7.86,11.65-8.23,11.83-.4.19-.77.77-1.14,1.79-.3.83-.87,1.88-1.26,2.33s-1.12,1.53-1.63,2.39c-.5.87-1.39,1.98-1.97,2.49-.58.5-1.15.91-1.26.91s-.21.34-.21.75-.12,1.06-.26,1.43-11.44,17.63-25.11,38.34c-24.17,36.62-24.89,37.68-26.37,38.73-1.44,1.02-1.54,1.05-1.93.62-.22-.25-.41-.62-.41-.82,0-.21-.25-.05-.58.37l-.58.73-.82-.69c-.67-.57-.88-.63-1.19-.38-.21.17-.37.46-.37.63s.34.39.76.47c.69.14.76.25.76,1.15,0,.74-.14,1.1-.57,1.4-.56.39-.55.4.44.44.56.02,1.32.12,1.71.2l.7.16-1.9,2.93c-1.04,1.61-1.9,3.08-1.9,3.25,0,.26,7.23.32,35.85.32h35.85l7.35-6.5c4.04-3.57,7.57-6.61,7.84-6.76.27-.14.64-.26.83-.26.24,0,.32.26.24.87-.06.48.03,1.28.2,1.79.2.62.49.96.91,1.07.34.09.97,0,1.4-.17.43-.18,1.33-.88,2-1.56.82-.83,1.43-1.23,1.86-1.23.35,0,.64-.12.64-.26s-.26-.66-.57-1.14c-.43-.67-.69-.85-1.07-.73-.28.09-.76.25-1.07.37s-.63.5-.72.84c-.09.35-.08.75,0,.9.09.15.1.38.01.52-.09.16-.39.1-.76-.15-.53-.35-.57-.48-.32-1.02.22-.49.19-.81-.14-1.52-.23-.49-.42-.93-.42-.97s1.39-1.33,3.09-2.88,4.94-4.44,7.2-6.44l4.11-3.64v-10.37c0-5.7.12-10.82.24-11.37s.46-1.31.73-1.68c.31-.42.53-1.18.57-1.98.04-.78-.06-1.45-.26-1.69-.21-.25-.27-.71-.17-1.25.09-.47.5-1.18.91-1.58.71-.69.75-.85.75-2.71v-1.98l-1.39-1.23-1.39-1.23v-20.3s0-20.3,0-20.3l.77-.99c.42-.55.96-1.13,1.19-1.31s.73-.32,1.12-.32.71-.07.71-.14-.3-.54-.66-1.02c-.47-.63-.86-.88-1.36-.88-.59,0-.77-.18-1.14-1.08-.29-.7-.49-2.05-.56-3.82l-.12-2.73-1.68-1.6c-.92-.88-2.74-2.62-4.03-3.86l-2.35-2.26.53-.57c.31-.34.65-1.22.82-2.14.16-.86.39-1.57.52-1.57s1.08-.34,2.12-.77l1.89-.77h7.92c4.76,0,8.19.1,8.6.26.62.24.66.34.5,1.21-.09.52-.46,1.45-.81,2.05l-.63,1.1.83-.43c.46-.24,1.29-.45,1.85-.46.57-.02,1.42-.28,1.94-.6.5-.32,1.03-.57,1.17-.57s.33-.3.42-.66c.11-.42.02-.89-.23-1.28l-.4-.61h30.49l.59.64c.33.35.8.64,1.04.64.42,0,.42.08.09,1.02l-.36,1.02,1.52-.77c1.22-.62,1.49-.87,1.37-1.25-.1-.32.04-.61.42-.88.51-.36,2.35-.4,16.31-.4s15.8.04,16.41.44c.42.28,1.18.44,2.08.45.83,0,1.84-.18,2.42-.44.93-.42,2.01-.45,13.76-.38l12.76.07-.09,1.23c-.06.84.04,1.36.3,1.66.35.39.11.64-2.89,2.93-1.8,1.38-3.62,2.62-4.04,2.77-.42.15-.8.23-.84.18-.04-.05-.15-.46-.23-.91-.14-.75-.07-.86.87-1.4.97-.55,1-.59.43-.75-.33-.09-1.07-.18-1.65-.19-.58-.01-1.13-.14-1.22-.29-.1-.16-.46,0-.92.38-.42.35-1.01.71-1.31.78-.49.12-.55.31-.55,1.72,0,.87-.09,1.72-.21,1.89-.16.23,0,.27.64.17.61-.1,1.01,0,1.45.35l.6.49-1.21,1c-.67.55-1.41,1.18-1.64,1.41-.25.24-.52,1.07-.64,2.04-.12.9-.2,1.79-.19,1.98.01.19-.12.78-.3,1.29-.29.84-.28,1.01.14,1.56.45.59.47,1.33.47,14.39v13.77s-.85.4-.85.4c-.82.39-.87.38-1.7-.31-.47-.39-.94-.71-1.05-.72-.11,0-.02.34.2.76.22.43.6.77.85.77s.93.35,1.51.77l1.05.77v23.87q0,23.86-.53,24.62c-.49.7-.5.79-.12,1.21.29.33.36.7.24,1.33-.09.48-.27,1.07-.39,1.32-.12.25-.39.45-.58.45-.21,0-.44.43-.58,1.08-.16.8-.13,1.29.15,1.89.28.6.59.85,1.24.97.62.12,1.29,0,2.3-.41.79-.32,1.61-.73,1.83-.91.22-.18.96-.33,1.64-.33.68,0,1.82-.07,2.53-.16l1.29-.16,1.28-3.22c.71-1.77,3.15-7.98,5.44-13.81,2.29-5.82,4.93-12.57,5.88-14.99,1.66-4.25,1.76-4.43,2.75-4.97.87-.48,1.2-.93,2.16-2.91.63-1.29,1.22-2.35,1.32-2.36.1,0,.4.42.66.95.26.53.55,1.45.64,2.06.09.6.09,1.85,0,2.77-.16,1.56-.22,1.69-.92,1.93l-.75.26.18,1.81c.1,1,.2,3.08.23,4.62.03,1.54.14,2.99.25,3.22.15.32-.09.58-1.02,1.13l-1.21.72.76.16c.42.09,1,.31,1.29.5.29.19.67.56.83.82.22.36.3,3.01.28,9.81-.02,9-.03,9.35-.54,10.07-.42.6-.49.94-.34,1.81.1.59.34,1.52.53,2.07.21.61.35,2.07.35,3.77,0,1.82.09,2.77.27,2.77.15,0,.75-.39,1.33-.86s1.31-.99,1.62-1.15c.5-.26.58-.22.72.34.15.62.17.63.94.23.54-.28,1.12-.36,1.93-.25.64.08,1.44.22,1.79.3.6.14.59.12-.16-.52l-.79-.66.54-.99c.3-.55.45-1.07.35-1.18-.1-.1-.41.02-.69.28-.38.35-.64.4-1.04.22-.48-.22-.31-.41,1.83-2.02l2.37-1.77.13-18.36c.11-16.5.17-18.46.55-19.27.41-.87.4-.92-.06-1.21-.47-.3-.49-.8-.48-18.6,0-10.06.1-18.45.22-18.64.16-.25.36-.08.77.62.44.75.61.88.79.59.12-.2.3-.86.39-1.45.1-.69.05-1.22-.14-1.45-.17-.2-.66-.4-1.1-.44l-.8-.08-.07-6.28-.07-6.28.57-.15c.32-.09,1-.16,1.52-.16.65,0,.95-.12.95-.37,0-.2.07-.56.16-.79.14-.38.04-.41-.85-.26-.99.17-1.03.15-1.92-1.1-.87-1.23-.94-1.26-1.65-.99-.71.27-.89.17-3.68-1.95-2.52-1.92-2.91-2.31-2.79-2.81.09-.36,0-.7-.26-.91-.22-.18-.46-.27-.54-.2-.08.08-.56.02-1.07-.12-.51-.14-1.35-.56-1.87-.93-.66-.47-.94-.86-.95-1.33,0-.44.25-.84.77-1.23.71-.53.76-.67.61-1.58l-.17-1h26.58l.25.65c.14.36.25,1.04.25,1.51,0,.66-.25,1.11-1.13,2.02-1.1,1.14-1.11,1.17-.47,1.17.39,0,1.05-.36,1.63-.89.54-.49,1.09-.89,1.23-.89s.25-.33.25-.73.24-1.04.53-1.41.86-.85,1.27-1.06c.64-.33,1.2-.35,3.96-.11,1.77.15,4.75.56,6.63.91s4.21.87,5.18,1.16,2.65.87,3.73,1.28c1.59.62,2.04.91,2.37,1.57.22.44.78,1.33,1.23,1.97.45.64.95,1.42,1.12,1.73.28.53.26.55-.37.39-.62-.16-.65-.13-.39.37.16.3.5.66.76.8.32.18,1.16.17,2.58-.01,1.58-.21,2.22-.4,2.55-.79l.45-.52,1.07.71c.59.39,2.49,2.15,4.23,3.92,1.74,1.77,3.85,4.19,4.68,5.38.84,1.19,1.93,2.86,2.44,3.7.5.84,1.38,2.5,1.95,3.68.93,1.94,1.03,2.35,1.03,4.09,0,1.36.12,2.11.4,2.52.22.32.66.68.96.8.43.17.72.73,1.24,2.47.38,1.24.96,3.52,1.3,5.06.34,1.54.8,4.18,1.02,5.87.22,1.68.5,5.24.62,7.91.12,2.68.13,6.84.02,9.31-.14,3.01-.34,4.83-.61,5.58-.22.61-.41,1.31-.41,1.55s-.28.57-.63.73c-.42.19-.63.5-.63.91,0,.34-.07.8-.15,1.03-.12.32.02.4.66.4h.81l-.17,1.34c-.09.74-.46,2.65-.81,4.26-.35,1.61-1.13,4.48-1.74,6.38-.61,1.9-1.89,5.06-2.84,7.03-.96,1.96-2.54,4.78-3.52,6.25-.98,1.47-2.75,3.77-3.93,5.11-1.18,1.34-2.98,3.13-4,3.98-1.02.85-2.53,2.03-3.35,2.61-.82.58-1.62,1.05-1.77,1.05-.15,0-.61-.55-1.03-1.21-.42-.66-.88-1.83-1.03-2.61l-.27-1.4-.46,1.44c-.43,1.35-.44,1.5-.04,2.49.23.58.42,1.32.42,1.65s-.24.91-.54,1.29c-.42.54-.68.66-1.17.53-.48-.12-.87.03-1.62.64-.54.44-1.92,1.15-3.06,1.56-1.14.42-3.32,1.09-4.85,1.49-1.53.4-4.03.92-5.57,1.15-2.77.43-2.8.43-3.92-.11-.62-.3-1.37-.75-1.67-1.01-.3-.25-.58-.68-.63-.95-.04-.27.01-.64.12-.82.16-.26-.11-.3-1.27-.21-.81.07-1.82.23-2.25.36-.51.16-.94.15-1.24-.02-.25-.14-1.14-.53-1.98-.86-.84-.33-1.56-.6-1.61-.6s.26.68.67,1.51c.65,1.3.7,1.55.38,1.82-.2.17-.37.4-.37.51s1.25.24,2.77.29c1.77.06,2.88.2,3.08.41.25.26-3.5.32-18.77.32-17.86,0-19.11-.03-19.47-.45-.21-.25-.47-1.12-.57-1.94-.17-1.4-.14-1.54.52-2.23.39-.41.58-.74.44-.74s-.73.34-1.31.77c-.58.42-1.1.77-1.16.77s-.24-.66-.41-1.47c-.21-1.04-.53-1.72-1.12-2.36-.45-.49-1.01-1.18-1.24-1.52-.23-.35-.42-.5-.42-.35s.17.78.39,1.39c.21.61.63,1.37.92,1.68.3.32.62,1.13.73,1.86.11.71.45,1.64.75,2.06.3.43.51.8.46.83-.05.03-.79.42-1.65.88l-1.56.83h-12.97c-11.04,0-13.13-.07-14.09-.4-.62-.22-1.39-.33-1.72-.24-.53.13-.57.1-.33-.35.15-.28.39-.58.53-.67.18-.11.14-.31-.11-.59-.21-.23-.48-.69-.6-1.01-.2-.55-.27-.5-1.18.83-.53.78-1.34,1.65-1.79,1.93-.8.5-1.24.51-15.53.51-10.35,0-14.86-.08-15.23-.29-.29-.16-1.45-.42-2.57-.58l-2.05-.29-.66-1.24-.66-1.24-.29.89c-.16.49-.54,1.12-.85,1.4-.31.28-1.19.66-1.95.84s-1.99.31-2.72.3c-.73-.01-1.64-.02-2.02-.03-.38,0-11.11.06-23.84.14l-23.14.14-3.76,11.49c-2.79,8.52-3.9,11.57-4.27,11.81-.28.18-.88.39-1.33.48-.78.14-.81.12-.54-.38.22-.42.21-.59-.06-.76-.19-.12-.72-.29-1.17-.38-.61-.12-.96-.04-1.33.3-.28.25-.74.84-1.03,1.31-.48.79-.49.9-.12,1.46.39.59.38.62-.38.78l-.77.17.59.64c.32.35.78.74,1.01.87.3.16.89,0,2.02-.53.88-.42,1.74-.76,1.91-.76.17,0,.31.14.29.32-.01.18-.33,1.24-.69,2.36l-.67,2.04-3.38.07c-2.7.06-3.5,0-3.97-.32-.39-.26-1.19-.39-2.34-.39-.96,0-2.24-.18-2.84-.39-.88-.31-1.35-.34-2.4-.12-.72.15-1.51.5-1.76.77-.42.47-.83.5-8.47.5s-8.04-.03-8.17-.45c-.08-.25-.48-.66-.89-.9-.72-.43-.83-.42-2.84.12-1.15.31-2.83.67-3.74.81-.91.14-11.85.29-24.55.34l-22.9.1-1.86-.6c-1.02-.33-2.37-.58-3.01-.57-.82.02-1.31.2-1.71.59-.55.55-.65.56-8.78.56s-8.22-.02-8.08-.47c.11-.33-.04-.55-.5-.77-.36-.16-.95-.3-1.32-.3-.45,0-1.02-.35-1.72-1.03l-1.04-1.03-1.18.3c-.65.17-1.75.25-2.45.18-1.14-.11-1.25-.08-1.11.35.1.32-.1.73-.64,1.27-.73.73-.89.79-2.15.68-1.19-.1-1.38-.05-1.49.39-.12.47-.31.49-3.55.38-1.88-.06-3.49-.19-3.58-.27-.08-.09-.01-.95.16-1.92.21-1.18.23-1.91.06-2.21-.19-.35-.28-.14-.39.96-.08.77-.34,1.71-.58,2.08-.24.37-.68.81-.97.98-.34.2-2.22.34-5.27.4-2.61.05-4.74,0-4.74-.1h0Zm35.2-23.79c2.98-3.74,6.93-8.7,8.79-11.01,1.86-2.32,4.46-5.56,5.78-7.2,1.32-1.65,2.53-2.99,2.7-2.99.16,0,.59.11.95.25.43.17.65.44.65.83,0,.45.05.5.24.21.2-.32.32-.3.81.13.36.31.29.16-.19-.41-.42-.5-.91-1.27-1.1-1.72-.29-.71-.28-.9.11-1.5.25-.38,2.57-3.34,5.16-6.57,2.59-3.23,5.53-6.91,6.53-8.17l1.81-2.29v-1.71c0-.94.11-2,.25-2.36.17-.44.16-.85-.03-1.28-.22-.49-.19-.85.13-1.66.23-.57.41-1.61.41-2.31,0-.85-.1-1.27-.32-1.26-.17,0-.6.17-.95.37-.35.2-.88.37-1.19.37-.44,0-.59-.18-.72-.88-.09-.49-.25-.89-.36-.89s-.49.24-.86.53c-.37.29-.83.92-1.03,1.4-.2.47-.73,1.1-1.19,1.38-.46.28-1.02.52-1.25.52-.23,0-.97.61-1.64,1.36-.67.75-1.78,2.38-2.46,3.63s-1.57,2.85-1.97,3.55c-.4.7-1.46,2.46-2.36,3.92s-1.63,2.75-1.63,2.88-.21.66-.47,1.18c-.26.52-.88,1.76-1.38,2.75-.66,1.3-1.2,2-1.93,2.49-.56.37-1.02.77-1.02.87,0,.1-.1.82-.23,1.59-.17,1.06-.97,2.76-3.31,7.01-1.69,3.09-4.05,7.39-5.24,9.56-1.19,2.17-2.64,4.81-3.23,5.87-.59,1.05-2.06,3.75-3.28,5.99-1.22,2.24-2.26,4.2-2.32,4.34-.06.14.35-.24.91-.85.56-.61,3.45-4.17,6.43-7.91h0Zm188.83-13.11c1.54-1.16,3.34-2.5,4-2.97.66-.48,1.68-1.06,2.27-1.28.71-.27,1.6-.99,2.61-2.1l1.53-1.69v-17.61c0-17.32,0-17.64.54-19.06.34-.93.71-1.49,1.02-1.57.29-.08.46-.31.41-.58-.04-.25.14-.68.39-.97s.38-.66.28-.82c-.12-.19-.63-.26-1.41-.18l-1.23.12v-52.11l-.88-.87c-.66-.65-.88-1.08-.88-1.72,0-.57.21-1.06.62-1.48.34-.34.73-.63.87-.63s.33-.41.42-.91c.1-.56.06-1.02-.11-1.2-.16-.16-.28-.66-.28-1.12,0-.57-.16-.92-.51-1.11-.29-.15-.51-.17-.51-.04s.17.3.38.38c.21.08.38.4.38.7s-.13.99-.29,1.52-.62,1.38-1.03,1.88c-.63.78-.89.91-1.8.91-.96,0-1.44-.3-5.41-3.32-2.39-1.82-4.41-3.32-4.48-3.32s-.13.86-.13,1.92c0,1.79-.04,1.94-.62,2.2-.45.21-.91.21-1.71,0l-1.09-.28.63.5c.35.28,1.12.64,1.71.81l1.08.3-.06,18.12-.06,18.12-1.2.64c-1.12.59-1.25.61-1.89.25-.39-.22-1.05-1.06-1.51-1.91-.45-.84-1.8-3.65-3.02-6.24-1.26-2.7-2.18-5-2.16-5.37.03-.36-.24-1.48-.58-2.48-.35-1-.63-1.97-.63-2.15,0-.18-.6-.79-1.33-1.37-1.21-.95-1.47-1.36-2.93-4.56-.88-1.93-1.65-3.87-1.72-4.31-.1-.69-.01-.86.65-1.23.59-.33.77-.61.77-1.18,0-.41-.19-.9-.42-1.1-.23-.19-.96-.35-1.62-.35-.92,0-1.35-.14-1.84-.61-.46-.44-.77-.55-1.09-.39-.25.12-4.26.28-8.92.35l-8.46.14-.15,3.7c-.08,2.03-.24,3.9-.35,4.15-.11.25-.41.57-.67.71-.26.14-.48.41-.48.6s.31,1.02.69,1.84l.69,1.5.13,12.88.13,12.88,4.72.07,4.72.07,5.49-6.9c3.02-3.79,5.59-6.96,5.72-7.04.13-.08.51.04.86.27.34.23.96.89,1.38,1.46l.75,1.05v6.72c0,5.76-.05,6.72-.37,6.72-.21,0-.56.29-.79.64-.29.45-.36.9-.25,1.53.14.74.27.89.81.89h.64l-.14,2.1c-.08,1.16-.14,2.45-.13,2.87,0,.42.07,4.7.13,9.5l.12,8.74-.67.26c-.37.14-1.18.28-1.81.32l-1.14.06-3.26-4.46c-1.79-2.45-3.66-5.23-4.16-6.18-.5-.94-1.49-2.3-2.2-3.01-.71-.71-2.31-2.21-3.54-3.32-1.23-1.12-2.35-2.03-2.49-2.03s-.69.25-1.23.56c-.54.31-.98.65-.98.77s.23.21.51.21.51.09.51.21-.48.48-1.07.8c-.59.33-1.33.83-1.64,1.11-.52.47-.57.74-.57,3.16,0,1.9-.11,2.86-.39,3.41-.22.42-.78,1.2-1.25,1.73-.63.71-.82,1.11-.71,1.53.11.44.28.54.7.44.48-.12.62.04,1.03,1.19.44,1.23.48,2.35.56,15l.08,13.67,3.46.16c1.9.09,4.13.34,4.95.56,1.21.33,1.75.35,2.91.11.78-.16,1.87-.38,2.43-.51.56-.12,1.81-.22,2.79-.23,1.69-.01,1.81-.05,2.35-.79.31-.43.94-.95,1.38-1.17.71-.34.8-.5.72-1.2-.07-.64.18-1.21,1.19-2.72.71-1.05,1.28-2.01,1.28-2.13s-.28-.17-.63-.1c-.35.07-.63.01-.63-.12s.39-1.12.86-2.2c.47-1.07,1.96-4.42,3.31-7.44,1.35-3.02,3.1-6.98,3.9-8.8.8-1.82,1.81-4.07,2.24-4.99.49-1.04,1.16-1.98,1.76-2.46.68-.55,1.08-.72,1.33-.56.2.13.43.23.51.23.08,0,.04-.56-.09-1.26-.17-.86-.38-1.29-.68-1.34-.39-.07-.37-.22.2-1.48l.63-1.4.32,1.02c.18.56.33,1.37.34,1.8.01.43.3,1.17.65,1.64l.63.86v10.34c0,9.36-.04,10.42-.44,11.18-.24.46-.88,1.69-1.41,2.74l-.97,1.91-1.05-.15c-.58-.08-1.19-.19-1.37-.25-.17-.05-.32,0-.32.13s.25.27.56.31c.31.05.77.46,1.05.94.41.71.43.89.14,1.08-.19.12-.67.23-1.06.23-.39,0-.94-.12-1.22-.27s-.56-.22-.63-.16c-.06.06-.05.41.04.76.13.53.34.66,1.21.76.58.06,1.28,0,1.56-.16.28-.15.69-.24.92-.2.23.03.63-.22.88-.56.26-.34.61-.83.77-1.1.29-.45.33-.44.82.16.49.61.51.99.52,9.25,0,4.73.1,8.61.22,8.61s1.47-.95,3.01-2.1h0Zm104.76-9.11c.64-.28,1.87-.98,2.74-1.57s2.4-1.91,3.42-2.94c1.01-1.03,2.58-3.01,3.48-4.4.9-1.39,2.14-3.6,2.75-4.91.61-1.31,1.58-3.79,2.15-5.52.57-1.73,1.26-4.08,1.53-5.23.27-1.14.79-4.14,1.15-6.67.36-2.53.7-4.63.75-4.68.05-.05.63.09,1.29.32.66.23,1.25.41,1.31.41s-.31-.47-.83-1.05c-.52-.58-1.1-1.43-1.29-1.9-.27-.65-.36-2.26-.36-6.67,0-3.2-.12-7.19-.26-8.87-.14-1.68-.48-4.72-.76-6.76-.28-2.03-.83-4.96-1.23-6.5-.4-1.54-1.26-4.3-1.91-6.12-.65-1.82-1.64-4.18-2.19-5.23-.56-1.05-1.62-2.83-2.36-3.95-.74-1.12-2.24-2.93-3.33-4.02-1.09-1.09-2.32-2.21-2.73-2.5-.42-.28-1.44-.9-2.27-1.37-.83-.47-1.77-.93-2.08-1.03l-.57-.17v4.34c0,2.44-.12,4.65-.27,5.05-.15.39-.56,1.03-.92,1.41-.61.65-.64.79-.48,2.42.09.95.26,3.4.38,5.43.15,2.69.35,4.12.74,5.23.43,1.23.5,1.81.34,2.93-.1.77-.11,1.86,0,2.42.1.56.19,9.18.2,19.14.01,15.56-.04,18.19-.36,18.62-.24.32-.37,1.11-.38,2.22,0,.97-.12,1.72-.26,1.72s-.25-.11-.25-.26-.1-.26-.23-.26-.3.29-.39.65c-.09.36-.03,1.13.12,1.72.16.59.61,1.62,1.02,2.29l.74,1.22v7.78c0,4.54.1,7.78.23,7.78.13,0,.75-.23,1.39-.5h0Zm-249.1-39.4c3.05-1.21,5.58-2.24,5.62-2.28.04-.04-.21-2.05-.56-4.47-.35-2.42-.64-4.7-.64-5.08,0-.37-.1-.84-.23-1.03-.18-.29-.61-.19-2.33.54-1.16.49-3.67,1.51-5.58,2.27l-3.47,1.37v1.06c0,.58.17,2.59.37,4.46.21,1.87.44,3.9.52,4.51.09.7.26,1.06.44.98.16-.07,2.79-1.11,5.85-2.33h0Zm15.73-24.22l4.24-2.15,1.56-2.76c.86-1.52,1.73-3.12,1.95-3.56.22-.44.58-.87.8-.96s.78-.16,1.24-.16.97-.16,1.13-.37c.23-.28.23-.5,0-.94-.17-.32-.39-.87-.49-1.23-.13-.46,0-1.03.44-1.93.34-.7,1.55-2.99,2.68-5.08,1.34-2.48,2.29-3.94,2.72-4.19.36-.21.8-.76.96-1.22.16-.46,1-1.46,1.85-2.23l1.55-1.39-.3-1c-.16-.55-.3-1.18-.3-1.39s.81-1.86,1.8-3.67,2.39-4.37,3.12-5.71c.73-1.33,2.05-3.74,2.93-5.36s2.13-3.91,2.77-5.1c.64-1.19,1.76-3.29,2.5-4.65.73-1.37,1.28-2.49,1.23-2.49s-1.1,1.27-2.32,2.81c-1.22,1.55-2.57,3-3.01,3.22-.44.22-.99.58-1.24.8-.24.22-.45.75-.45,1.18-.01.63-.74,1.69-3.5,5.13-1.92,2.38-4.21,4.96-5.1,5.73-.94.81-1.81,1.81-2.06,2.39-.24.55-.93,1.7-1.53,2.56-.6.86-3.02,3.98-5.38,6.92-2.36,2.95-5.57,6.96-7.13,8.93-1.56,1.96-3.32,3.92-3.91,4.35-.61.45-1.18,1.13-1.33,1.59-.15.44-.61,1.18-1.03,1.64s-1.11,1.4-1.54,2.11c-.46.76-.82,1.76-.9,2.48l-.12,1.2.66-.53.66-.53.07,3.85c.04,2.16.17,3.85.31,3.85s2.14-.97,4.48-2.15h0Zm259.87,77.58c-.7-.75-.76-.94-.62-2.02.15-1.17.22-1.24,3.21-3.59,1.68-1.32,4.55-3.53,6.39-4.92,3.28-2.48,3.34-2.54,3.72-3.94.22-.78,1.24-4.4,2.28-8.05,1.04-3.65,2.61-9.16,3.5-12.24.88-3.09,2.13-7.5,2.78-9.82.64-2.31,1.45-4.7,1.8-5.29.41-.71.8-1.08,1.13-1.08s.63-.29.87-.88c.2-.49.37-1.63.37-2.55s-.09-1.67-.2-1.67-.35.14-.53.32c-.27.26-.31.22-.19-.19.08-.28,1.01-3.55,2.07-7.27,1.06-3.72,2.73-9.57,3.71-13.01.98-3.44,2.36-8.24,3.06-10.67.7-2.43,1.43-4.58,1.63-4.78.2-.2.52-.36.72-.36.21,0,.36.25.36.6,0,.54.14.62,1.4.75.77.08,1.81.39,2.32.69l.91.54-.7-.93c-.43-.56-.65-1.12-.57-1.42.11-.43,0-.49-.99-.49-.85,0-1.15-.11-1.25-.45-.07-.25-.41-1.01-.75-1.7l-.62-1.26,1.37-4.74c.75-2.6,1.4-4.92,1.45-5.14.05-.25-.77-1.12-2.19-2.3-1.25-1.04-3.44-2.82-4.88-3.94l-2.6-2.04.05-1.66c.03-.91-.07-1.94-.21-2.29-.19-.48-.16-.78.12-1.21l.37-.58h31.68l.55.75c.49.67.54,1.03.49,3.45l-.06,2.71.95.26c.52.14,1.11.51,1.3.82s.81,2.4,1.36,4.64c.55,2.24,1.76,7.01,2.69,10.58s2.3,8.86,3.06,11.73c.75,2.88,1.93,7.41,2.61,10.07.68,2.67,2.1,8.23,3.16,12.36,1.06,4.13,1.93,8.04,1.93,8.69,0,.86-.2,1.49-.75,2.37-.69,1.09-.84,1.2-1.74,1.2-.57,0-1.12.16-1.3.38-.27.33-.18.38.66.38.54,0,1.36-.24,1.83-.52.51-.31,1.17-.49,1.64-.45.72.07.83.2,1.21,1.48.23.77.94,3.44,1.58,5.92.64,2.49,1.16,5.04,1.16,5.67,0,1.09-.06,1.18-1.01,1.67-.56.29-1.01.63-1.01.76s.28.43.62.66c.34.23.7.66.79.96.09.3.35.77.58,1.03.23.27.75.69,1.16.95.58.36.85.83,1.21,2.07.25.88,1.14,4.3,1.97,7.59.83,3.3,1.73,6.68,1.99,7.52s.53,2.65.6,4.01l.13,2.48-.9.56-.9.56,1.49.71c.82.39,1.73,1.02,2.03,1.39l.54.68.18-1.12c.1-.61.34-1.43.54-1.82.2-.39.44-.7.54-.7s.98.23,1.95.51c.97.28,1.98.51,2.23.51s.98.45,1.6,1.01c.62.55,1.51,1.13,1.97,1.29.57.19.89.49,1,.94.11.46.02.82-.31,1.2-.26.3-.73.97-1.04,1.5l-.57.96h-20.89c-19.46-.02-20.83-.05-20.13-.44.42-.23,1.21-.55,1.77-.72.56-.17,1.04-.46,1.08-.66.04-.2-.3-.58-.75-.85-.45-.27-1.3-.93-1.87-1.47-.64-.6-1.57-1.13-2.39-1.38-1.26-.38-1.36-.37-1.67.05-.18.25-.33.55-.33.66s.28.39.63.62.63.58.63.78c0,.28-.32.35-1.42.29l-1.42-.08-.44-1.15-.44-1.15,3.84-3.15,3.84-3.15.27-3.1.27-3.1-.73-.66c-.4-.36-.73-.85-.73-1.09s-.33-1.09-.73-1.89c-.4-.8-.92-2.35-1.16-3.44-.28-1.26-.38-2.39-.27-3.1.14-.95.09-1.17-.37-1.49-.41-.29-.74-1.27-1.47-4.42l-.94-4.05h-18.15l-.83,3.19c-.45,1.75-1.2,4.59-1.65,6.31-.78,2.95-.85,3.1-1.27,2.71-.41-.38-.5-.37-1.11.03-.51.34-.62.56-.49.99.1.3.23.92.3,1.36.07.45-.06,1.37-.28,2.04-.22.68-.39,1.86-.38,2.63.01.77-.22,2.6-.52,4.07l-.55,2.67.95.77c.52.42,2.32,1.92,4,3.33,2.94,2.47,3.06,2.6,3.38,3.95.21.86.27,1.9.17,2.74l-.17,1.35h-9.52c-7.02,0-10-.09-11.34-.35-1.18-.23-2.24-.63-3.01-1.15-.66-.44-1.38-.8-1.6-.8s-.54-.13-.69-.28c-.19-.19-.2-.55-.05-1.08.13-.44.23-1.03.22-1.31,0-.28-.1-.67-.22-.85-.18-.28-.34-.28-.97.05-.41.22-.95.7-1.19,1.07-.24.37-.39.72-.32.79.06.06.41-.02.78-.19.37-.17.7-.26.75-.2.05.06.26.85.48,1.76.22.91.48,1.86.57,2.1.16.42-.2.45-5.61.45h-5.79l-.77-.83h0Zm52.16-49.45c.91-.21,1.46-.22,2.04-.01.64.23.79.21.79-.09,0-.2-.29-1.14-.64-2.09-.35-.95-.73-1.81-.83-1.92s-.53.26-.94.82c-.41.56-.82,1.02-.92,1.02-.09,0-.3-.65-.45-1.46-.15-.81-.72-3.42-1.26-5.8-.54-2.38-1.4-6.23-1.92-8.54-.52-2.31-1.05-4.66-1.18-5.22-.17-.7-.3-.89-.43-.64-.1.2-.83,2.72-1.61,5.6s-1.99,7.44-2.69,10.14c-.7,2.7-1.28,5.03-1.28,5.16,0,.16,1.35.26,3.47.26,3.42,0,3.48.02,3.94.65.45.62.45.66.02.98-.4.3-.31.39.92.86.75.29,1.45.54,1.54.54.09,0,.73-.12,1.42-.28h0Zm-117.13,4.4c-.17-.48-.3-1.14-.3-1.47s.12-.6.26-.6.36.27.48.59c.12.33.14.99.04,1.47l-.18.87-.3-.87Z"/>
        </g>
      </g>
    </g>
  </g>
</svg>