<?xml version="1.0" encoding="UTF-8"?>
<svg id="Calque_12" data-name="Calque 12" xmlns="http://www.w3.org/2000/svg" viewBox="0 0 178 140.2">
  <defs>
    <style>
      .cls-1 {
        fill: #4d4d4d;
      }

      .cls-1, .cls-2 {
        stroke-width: 0px;
      }
    </style>
  </defs>
  <path class="cls-2" d="m89,134.54c-12.03,0-23.61,1.93-34.44,5.5-1.58.52-3.28-.28-3.92-1.81L0,16.69C27.58,5.92,57.6,0,89,0s61.43,5.92,89,16.69l-50.64,121.54c-.64,1.53-2.34,2.33-3.92,1.81-10.83-3.57-22.41-5.5-34.44-5.5Z"/>
  <path class="cls-1" d="m89,4.21c28.81,0,56.92,5.14,83.58,15.3l-48.66,116.78c-11.22-3.81-22.97-5.74-34.92-5.74s-23.7,1.93-34.92,5.74L5.42,19.5C32.09,9.35,60.19,4.21,89,4.21m0-2C58.58,2.21,29.5,7.94,2.79,18.38l49.59,119.02c.25.61.84.98,1.47.98.17,0,.35-.03.53-.09,10.85-3.73,22.5-5.76,34.62-5.76s23.77,2.03,34.62,5.76c.17.06.35.09.53.09.63,0,1.22-.37,1.47-.98l49.59-119.02C148.5,7.94,119.42,2.21,89,2.21h0Z"/>
</svg>