<?xml version="1.0" encoding="UTF-8"?>
<svg id="Calque_12" data-name="Calque 12" xmlns="http://www.w3.org/2000/svg" viewBox="0 0 29.02 29.02">
  <defs>
    <style>
      .cls-1 {
        fill: #ffee95;
        stroke-width: 0px;
      }
    </style>
  </defs>
  <path class="cls-1" d="m22.24,14.51c0,4.27-3.47,7.73-7.73,7.73s-7.72-3.47-7.72-7.73,3.46-7.72,7.72-7.72,7.73,3.46,7.73,7.72Z"/>
  <path class="cls-1" d="m14.51,0C6.49,0,0,6.49,0,14.51s6.49,14.52,14.51,14.52,14.52-6.49,14.52-14.52S22.53,0,14.51,0Zm0,24.29c-5.4,0-9.77-4.38-9.77-9.78S9.11,4.74,14.51,4.74s9.78,4.38,9.78,9.77-4.38,9.78-9.78,9.78Z"/>
</svg>