<?xml version="1.0" encoding="UTF-8"?>
<svg id="Calque_12" data-name="Calque 12" xmlns="http://www.w3.org/2000/svg" viewBox="0 0 175.1 174.74">
  <defs>
    <style>
      .cls-1 {
        fill: #4d4d4d;
      }

      .cls-1, .cls-2 {
        stroke-width: 0px;
      }
    </style>
  </defs>
  <path class="cls-2" d="m53.18,174.49l121.93-50.04C150.54,69.12,106.04,24.6,50.73,0L.25,121.7c-.63,1.53,0,3.3,1.46,4.05,20.3,10.45,36.92,27.02,47.43,47.28.76,1.46,2.52,2.09,4.04,1.46Z"/>
  <path class="cls-1" d="m52.88,5.3c25.73,11.71,48.95,27.83,69.04,47.93,20.09,20.1,36.19,43.33,47.88,69.06l-117.31,48.15c-10.46-20.62-27.55-37.66-48.19-48.05L52.88,5.3m-1.06-2.67L2.31,121.97c-.32.78.02,1.66.77,2.04,20.63,10.29,37.45,27.08,47.8,47.67.28.55.83.87,1.41.87.2,0,.4-.04.59-.12l119.59-49.08C148.64,69.68,105.48,26.49,51.82,2.63h0Z"/>
</svg>