<svg width="78" height="46" viewBox="0 0 78 46" fill="none" xmlns="http://www.w3.org/2000/svg">
<path d="M70.2393 26.7373C65.283 26.0754 65.0618 26.0407 64.936 25.8861C64.8391 25.7676 64.8146 25.6635 64.8449 25.4843C64.9172 25.032 65.0155 23.3498 65.0155 22.5694C65.0155 21.789 64.9143 20.1039 64.8449 19.6848C64.8203 19.5417 64.8478 19.4276 64.9288 19.3293C65.0401 19.1963 65.4623 19.1299 70.4923 18.4752C74.2847 17.9809 75.9734 17.7873 76.0573 17.8335C76.2077 17.9145 76.2395 18.0113 76.319 18.6457C76.559 20.5389 76.5764 23.9625 76.358 26.1534C76.2366 27.3703 76.2005 27.4468 75.7204 27.4367C75.5498 27.4324 73.0803 27.1188 70.2364 26.7387H70.2393V26.7373Z" fill="#F4A901" fill-opacity="0.5"/>
<path d="M8.7728 44.8671C7.45854 43.1444 5.83199 40.3769 4.83003 38.1542C4.457 37.3305 4.40062 37.1108 4.51195 36.9345C4.60882 36.7842 14.6906 32.6481 14.8597 32.69C14.9711 32.7175 15.1316 32.9834 15.5219 33.7855C16.2723 35.3361 17.0285 36.6108 17.9668 37.9216C18.1577 38.1875 18.2083 38.3161 18.1765 38.4418C18.1172 38.6817 9.58825 45.2023 9.28752 45.2385C9.09667 45.2602 9.04606 45.224 8.77425 44.8685V44.8656L8.7728 44.8671Z" fill="#05AAE7" fill-opacity="0.5"/>
<path d="M1.85885 27.3271C1.49884 26.9267 1.35715 21.7313 1.63619 19.0693C1.74174 18.0606 1.79668 17.8698 1.9991 17.8062C2.12488 17.7672 12.7185 19.1416 12.9353 19.2283C13.1551 19.3121 13.1869 19.4826 13.106 20.1142C13.0091 20.8599 13.0076 24.3688 13.1016 25.1492C13.1782 25.7865 13.1161 25.996 12.8327 26.0625C12.6202 26.1117 2.28393 27.4499 2.10898 27.4499C2.02946 27.4499 1.91813 27.395 1.8603 27.3314V27.3285L1.85885 27.3271Z" fill="#A9C701" fill-opacity="0.5"/>
<path d="M64.1697 41.9088C60.5074 39.0951 59.8308 38.5502 59.8134 38.3942C59.799 38.2583 59.8973 38.0632 60.1937 37.647C61.0901 36.3882 61.92 34.9619 62.5981 33.5225C62.8901 32.9025 63.0058 32.7204 63.1316 32.69C63.2473 32.6611 64.6425 33.2103 68.1906 34.6873C70.8841 35.8073 73.1787 36.7698 73.2842 36.8247C73.5878 36.9808 73.5878 37.1629 73.2885 37.8435C72.3719 39.9217 70.9824 42.3583 69.6002 44.302C69.0421 45.0868 68.8817 45.2501 68.6764 45.2472C68.5535 45.2472 67.2349 44.2702 64.1683 41.9132V41.9088H64.1697Z" fill="#C7007B" fill-opacity="0.5"/>
<path d="M9.65187 10.4285C6.94383 9.29841 4.67822 8.33593 4.62183 8.28824C4.56544 8.24199 4.51773 8.14516 4.51773 8.07291C4.51773 7.87492 5.51824 5.77507 6.17031 4.59726C6.8513 3.3703 7.51349 2.30954 8.29423 1.18664C8.95064 0.245828 9.14149 0.0290527 9.30631 0.0290527C9.37282 0.0290527 11.2567 1.43376 13.492 3.14919C18.376 6.89798 18.1316 6.70143 18.1288 6.88786C18.1288 6.96879 17.8887 7.37633 17.5981 7.79109C16.8478 8.85908 16.3663 9.68139 15.6202 11.1627C15.013 12.3694 14.9581 12.4503 14.773 12.4662C14.6414 12.4764 12.9165 11.7899 9.64897 10.4271H9.65187V10.4285Z" fill="#E5001D" fill-opacity="0.5"/>
<path d="M63.0434 12.4344C62.987 12.3679 62.6921 11.8101 62.3913 11.1959C61.7841 9.95735 60.986 8.59888 60.3122 7.65374C60.0361 7.26643 59.8698 6.96583 59.8698 6.85455C59.8698 6.69703 60.3975 6.26926 64.1885 3.37023C67.3346 0.961123 68.5621 0.0578882 68.7139 0.0405461C68.9135 0.0159781 68.9539 0.0549962 69.4354 0.713997C70.848 2.65631 72.4008 5.37325 73.3435 7.55257C73.5531 8.03382 73.5604 8.08584 73.4664 8.22892C73.3898 8.34742 72.1406 8.89081 68.4118 10.4299C65.6878 11.5557 63.389 12.4936 63.3037 12.5153C63.1981 12.5428 63.1114 12.5153 63.042 12.4315V12.4344H63.0434Z" fill="#008663" fill-opacity="0.5"/>
<path d="M35.5698 38.6847C31.7181 38.3436 27.891 36.2582 25.303 33.0918C23.8962 31.3692 22.7453 28.9659 22.2335 26.6695C21.9197 25.2633 21.8402 24.4901 21.833 22.7747C21.8228 19.9335 22.2971 17.7787 23.448 15.4303C25.5589 11.1208 29.438 8.1293 34.4232 6.97027C36.164 6.56562 38.9198 6.41966 40.8904 6.62776C48.6097 7.44284 54.328 12.1729 55.7593 18.9334C56.0933 20.513 56.0846 20.2384 56.1107 29.226C56.128 35.1787 56.1136 37.7106 56.0615 37.8074C55.9892 37.9433 55.9299 37.9433 51.1283 37.9433C47.44 37.9433 46.2487 37.9231 46.1879 37.8624C46.1272 37.8017 46.107 36.1094 46.107 30.6697C46.107 26.2475 46.0795 23.2632 46.0347 22.7791C45.8988 21.2963 45.4911 19.8916 44.8838 18.8106C44.4905 18.1126 43.425 17.0244 42.7454 16.624C41.0321 15.6196 38.5106 15.3783 36.5717 16.0373C34.27 16.8191 32.5769 18.6357 32.0058 20.9321C31.8901 21.3989 31.8583 21.7313 31.8583 22.4741C31.8583 23.5349 31.9668 24.1939 32.2979 25.1072C33.041 27.1579 34.8801 28.8112 37.0691 29.3893C38.3038 29.7145 40.3237 29.6118 42.1136 29.1306C42.5401 29.015 42.9825 28.9182 43.0939 28.9138C43.4741 28.9008 43.4712 28.8748 43.4524 33.0803C43.438 36.6499 43.4279 36.923 43.3136 37.0487C43.1156 37.2655 41.7897 37.9144 41.0986 38.1341C40.3584 38.3682 39.6167 38.5214 38.7954 38.6153C37.9366 38.7136 36.2696 38.7511 35.5756 38.689L35.5712 38.6861L35.5698 38.6847Z" fill="white" fill-opacity="0.5"/>
</svg>
