<?xml version="1.0" encoding="UTF-8"?>
<svg id="Calque_6" data-name="Calque 6" xmlns="http://www.w3.org/2000/svg" viewBox="0 0 643.23 643.52">
  <defs>
    <style>
      .cls-1 {
        fill: #f4a901;
      }

      .cls-1, .cls-2, .cls-3, .cls-4, .cls-5, .cls-6, .cls-7 {
        stroke-width: 0px;
      }

      .cls-2 {
        fill: #c7007b;
      }

      .cls-3 {
        fill: #010101;
      }

      .cls-4 {
        fill: #e5001d;
      }

      .cls-5 {
        fill: #008663;
      }

      .cls-6 {
        fill: #a9c701;
      }

      .cls-7 {
        fill: #05aae7;
      }
    </style>
  </defs>
  <path id="path3414" class="cls-1" d="m537.68,358c-34.28-4.58-35.81-4.82-36.68-5.89-.67-.82-.84-1.54-.63-2.78.5-3.13,1.18-14.77,1.18-20.17s-.7-17.06-1.18-19.96c-.17-.99.02-1.78.58-2.46.77-.92,3.69-1.38,38.48-5.91,26.23-3.42,37.91-4.76,38.49-4.44,1.04.56,1.26,1.23,1.81,5.62,1.66,13.1,1.78,36.79.27,51.95-.84,8.42-1.09,8.95-4.41,8.88-1.18-.03-18.26-2.2-37.93-4.83h.02Z"/>
  <path id="path3412" class="cls-7" d="m112.55,483.45c-9.09-11.92-20.34-31.07-27.27-46.45-2.58-5.7-2.97-7.22-2.2-8.44.67-1.04,70.4-29.66,71.57-29.37.77.19,1.88,2.03,4.58,7.58,5.19,10.73,10.42,19.55,16.91,28.62,1.32,1.84,1.67,2.73,1.45,3.6-.41,1.66-59.4,46.78-61.48,47.03-1.32.15-1.67-.1-3.55-2.56h0v-.02Z"/>
  <path id="path3410" class="cls-6" d="m64.73,362.08c-2.49-2.77-3.47-38.72-1.54-57.14.73-6.98,1.11-8.3,2.51-8.74.87-.27,74.14,9.24,75.64,9.84,1.52.58,1.74,1.76,1.18,6.13-.67,5.16-.68,29.44-.03,34.84.53,4.41.1,5.86-1.86,6.32-1.47.34-72.96,9.6-74.17,9.6-.55,0-1.32-.38-1.72-.82h0v-.02Z"/>
  <path id="path3408" class="cls-2" d="m495.7,462.98c-25.33-19.47-30.01-23.24-30.13-24.32-.1-.94.58-2.29,2.63-5.17,6.2-8.71,11.94-18.58,16.63-28.54,2.02-4.29,2.82-5.55,3.69-5.76.8-.2,10.45,3.6,34.99,13.82,18.63,7.75,34.5,14.41,35.23,14.79,2.1,1.08,2.1,2.34.03,7.05-6.34,14.38-15.95,31.24-25.51,44.69-3.86,5.43-4.97,6.56-6.39,6.54-.85,0-9.97-6.76-31.18-23.07h0v-.03Z"/>
  <path id="path3406" class="cls-4" d="m118.63,245.15c-18.73-7.82-34.4-14.48-34.79-14.81-.39-.32-.72-.99-.72-1.49,0-1.37,6.92-15.9,11.43-24.05,4.71-8.49,9.29-15.83,14.69-23.6,4.54-6.51,5.86-8.01,7-8.01.46,0,13.49,9.72,28.95,21.59,33.78,25.94,32.09,24.58,32.07,25.87,0,.56-1.66,3.38-3.67,6.25-5.19,7.39-8.52,13.08-13.68,23.33-4.2,8.35-4.58,8.91-5.86,9.02-.91.07-12.84-4.68-35.44-14.11h.02Z"/>
  <path id="path3404" class="cls-5" d="m487.91,259.03c-.39-.46-2.43-4.32-4.51-8.57-4.2-8.57-9.72-17.97-14.38-24.51-1.91-2.68-3.06-4.76-3.06-5.53,0-1.09,3.65-4.05,29.87-24.11,21.76-16.67,30.25-22.92,31.3-23.04,1.38-.17,1.66.1,4.99,4.66,9.77,13.44,20.51,32.24,27.03,47.32,1.45,3.33,1.5,3.69.85,4.68-.53.82-9.17,4.58-34.96,15.23-18.84,7.79-34.74,14.28-35.33,14.43-.73.19-1.33,0-1.81-.58h0v.02Z"/>
  <path class="cls-3" d="m297.89,440.67c-26.64-2.36-53.11-16.79-71.01-38.7-9.73-11.92-17.69-28.55-21.23-44.44-2.17-9.73-2.72-15.08-2.77-26.95-.07-19.66,3.21-34.57,11.17-50.82,14.6-29.82,41.43-50.52,75.91-58.54,12.04-2.8,31.1-3.81,44.73-2.37,53.39,5.64,92.94,38.37,102.84,85.15,2.31,10.93,2.25,9.03,2.43,71.22.12,41.19.02,58.71-.34,59.38-.5.94-.91.94-34.12.94-25.51,0-33.75-.14-34.17-.56s-.56-12.13-.56-49.77c0-30.6-.19-51.25-.5-54.6-.94-10.26-3.76-19.98-7.96-27.46-2.72-4.83-10.09-12.36-14.79-15.13-11.85-6.95-29.29-8.62-42.7-4.06-15.92,5.41-27.63,17.98-31.58,33.87-.8,3.23-1.02,5.53-1.02,10.67,0,7.34.75,11.9,3.04,18.22,5.14,14.19,17.86,25.63,33,29.63,8.54,2.25,22.51,1.54,34.89-1.79,2.95-.8,6.01-1.47,6.78-1.5,2.63-.09,2.61-.27,2.48,28.83-.1,24.7-.17,26.59-.96,27.46-1.37,1.5-10.54,5.99-15.32,7.51-5.12,1.62-10.25,2.68-15.93,3.33-5.94.68-17.47.94-22.27.51h0l-.03-.02Z"/>
</svg>