<?xml version="1.0" encoding="UTF-8"?>
<svg id="Calque_2" data-name="Calque 2" xmlns="http://www.w3.org/2000/svg" viewBox="0 0 643.23 643.52">
  <defs>
    <style>
      .cls-1 {
        fill: #bfd9b7;
        stroke-width: 0px;
      }
    </style>
  </defs>
  <path class="cls-1" d="m535.69,594.02c-1.27-.94-1.17-1.46-3.25-4.08-10.69-12.62-21.03-16.44-30.68-22.15-8-5.18-9.25-7.89-14.97-9.47-12.08-1.95-9-1.33-4.6-15.5,3.26-10.24,2.7-9.68-4.77-10.46-4.04-1.63-3.38-6.98-6.95-15.33-1.82-4.26-4.74-11.12-11.18-15.33-5.03-3.3-7.62-1.98-9.28-4.78-3.05-4.52,5.85-13.98,3.49-22.3-.25-1.33-.97-4.52-3.16-8.26-2.43-4.16-3.2-3.06-4.12-5.59-1.11-3.06-.29-5.02-1.24-9.3-.2-2.37-3.56-6.93-4.94-8.14-2.92-5.84.13-14.06-.85-20.61.17-8.27-4.31-11.59-7.67-21.64-10.1-31.03-9.81-117.64-9.32-142.69.97-12.37-1.96-8.83-10.83-16.76-6.85-6.82-11.18-10.8-2.14-16.9,11.9-11.84,11.84-5.59,12.47-27.6.15-16.57,1.5-23.87-6.94-30.83-3.07-1.39-5.14.35-10.35-1.2-6.68-.92-10.06-7.28-4.2-12.02,7.18-4.07,13.32.54,22.66-8.87,3.35-4.11,2.92-9.27,2.25-17.22-.67-11.33-3.7-19.97-16.49-26.59-22.07-13.92-17.26-14.5-40.94-12.36-27.87,2.27-16.6,4.58-28.43,15.51-.55.26-4.31,1.95-7.57.36-5.51-4.64-4.18-9.77-14.56-10.34-11.05-1.71-12.33-5.74-21.87-7.7-6.03-1.22-8.53-.23-21.04,1.09-19.34,2.04-20.28.05-29.81,1.81-14.93,3.32-34.75,9.73-44.36,18.14-13.77,10.97-10.43,22.62-3.72,37.52,8.47,25.04-13.15,31.85,18.14,46.27,1.61,1.17,5.64,4.14,6.62,9.02,1.06,9.29-2.79,10.51-7.34,1.92-4.48-8.74-6.41-10.83-13.22-6.25-3.15,2.5-4.28,6.68-4.2,21.16-.92,8.49,2.93,33.23-1.78,42.84-1.46,2.15-3.67,3.98-3.87,7.29-.98,6.92,7.73,6.49,12.13,1.93,1.65-1.67.99-3.66,2.65-4.57,1.27-.7,3.39-.7,4.57.36,2.87,2.57-2.74,8.7-.24,15.63,1.74,4.83,5.7,5.27,5.41,8.29.91,4.59-24.49,12.57-25,15.74-1.84,2.84-1.56,5.67-1.33,10.11,0,0,.79,15.33-.36,27.77-1.01,10.89-4.06,9.22-5.41,20.56-1.92,16.08,3.39,18.97,1.08,32.69-2.09,12.4-6.66,11.39-8.18,24.4-1.06,9.09.91,11.84-.72,23.21-1.16,8.16-2.28,7.56-3.84,16.47-3.04,17.4,1.31,19.42-2.76,27.28-3.34,6.44-8.04,8.55-9.63,16.83-2.37,10.22,5.92,10.06,11.55,6.02,3.33-3.05,2.85-7.97,3.61-7.94,5.06,6.45-2.1,16.78-10.35,22.36-3.02,2.51-3.76,2.78-3.96,3.97-.57,3.48,5.12,5.47,7.81,12.98,2.69,6.17-2.62,9.98-7.33,8.9-4.73-2.62-4.12-13.01-12.63-9.86-4.37,1.31-7.07,9.08-8.53,13.19-2.51,7.91-6.97,13.8-9.01,16.5-3.61,5.28-31.53,23.04-30.57,36.79,12.23,15.19,62.68-5.38,87.42-2.76,24.56,1.32,13.66-2.07,51.16,9.25,5.61,1.83,11.19,3.85,18.84,3.43,6.89-.39,11.42-2.54,14.97-3.88,11.86-4.49,19.21-2.44,39.76-2.34,16.99-.05,16.41-1.15,31.44-1.9,12.71-1.31,17.69.56,29.51,2.8,19.72,3.04,30.16,3.83,45.98,1.77,14.36-2.78,10.45-.35,21.01-10.61,11.89-12.51,8.68-6.15,18.39,1.53,3.93,3.45,22.37,2.44,29.12,2.44,21.05-.66,31.58-.98,36.7-.46,2.2.23,8.03.91,13.43-2.15,6.21-3.41,4.38-6.74-1.68-9.39Zm-139.6-267.5c3.37,6.19,3.02,10.14,3.39,32.6.39,22.5.82,23.85-.86,27.81-10.9,15.61-22.16,21.47-51.31,37.23-10.24,6.09-13.01-6.73-6.04-13.43,13.27-13.39,21.84-10.31,27.92-31.4,1.59-5.28.16-4.02,1.83-19.09,1.25-11.19,2.87-19.31-.9-23.26-4.86-4.35-3.85-9.17-7.3-16.05-4.91-12.39-4.07-12.05,1.78-15.44,10.77-2.76,25.34,10.92,31.49,21.03Zm-34.8-158.68c5.22-.37,5.06,9.36.51,9.43-3.57-.36-4.49-8.39-.51-9.43Zm-77.93,151.74c31.97-24.96,73.11-2.6,68.88,37.14-.13,9.27-.24,17.1-6.13,22.97-14.62,11.81-30.26,5.32-37.5-6.98-6.13-8.13-2.69-24.81,11.17-25.13,7.17-.35,13.34,9.05,17.8,9.27,3.33-2.44,3.31-5.1-.6-9.62-17.34-17.96-47.36-5.1-39.92,16.7,3.8,11.43,8.28,12.57,13.65,22.55,2.13,6.18,6.02,6.8,10.16,10.63,2.7,2.88,5.02,7.77,3.36,9.99-1.11,1.47-4.07,1.82-5.89.83-1.31-.71-1.08-1.59-2.4-2.28-4.78-1.01-4.34,1.85-9.5-3.13-11.07-8.21-18.06-5.84-30.17-15.27-5.67-5.23-5.9-13.42-6.01-22.24-.22-16.1-.45-33.29,13.1-45.43Zm-28.61-103.27c7.28.21,5.76,12.77.66,13.88-4.36.86-6.96-4.77-5.17-8.11.24-.87,1.55-5.5,4.51-5.77Zm-5.84-22c5.37.53,1.23,9.77-2.27,9.44-4.74-1.1-3.55-10.37,2.27-9.44Zm-34.58,109.4c1.3-.07,1.49.58,4.14,1.39,4.11.51,4.97,2.38,3.32,5.44-3.56,4.97-17.67-4.52-7.46-6.83Zm71.14,231.72c-3.98,16.38-7.84,15.54-10.82,29.75-1,14.23-8.69,11.96-17.61,20.65-4.82,5.14-36.37,1.71-40.64-2.8-9.59-6.11-9.08-14.76,1.09-18.76,7.77-3.41,11.22,1.35,18.38-.9,8.44-2.64,15.07-12.99,15.87-21.82-1.06-12.71,1-10.84,5.41-22.35.34-6.76,4.74-14.32,8.3-17.14,4.31-4.61,1.22-2.84,12.98-19.66,10.03-14.05,16.7-22.06,12.08-33.71-2.21-3.8-6.24-5.21-7.75-5.77-12.82-4.85-25.81-18.2-33.36-25.97-14.99-13.22-25.04-36.86-18.75-62.93,1.46-12.87,8.54-34.29,19.29-36.25,5.26,3.98,3.1,13.49,3.24,19.3.31,5.43,2,5.69,4.15,14.78,2.75,9.84,1.7,20.27,3.43,26.69.92,2.98,2.42,5.34,5.41,9.92,9.72,13.94,7.67,15.53,23.08,20.38,4.78,1.01,5.22-.11,11.72.9,1.08.17.81.16,12.08,3.06,4.79,1.24,5.82,1.51,7.22,2.53,12.14,12.88,9.64,43.67,5.41,59.32-2.78,5.73-5.87,4.98-12.63,13.16-5.93,7.21-5.13,8.17-11.9,16.95-12.27,14.95-12.72,12.93-15.68,30.67Zm125.8,43.69c-7.37,3.38-15.29,3.74-31.14,4.44-7.48,1.74-17.01-5.49-19.12-11.66-5.93-11.24-8.98-24.37-14.06-44.41-2.21-7.74-5.7-15.27-19.11-14.85-3.74.56-16.53,11.06-22.48,7.09-3.94-6.96,16.1-35.42,18.57-36.06,3.1-1.55,4.52-.8,16.23-.6,12.57.2,13.84-.62,17.37.96,5.89,2.64,8.81,7.85,10.82,11.42,6.96,10.54,4.31,28.86,7.94,39.91,3.06,6.49,16.98,23.45,22.48,24.17,5.39,2.73,22.46-5.15,25.84-3.01,8.79,9.33-5.73,20.17-13.34,22.6Zm6.04-97.41c-1.13-3.67,2.14-10.62,5.6-11.18.25-.75,4.87,7.01,4.7,7.01,5.69,9.39-8.27,12.21-10.3,4.17Z"/>
  <path class="cls-1" d="m135.79,166.3c1.38,2.9,3.71,7.71,8.48,12.44,4.66,4.63,9.87,7.43,10.82,7.93,6.46,3.42,9.57,3.07,12.08,6.67,6.29,8.72-2.82,12.9-11,10.64-5.7-1.24-7.06-4.51-14.43-8.84-5.31-3.12-7.74-3.3-12.08-5.23-9.29-4.14-20.23-13.17-24.71-24.88-1.48-3.88-1.25-12.2-.72-28.67.47-14.8.74-22.28,2.34-26.15-.95-3.49,33.2-35.7,38.41-38.23,5.88-3.83,7.18-3.61,12.26-7.57,4.21-3.28,6.21-5.69,10.64-6.85,3.05-.8,3.8-.11,7.21-.9,4.89-1.14,7.89-3.64,9.92-5.05,8.5-5.92,11.56-1.04,22.54-6.49,5.59-2.78,6.34-4.64,11.54-5.95,3.62-.92,5.65-.62,9.2-2.34,7.85-5.86,9.31-7.14,20.56-5.05,15.05,1.18,11.14,7.24,18.39,12.26,4.69,1.67,11.53-2.35,14.07-7.39,1.58-3.15.45-4.64,1.57-7.04,2.76-5.88,13.87-6.06,24.57-6.12,21.78-.12,32.66-.91,40.75.54,10.52,1.96,38.09,11.52,53.38,14.61,21.87,2.52,6.07,12.99,23.26,10.46,8.37-.38,4.94,1.88,7.39,6.67,1.01,1.21,2.31,1.28,11.18,1.98,5.69.45,6.31.51,7.39,1.08,2.6,1.37,2.91,3.05,5.95,4.69,6.28,2.63,13.42,1.92,18.75,12.44.87,2.75.31,5.12,2.16,6.31,1.16.75,2.23.29,3.61.36,4.6-1.12,18.14,20.17,18.21,20.74,1.95,7.05-1.48,11.29,1.44,14.06,2.44,2.32,5.49,0,8.84,1.98,3.98,2.36,4.35,8.44,4.69,17.49.62,16.51.92,24.77.54,26.51-5.2,23.76-41.54,58.53-66,48.15-5.46-3.75-5.54-10.85,1.98-13.53,4.77-2.24,7.06-.4,11.36-2.34,2.56-1.16,3.42-2.56,7.03-6.67,5.87-6.67,7.92-7.88,10.82-11.18,22.92-24.72,9.96-55.91-10.1-72.85-10.1-9.13-39.56-28.72-52.29-30.84-11.32-2.21-13.52,1.21-26.51-1.62-7.63-1.67-11.13-6.57-20.56-7.57-7.63.18-24.55.15-33.72.72-11.11,1.61-9.08-1.74-15.69-6.85-28.93-5.94,3.72,12.53-45.44,7.75-16.39-2.46-32.77-1.93-47.42,4.87-13.59,2.57-18.16-1.77-27.59,2.16-1.74.72-.48.42-14.25,10.46-10.36,7.55-14.61,10.32-18.03,8.84-1.92-.94-9.77-11.58-13.52-9.92-2.28.94-1.2,5.41-2.88,11.36-1.45,5.13-3.87,5.05-8.48,11.72-4.96,6.09-10.68,25.47-12.62,34.26-1.54,12.52,2.99,22.39,4.69,25.97Z"/>
</svg>