<?xml version="1.0" encoding="UTF-8"?>
<svg id="Calque_5" data-name="Calque 5" xmlns="http://www.w3.org/2000/svg" viewBox="0 0 643.23 643.52">
  <defs>
    <style>
      .cls-1 {
        fill: #9569ec;
        stroke-width: 0px;
      }
    </style>
  </defs>
  <path class="cls-1" d="m298.98,35.37c5.91-5.62,51.18-3.82,51.65-.98,16.41,14.28,8.74,17.64,10.16,37.82.84,17.44,4.94,13.98,18.44,21.14,2.11-.46,17.39,22.52,21.19,23.71,6.05,1.94,11.92-.18,17.94,6.03,6.07,6.15,1.07,14.18,4.43,28.17,3.61,15.28,5.49,14.34,17.54,21.94,5.41,9.45.75,24.04,1.76,34.92-.58,17.18,1.31,22.15-2.35,31.4-5.75,12.13-9.85,23.24-17.9,32.97-8.04,13.1-8.84-10.12-8.45-25.24.93-15.28,5.24-29.6.72-36-5.74-8.5-5.62-6.89-8.8-12.13-3.98-9.72-.78-24.43-3.23-28.27-1.49-4.32-4.45-8.78-6.16-8.38-1.85.44-.14,6.12-3.13,13.86-2.37,5.58-11.94,17.24-10.68,23.78,1.46,7.47,12.13,6.56,17.92,16.62,8.62,17.31-2.04,48.02-13.69,62.22-8.17,11.5-23.06,15.01-26.55-1.24.1-9.34,11.12-14.86,16.18-19.2,8.23-17.23-11.9-20.02-18.66-30.24-3.88-6.72,1.56-10.37.27-20.53-.77-6.07-3.34-13.32-7.63-14.09-4.94-1.05-8.86,5.58-7.83,9,.16,35.32,2.47,53.8-4.01,82.08-6.1,18.32-11.09,28.52-14.97.49-.41-9.26,2.12-24.61,3.42-29.74,2.21-10.11-5.95-7.81-9.11-14.53-13.58-26.26,2.64-31.54-7.32-49.35-13.27-13.87-24.38,5.37-17.71,19.47,3.93,6.53,8.46,10.82,4.3,20.54-1.43,3.06-14.41,10.39-16.63,13.5-4.46,3.51,18.52,35.61,17.81,42.85.48,10.58-4.59,12.27-16.83,6.06-15.44-6.02-12.8-7.79-18.39-25.04-4.27-10.69-14.26-27.42-13.7-38.74,1.43-13.88,7.12-17.77,9.98-26.02,3.21-14.76-12.52-21.08-20.15-7.83-1.36,2.72-.72,4.57-.78,8.61-1.65,16.67-15.8,38.53-2.72,47.38,5.9,2.65,15.3,24.13,2.14,26.38-11.94-.13-17.69-12.98-27-27-28.24-36.15,7-52.34,20.55-84.13,4.55-15.84,17.26-54.7,34.43-55.66,1.68.36,2.95,1.48,11.74,16.63,8.31,16.4,9.32,9.82,9.49-1.86.1-11.24-2.53-13.09-1.96-21.72,1.91-17.12,5.25-15.45,9.1-30.13.53-.69,1.07-10.64-2.15-11.93-.88-.31-2.44-.29-2.82-1.57-1.29-6.84.85-21.07,10.16-26.02Z"/>
  <path class="cls-1" d="m552.19,522.22c-1.11-5.63-6.12-6.72-8.35-13.44-2.92-8.13,4-27.99,5.09-34.69,2.75-11.78.73-40.85-6.2-46.51-5.31.77-14.44,21.69-16.3,26.1-2.05-1.04-7.25,50.74-11.55,50.28-9.86,10.96-46.71,2.36-57.13,6.06-4.18,1.23-13.28,4.02-18.97,12.13-8.63,12.01-2.87,26.31-15.59,12.46-6.23-5.85-7.79-6.63-8.22-9-1.84-9.33,19.32-21.4,22.44-21.26,6.95-2.27,9.53-1.76,31.69-3.72,15.68-1.38,17.49-1.81,19.96-2.93,15.64-7.96,27.92-30.17,26.61-50.29-1.06-10.01-8.05-11.12-10.18-23.47-1.57-7.75,2.04-36.77,2.35-46.5.84-12.99,1.25-19.64.39-27.26-.1-.92-2.64-22.72-7.24-22.9-2.91-.11-3.32,8.68-12.11,25.05-.41.77-.65,1.2-.91,1.59-.98,1.48-1.87,2.46-2.01,2.61-1.7,1.87-6.81,18.66-10.33,26.51-1.88,4.19-3.95,8.64-7.43,9-2.37.25-4.73-1.47-6-3.26-2.56-3.61-1.3-8.37-.72-11.41,1.35-7.04-.64-6.17-1.24-23.8-.5-14.72.9-15.09,1.05-33.72.14-17.65.14-30.65-4.32-31.99-1.73-.52-4.17.86-7.62,4.99-8.96,8.78-10.8,24.36-12.98,39.85-7.07,23.49-14.87,41.1-9.91,64.63,2.68,20.52,7.49,28.32,2.35,35.02-2.67,5.01-14.66,8.07-19.76.98-3.6-4.45-2.3-10.68,0-20.94,4.99-18.61,14.46-36.31-.85-51-6.98-12.19,3.62-21.53.45-41.54-3.23-24.08-19.06-31.48-23.15-5.94-1.64,11.23-.59,14.95-1.17,26.61-.72,14.41-1.08,21.62-4.04,27.46-.76.31-5.41,14.53-4.05,17.93.22,3.77,1.34,6.62,2.22,8.48,10.13,17.55,2.31,32.98,1.63,50.87-.55,7.52,2.1,10.64,5.02,16.31.51,2.41-.03,5.79-2.28,7.56.77,1.06-15.11,1.53-15.16.55-2.5-2.65,3.09-9.42,2.25-19.14-1.95-10.25-6.75-17.92-4.5-31.5,1.13-7.36,3.04-6.55,3.26-12.52-.55-12.97-1.53-17.88-2.68-34.43-.17-12.21-1.63-40.6-4.3-46.18-1.64-5.94-5.54-18.26-11.02-11.08-3.38,4.18-1.15,8.61-1.44,18.26-.07,2.3-.41,9.13-3,17.09-1.08,5.53-6.58,13.34-9.2,18.49-2.89,8.38-5.58,21.27-1.17,29.83,5.11,6.54,13.12,14.68,6.05,22.92-7.53,7.99-12.41,22.1-9.52,38.67,2.04,5.91,3.63,13.54,5.23,20.98,3.05,6.99,3.8,10.51,2.74,17.61.35,16.21,6.36,18.03,13.31,28.36,3.92,7.79,1.82,12.11,5.86,14.91,3.67,4.1,24.62-2.29,25.57-.04,2.3,7.96-12.64,19.39-10.89,22.9,1.47,13.91,15.89,17.64,33.46,18.19,21.54-.28,35.82-.47,49.3-9.91,11.39-7.98,10.34-14.25,21.81-18.56,23.51-9.19,49.28,5.03,69.36-19.66,2-2.97,5.06-7.54,4.05-12.65Zm-97.37-102.98c-.08-1.21-.32-4.87,1.37-8.93.84-2.02,3-7.22,8.09-8.48,4.76-1.18,8.83,1.91,9.39,2.35,2.13,1.67,3.13,3.85,5.13,8.21,1.2,2.63,2.24,5.03,2.44,6.37,1.2,8.15-.43,13.67-1.47,22.31-1.65,12.95.14,25.89-8.9,32.28-4.08-2.6-6.62-5.29-8.02-6.95-6.93-8.23-5.92-15.08-8.02-47.15Zm-51.8,42.84c1.63-6.27,5.62-.77,12.67,1.08,9.12,1.72,15.65-1.73,11.44,7.05-6.39,8.49-23.58.27-24.11-8.13Z"/>
  <path class="cls-1" d="m292.1,332.31c-4.86-3.18-17.56,3.22-20.35,12.26-2.39,4.56,3.2,22.14,2.74,27.13-3.03,10.77-19.38,27.11-5.61,42.13,2.35,2.41,3.32,2.09,4.17,3.65,2.35,4.33-2.64,11.31-3.39,12.39-2.61,3.77-4.08,3.1-5.61,6-4.44,6.99,5.15,23.69,5.22,31.04-.14,15.06-11.19,18.43-15.39,5.22-1.86-5.84-.2-6.91,1.17-17.87,1.35-9.58,1.49-16.2,1.57-18.39.61-17.04-3.14-17.81-1.17-27.39,1.59-7.75,4.1-8.27,7.04-19.17,6.32-19.91,1.65-21.22-7.44-42.65-2.03-6.32-.84-5.81-5.09-32.87-2.2-14.03-3.07-17.62-5.09-18-4.45-.83-10.7,14.59-11.74,17.22-2.73,6.91-4.98,15.44-5.87,31.3-.68,12.09,0,18.36.78,39.13.57,14.94,3.08,19.04.78,27.39-4.14,11.73-14.71,28.44-6.65,41.87,2.92,4.06,5.96,3.77,7.04,7.43,3.5,14.54-24.04,24.85-29.87,15.39-.69-1.67.8-2.69,5.22-10.69,5.89-10.92,8.87-18.74,7.04-25.83-1.74-4.1-5.24-4.17-7.83-7.04-2.07-2.3-4.24-7.3,2.74-30.13,3.66-11.97,6.13-12.19,6.65-19.17.56-27.95-21.52-42.01-13.3-72.78,10.92-42.22-32.36-19.54-25.43,33.26,2.72,18.15.04,20.95-7.83,36-3.58,12.92,7.04,18.78,5.22,35.09-.7,6.31-2.29,5.43-4.04,15.78-3.04,14.27-1.31,18.8,4.7,30.52,1.35,7.41-3.15,16.96-9.39,18-15.56.25-8.24-18.03-3.13-24.26,4.36-5.82-4.61-59.12-1.56-62.22,5.2-13.09,5.12-23.12-4.68-35.02-5.92-9.77,2.53-19.6-3.54-29.93-5.94-11.25-16.25,3.56-18.91,15.39-1.08,5.46-.05,8.57-2.74,14.48-2.96,4.89-7.07,13.17-9.65,18.91-9.08,12.62-4.66,21.65-.78,33.78,3.75,16.23-2.8,21.72-4.7,33.65-.21,6.1,2.37,6.7,5.09,16.04,4,13.73.06,18.08,4.3,27.78,1.85,4.24,4.6,10.92,10.96,13.7,5.25,1.9,27.03-2.03,37.57.13,23.42,5.17,43.15,3.59,47.35,26.48,1.91,24.2-9.31,19.61-17.48,4.43-5.25-8.7-4.08-12.62-8.87-16.3-9.06-4.65-25.93-5.44-37.96-1.44-35.53,18.94-34.11-16.76-41.35-42.26-8.72-30.72-37.34-61.92-30.13-9,1.61,10.16,3,18.95,9.13,27.91,6.06,6.63,9.3,16.41,3,22.57-3.06,3.21-5.69,2.35-7.43,4.7-2.8,3.77.24,11.01,2.74,14.87,5.89,9.08,16.55,11.37,20.35,12.13,8.07,1.61,9.75-.58,18.78-.39,3.57-1.64,38.27,7.71,47.61,25.04,4.18,10.2,13.29,13.63,20.74,14.22,15.85,2.86,21.62-2.32,24.39-15.39-.84,11.74,8.17,15.47,20.74,12.91,7.05-1.69,11.71-7.02,20.74-17.61,14.16-17.67,15.55-19.4,6.26-26.61-4.19-1.99-7.49.43-11.87-2.22-6.5-4.49-4.48-6.54,9.52-16.17,21.76-14.31,20.76-3.32,24.13-31.83,2.58-24.46,2.5-31.92,3.39-42.26.34-.36.54-11.53.26-15.52-.52-5.33-1.85-6.12-1.64-9.47,1.06-9.96,11.64-20.46,9.39-30.87-2.15-4.08-4.67-6.01-7.23-14.18-2.71-.87,3.69-36.51-3.78-42.39Z"/>
</svg>