<?xml version="1.0" encoding="UTF-8"?>
<svg id="Calque_9" data-name="Calque 9" xmlns="http://www.w3.org/2000/svg" viewBox="0 0 643.23 643.52">
  <defs>
    <style>
      .cls-1 {
        fill: #aadc19;
        stroke-width: 0px;
      }
    </style>
  </defs>
  <path class="cls-1" d="m99.44,161.97l13.28-19.9c1.14-1.88,3.19-3.02,5.36-3.02h63.68c4.85,0,7.81,5.3,5.3,9.41l-12.83,19.21c-1.43,2.28-3.88,3.71-6.56,3.71h-62.94c-4.85,0-7.81-5.3-5.3-9.41Z"/>
  <path class="cls-1" d="m580.62,205.75c-4.96-4.96-11.06-5.07-12.26-5.07h-80.67l-53.42-87.17c-3.02-4.96-8.44-7.98-14.25-7.98h-162.03c-5.59,0-10.83,2.79-13.91,7.47l-58.44,87.68h-75.14c-9.58,0-17.27,7.75-17.27,17.27v278.85c0,9.58,7.7,17.33,17.27,17.33h457.86c9.58,0,17.33-7.75,17.33-17.33V217.95c0-4.79-1.94-9.12-5.07-12.2Zm-243.1,261.74c-65.39.74-118.93-51.71-119.67-117.05-.68-65.39,51.71-118.98,117.1-119.67,65.39-.68,118.93,51.71,119.67,117.1.68,65.34-51.71,118.93-117.1,119.61Z"/>
  <path class="cls-1" d="m420.42,350.22c0,46.35-37.74,83.92-84.32,83.92s-84.38-37.57-84.38-83.92,37.8-83.98,84.38-83.98,84.32,37.63,84.32,83.98Z"/>
</svg>