<?xml version="1.0" encoding="UTF-8"?>
<svg id="Calque_6" data-name="Calque 6" xmlns="http://www.w3.org/2000/svg" viewBox="0 0 643.23 643.52">
  <defs>
    <style>
      .cls-1 {
        fill: #65d9c9;
        stroke-width: 0px;
      }
    </style>
  </defs>
  <path class="cls-1" d="m312.34,32.54c-3.7-1.28-7.65,26.7-8.85,28.98-6.23,11.18-7.55,13.98-7.55,26.77-1.1,9.18-4.15,8.91-7.78,20.82-4.14,13.57-.46,14.79-4.81,25.17-3.68,8.79-7.19,9.62-8.47,17.39-1.19,7.26.35,15.64,3.66,16.53,3.47,1.41,10.62-8.08,11.89-8.07,1.47.5-.67,5.99,2.52,10.3,2.91,4.48,7.69,3.35,9.84,5.26,2.43,5.73-4.52,7.75-7.55,5.49-2.7-1.73-4.23-4.89-8.47-5.95-4.28-.81-10.53,4.12-10.53,8.69,0,4.72,6.67,5.98,7.09,11.44.29,3.67-2.49,6.2-4.12,8.47-5.97,8.32-1.75,20.69,1.83,34.09,4.1,12.34,11.23,52.26,10.52,85.96.35-.72-.14,35.87-6.63,43.32-5.54,5.53-.43,7.35.23,11.67-.71,2.94-7.19,1.9-9.61,5.49-2.13,3.15-1.78,8.87,1.6,11.44,1.7,1.3,3.13.11,5.26,1.37,22.43,47.05,98.93-7.02,63.84-21.97-18.99-15.07-2.12-30.73-14.42-32.34,1.34-4.34,7.36-6.65,3.2-14.19-2.49-4.28-6.78-3.28-9.84-7.93-5.78-11,3.56-.79,9.16-2.23,5.88-.81,6.81-42.3,6.86-55.2.15-1.63.65-6.67-1.83-8.19-2.77-1.19-8.51,1.09-9.11-5,.3-4.03,12.82-5.88,15.29-17.7,4.43-11.01,1.17-15.45,3.89-31.8,2.89-13.31,6.69-25.54,4.8-39.58-1.02-7.14-2.5-6.69-8.47-24.71-5.47-15.88-7.26-26.52-10.98-35.24-4.23-7.15-5.52-13.52-5.26-21.51-.8-10.49-4.86-10.52-5.95-20.59-.26-8.51,1.66-29.19-11.29-26.47Z"/>
  <path class="cls-1" d="m218.83,442.04c13.97-15,24.55,9.2,8.92,21.51-4.12,4.92-22.21,8.68-17.16-6.18-.88-2.15-5.4-.12-10.3-1.83-16.21-7.87-10.8-22.32,2.29-31.12,9.59-6.69,9.63-20.11,15.79-29.29,12.12,1.4,13.96,15.72,21.97,23.34,4.13,5.47,15.99,10.1,21.28,4.81,2.5-3.04-.97-6.62,1.37-10.07,5.68-6.86,19.33-2.67,24.94,4.81,7.16,5.86,15.39,6.86,23,7.78,18.69,4.38,26.34-5.26,41.07-13.5,4.74-2.51,17.98-3.12,14.64,7.78-1.79,4.49-7.98,5.07-7.78,5.95,1.55,2.85,22.53-1,28.49-9.15,8.36-7.07,8.03-27.7,21.62-24.25,4.76,4.46,4.75,9.23,11.67,16.7,16.27,21.52,19.82,14.65,18.31,38.21-.68,8-16.19,27.98-35.47,19.45-14.85-6.67-21.44-33.34-2.29-30.66,3.68,1.38,4.58,5.59,7.78,6.18,5.15.38,7.82-2.38,8.24-6.41-2.01-6.71-18.73-8.81-23.34-5.95-3.1,1.77-2.64,3.68-8.24,9.61-5.78,4.37-5.83,8.86-3.66,14.3,2.28,6.62,5.34,7.19,5.26,10.87-.08,3.71-3.29,7.77-6.86,8.47-8.33,1.26-14.22-11.74-18.53-15.33.06-1.08-18.83,1.69-26.08-.23-4.85-.86-2.06-7.01-6.18-10.75-3.12-3.97-28.28-4.54-31.58,0-5.5,5.35-6.67,18.42-16.07,13.28-2.16-1.58-1.16-3.62-3.15-5.05-1.31-1.9-12.54.83-15.1,2.06-4.68,3.37-5.73,13.89-13.61,16.02-9.88,2.36-16.9-6.87-10.52-14.07,17-11.36-5.39-32.93-18.88-30.32-11.04-1.26-14.77,17.48-1.83,13.04Z"/>
  <path class="cls-1" d="m313.45,447.3c-20.11,2.88-8.58,33.09,8.81,21.51,4-6.32,1.83-8.52-1.49-15.33-1.61-4.34-4.22-6.27-7.32-6.18Z"/>
  <path class="cls-1" d="m309.21,476.24c9.54.16,12.03-3.28,18.65-6.06,24.28-7.74,8.82,18.57,3.09,26.43-2.35,5.93-.79,11.18.23,16.36.61,2.7.12,48.49.68,60.86.11.94.85,7.34-1.44,14.73-4.36,10.34-3.95,7.97-15.49,8.49-11.5-.07-11.54.32-12.81-.34-9.24-6.74-6.76-17.23-6.56-26.92-2.1-12.96,6.32-16.21,9.08-23.19-.85-3.74-8.78-3.27-9.73-7.21-.82-3.42,4.67-5.79,4.12-10.41-.31-2.64-2.28-3.42-4-5.72-5.73-7.67,3.36-16.09-.46-28.14-2.48-7.84-7.85-9.11-7.21-15.56.36-3.56,2.5-8.25,6.06-9.27,4.82-1.37,7.25,5.39,15.79,5.95Z"/>
  <path class="cls-1" d="m294.03,607.31c9.12-6.83,18.49-2.05,28.07-2.29,6.41-.52,7.62-2.6,10.53-1.37,10.77,5.93,4.99,22.33-4.27,23.95-2.63.88-3.62.38-12.35,0-10.21-.45-9.7.19-12.66-.46-9.54-1.38-21.31-9.84-9.3-19.83Z"/>
  <path class="cls-1" d="m538.48,167.46c-2.22-3.34-7.37-2.88-18.38-2.65-19.6.4-17.51-.82-26.69.14-15.33,2.99-16.91.25-29.28-4.12-9.65-1.84-12.95,2.78-18.77-.23-5.87-3.03-7.8-10.46-8.23-12.12-2.19-8.42,2.39-12.13-1.15-18.54-2.65-3.18-4.71-8.88-5.26-13.73-5.38-14.15-15.76-16.59-11.67-31.81,2.69-5.81,5.08-6.88,9.38-11.2,4.21-4.18,6.84-9.48,8.93-12.6,4.83-5.11,10.92-5.58,13.95-13.04,4.12-6.22,8.79-7.68,13-11.18,8.1-6.75,10.82-18.06,9.19-19.25-1.02-.74-3.15,2.81-11.44,7.89-8.01,4.01-10.17,6.48-12.82,13.61-8.85,8.35-10.93,7.26-22.2,17.62-12.53,10.42-13.46,11.39-16.48,12.35-1.84.6-8.4,2.69-14.86,0-7.02-2.9-5.65-7.99-13.73-12.35-5.01-2.71-6.51-1.27-13.96-5.04-7.78-4.55-13.26-8.64-23.33-8-11.03-.95-3.2,21.54.46,25.17,3.27,4.72,23.83,8.58,25.86,10.98,5.36,4.32,8.17,12.62,5.48,16.48-1.78,2.26-14.09,6.21-16.24,5.48-4.74-.87-6.54-5.17-8.23-4.35-4.3,5.72,3.15,12.76,5.94,17.62,2.09,4.7.13,7.37.47,12.58.54,8.42,6.49,9.55,11.2,19.21,5.17,12.96,8.26,36.92,0,46.45-7.22,6.07-7.96,4.56-10.9,17.69-7.84,28.16,6.44,18.96,12.74,31.27,4.29,12.74-14.75,17.28-19.9,22.89-.13.41.16,2.56.76,6.86.22,7.73,3.86,7.72,8.62,8.92,10.12,1.86,19.82-5.06,21.05-5.95,9.45-9.66,17.65-5.38,24.25,3.43,16.44,11.26,44.17,46.38,60.64,49.66-3.2-12.68-27.6-41.86-31.35-46.91-16.38-13.48-20.62-25.25-16.7-41.49,7.26-10.02,13.86-12.84,16.24-28.52,2.75-7.94,7.86-8.32,7.78-13.73-6.72-35.32,110.32-2.03,95.64-29.52Zm-122.24,25.48c-3.33,5.6-6.22,6.06-9.65,13.46-2.55,6.62-7.8,16-12.48,21.24-4.79.15-15.43-9.27-14.19-15.1,2.32-4.22,5.66-4.96,9.61-13.27,7.15-18.75,4.77-45.98-.47-60.4-3.31-5.01-7.06-25.81,6.64-25.17,15.07-.64,11.92,4.1,19.45,26.08,5.67,13.57,8.23,40.88,1.08,53.16Z"/>
  <path class="cls-1" d="m273.74,73.66c7.72-1.99,29.26-32.97,5.26-32.96-9.44,4.51-20.45,9.06-26.99,12.13-11.07,6.43-11.3,12.3-20.14,14.42-11.33,1.12-10.89,1.22-21.51-4.12-7.99-5.26-6.14-9.85-13.5-15.11-6.32-4.5-8.96-2.07-13.05-6.63-4.25-4.74-3.27-9.48-7.32-11.67-10.72-4.78-13.12,4.28-6.63,11.44,3.18,3.92,7.48,2.03,9.84,5.73,2.33,7.75,1.22,6.21,8.92,10.98.91-.22,9.13,11.64,11.67,13.73,9.99,7.87,10.65,17.24,9.38,23.33-1.46,7.27-4.97,6.76-8.92,18.08-.98,4.26-6.06,16.59-7.32,19.45-2.84,9.4,2.01,12.84-1.15,19.45-2.8,5.87-8.98,8.1-9.38,8.23-6.68,2.3-8.93-2.41-16.93-.46-9.59,4.55-19.89,7.7-30.66,4.12-3.4-.55-8.88.08-19.67,1.38-6.14.74-8.76-.57-10.53,1.37-1.92,2.11-2.15,6.1-.69,8.7,10,12.07,70.03-7.39,82.83,13.26.49,8.75-.57,11.12,5.48,19.92,5.36,10.15,2.23,13.76,7.1,20.82,3.75,5.45,6.83,4.25,9.84,8.47,3.78,5.29,4.56,17.02-.46,25.86-3.01,5.3-4.32,3.29-12.13,13.27-5.08,10.48-29.97,26.71-22.2,37.75,4.14,2.8,16.28-7.05,22.43-13.27,6.39-7.68,12.57-11.48,21.05-18.99,9.12-8.05,7.27-13.99,21.51-14.64,4.29.82,4.06,4.02,10.29,8.01,4.87,3.61,19.78,7.81,26.09.22,5.58-7.62-3.41-18.5-9.16-18.52-5.26-1.06-11.52-9.88-10.07-14.42-.68.15,5.61-6.92,6.86-8.7,3.85-4.79,1.44-13.57,1.84-26.31.23-7.77,1.3-9.92-.69-12.81-2.35-3.4-5.53-2.91-7.55-6.86-1.08-2.49-1.56-13.41-2.97-17.39-2.26-46.22,10.83-23.53,17.39-46,.82-4.92-1.32-6.06-1.6-13.73-.21-5.91,1.02-6.36,0-8.23-3.03-5.54-13.82-1.4-17.62-6.86-2.57-3.71-.85-10.31,2.29-14.19,4.43-5.45,9.5-2.81,18.76-8.23Zm-24.71,140.94c-1.34,4.03-8.34,11.67-12.12,12.38-1.56-.19-2.12-1.59-5.27-5.75-7.92-7.68-6.26-14.95-13.26-22.42-3.98-4.83-5.37-4.61-7.1-7.32-2.1-3.31-1.44-5.82-1.6-13.96-.2-10.43-1.36-9.51-1.15-15.79.15-4.27.7-5.16,4.35-20.14,4.53-17.73,3.77-23.72,18.3-28.59,23.33-3.13,7.34,31.93,5.04,42.1-2.12,9.74-.72,18.62,2.06,36.38.58,17.64,14.97,12.24,10.75,23.11Z"/>
</svg>