<?xml version="1.0" encoding="UTF-8"?>
<svg id="Calque_10" data-name="Calque 10" xmlns="http://www.w3.org/2000/svg" viewBox="0 0 643.23 643.52">
  <defs>
    <style>
      .cls-1 {
        fill: #aadc19;
        stroke-width: 0px;
      }
    </style>
  </defs>
  <path class="cls-1" d="m363.36,389.97c1.33,3.48-2.19,6.83-5.59,5.31-8.53-3.81-20.93-7.73-36.15-7.74-15.23,0-27.63,3.92-36.17,7.72-3.4,1.51-6.92-1.84-5.59-5.31,12.62-32.94,25.23-65.88,37.85-98.82,1.37-3.58,6.43-3.58,7.8,0l37.84,98.84Z"/>
  <path class="cls-1" d="m552.43,334.62c-2.51-32.97-14.41-90.79-107.86-191.76-60.69-65.55-91.02-98.33-122.95-98.31-31.93-.02-62.27,32.76-122.95,98.31-93.45,100.97-105.33,158.79-107.86,191.76-.35,4.57-.58,11.69-.58,20.43,0,127.79,103.6,231.39,231.39,231.39s231.39-103.6,231.39-231.39c0-8.74-.23-15.86-.58-20.43ZM299.81,77.96h14.74l11.61,20.51c3.34,5.85,6.62,12.87,9.14,19.18l.21-.02c-.77-7.39-1.02-14.91-1.02-23.38v-16.3h11.61v55.93h-13.25l-11.98-21.55c-3.34-6.02-7-13.18-9.72-19.74l-.27.02c.39,7.41.54,15.32.54,24.46v16.82h-11.61v-55.93Zm21.8,465.63c-105.47,0-190.99-85.5-190.99-190.99s85.52-190.99,190.99-190.99,190.99,85.52,190.99,190.99-85.52,190.99-190.99,190.99Z"/>
</svg>