<?xml version="1.0" encoding="UTF-8"?>
<svg id="Calque_4" data-name="Calque 4" xmlns="http://www.w3.org/2000/svg" viewBox="0 0 643.23 643.52">
  <defs>
    <style>
      .cls-1 {
        fill: #dea244;
        stroke-width: 0px;
      }
    </style>
  </defs>
  <path class="cls-1" d="m469.49,280.65c-1.68-.77-4.16-.08-9.13,1.31-6.31,1.76-8.59,3.58-9.85,2.48-1.31-1.15-.8-4.9,1.24-6.92,2.86-2.81,6.99-.53,8.87-2.61,2.32-2.55-1.21-8.98-4.04-14.93-6.98-14.66-3.77-13.94-10.04-26.8-1.47-3-2.38-4.56-15.66-24.53-14.1-21.22-15.3-22.81-17.64-25.46-2.31-2.63-.84-.74-20.44-19.37-8.43-8.01-10.57-10.15-15.09-12.57-2.23-1.21-1.67-.49-18.37-6.31-2.13-.75-7.52-2.49-18.29-5.97-3.46-1.12-5.45-1.85-8.51-2.35-4.4-.71-7.66-.48-12.62-.1-11.54.89-17.32,1.34-17.91,1.44-12.76,2.1-11.22,4.66-20.34,5.22-3.74.22-10.07.59-16.25,2.17-1.24.32-2.54.78-4.1,1.48-4.87,2.18-7.11,3.62-13.04,4.95-5.51,1.24-7.32.57-11.09,1.24-5.09.91-10.59,6.7-18.52,12.17-7.89,5.43-16.47,8.57-26.22,14.28-2.13,1.24-4.15,2.52-5.77,4.89-1.07,1.56-1.12,2.37-2.45,3.91-1.43,1.67-2.64,2.2-4.77,3.61-1.77,1.18-3.27,2.45-6.28,5-3.6,3.05-5.43,4.62-6.46,6.56-1.39,2.6-.59,3.17-1.96,5.18-2.03,3-4.08,2.16-6.65,4.99-2.48,2.74-2.89,6.11-3.23,8.9-.27,2.27-.42,3.72.49,4.99,1.4,1.95,4.25,2.02,5.48,2.06,2.87.07,5.05-1.09,6.46-1.86,3.3-1.81,4.9-4.06,5.18-3.82.25.21-.8,2.1-2.35,3.72-1.27,1.33-2.33,1.91-3.61,2.74-5.2,3.35-4.98,4.92-7.83,5.67-.55.15-3.41.93-5.88-.47-3.73-2.12-3.22-7.37-5.18-7.75-2.48-.47-5.96,7.52-6.84,9.59-4.77,11.23-3.57,14.88-7.24,25.44-3.29,9.45-5.27,9.48-7.34,18-.74,3.06-1.11,5.62-1.86,16.14-.82,11.48-1.23,17.23-1.37,23.18-.47,20.38,1.52,21.16-.68,29.35-2,7.44-4.19,8.85-4.8,16.14-.71,8.64,1.58,16.29,4.98,17.94.7.34,2.02.7,3.9,1.91,1.99,1.29,2.51,2.18,3.43,2.03,1.32-.21,2.24-2.37,2.47-4.07.32-2.46-.71-4.53-2.25-7.54-1.86-3.61-3.17-4.71-2.65-6.26.29-.83.98-1.36,2.35-2.44,1.74-1.36,2.61-2.04,3.33-1.86,1.64.42,1.38,4.88,2.35,12.72.47,3.81.5,2.5,1.46,9.09,1.67,11.38,1.01,11.38,2.16,14.29.37.94,2.45,4.21,6.55,10.76,2.77,4.42,2.51,3.86,3.72,5.87,4.78,7.95,4.39,9.36,7.82,14.08,2.57,3.53,5.16,6.01,6.67,7.44,2.99,2.83,4.35,3.54,8.01,6.75,3.13,2.75,5.21,4.57,7.33,7.14,5.37,6.49,4.94,9.49,10.47,16.27.95,1.15,2.12,2.3,3.72,3.49,5.74,4.29,12.91,7.14,12.91,7.14,4.2,1.67,5.22,1.5,10.27,3.52,7.46,2.99,7.35,4.21,11.74,5.48,7.42,2.14,15.94,1.03,16.63-1.47.36-1.3-1.75-3.09-2.83-4.01-2.03-1.71-3.74-2.17-8.22-3.71-7.57-2.6-8.97-3.44-9-4.41-.02-.68.64-1.34,1.27-1.56,1.39-.48,3.01,1.07,4.21,2.05.08.07,2.99,1.51,8.8,4.41,5.4,2.68,8.12,3.79,9.98,4.69,8.84,4.3,10.56,10,16.34,14.38,7.03,5.33,20.14,3.75,46.37.59,12.46-1.51,17.21-2.91,21-6.82,5.05-5.21,6.78-13.19,9.03-12.75,1.26.25.9,2.81,3.52,6.17,1.18,1.51,3.34,4.28,6.04,4.43,4.61.26,6.68-7.4,10.89-6.98,2.56.26,2.64,3.21,5.28,4.3,4.33,1.79,8.8-4.21,20.28-12.65,7.41-5.44,14.16-11.8,21.88-16.79.46-.3,1.51-.96,2.45-1.88.94-.93,1.76-2.13,1.76-3.5,1.69-4.93.76-8.14,4.17-12,3.72-4.21,6.83-2.64,12.26-7.04,5.38-4.36,3.74-7.03,9.65-12.52,5.43-5.05,7.72-3.65,10.96-7.83,3.66-4.72,2.4-8.67,4.17-15.91,2.15-8.76,6.09-11.67,9.92-18.53,3.33-5.97,4.27-16.4,6-37.04,2.19-26.14-.52-16.47,1.17-41.35.61-8.86,1.56-19.01-2.74-21Zm-38.48,39.92c-1.42,2.81-4.19,4.67-6.91,5.08-2.28.35-4.24-.36-6.6-1.22-3.07-1.11-3.24-1.91-5.27-2.3-2.39-.45-5.31.08-7.04,1.44-3.08,2.4-2.41,7.35-2.09,13.69.18,3.64-.14,10.64-.78,24.65-.49,10.61-.74,16.02-2.74,20.48-.93,2.07-4.37,9.49-11.74,14.22-5.85,3.75-8.62,1.72-35.74,2.48-14.53.4-13.4.93-19.69.65-8.64-.38-11.05-1.39-15.13.39-5.1,2.23-10.71,7.89-11.35,14.09-.24,2.24.15,4.8-.79,9.78-.56,3.02-.79,2.54-1,4.31-.2,1.75-.22,4.3,2.44,13.04,1.34,4.39,1.37,3.84,1.43,4.56.58,6.34-5.25,11.53-7.82,13.83-3.85,3.43-7.44,6.63-11.35,5.74-3.89-.89-5.77-5.29-7.96-10.44-.96-2.26-2.8-6.73-2.08-12.13.33-2.5,1.1-4.36,1.3-4.82,1.24-2.9,2.92-4.67,3.52-5.35,3.56-4.01,3.85-8.62,6.26-15.39,1.99-5.58,4.27-9.1,8.35-15.39,6.07-9.36,9.48-11.32,13.96-20.48,3.75-7.67,3.16-9.98,2.35-11.22-1.79-2.7-6.58-3.16-9.92-1.95-4.99,1.8-7.11,7.5-8.74,11.87-1.83,4.91-.75,5.45-2.6,9.26-1.92,3.92-3.78,4.84-7.83,9.78-3.35,4.08-2.88,4.44-6.52,9.39-3.45,4.68-3.6,4-14.22,15.78-4.64,5.15-6.17,7.01-9.52,9.13-3.42,2.17-3.98,1.6-7.83,3.92-6.35,3.82-6.16,6.19-11.35,8.87-3.58,1.84-6.72,2.29-10.82,2.87-4.08.57-4.27.08-13.18.39-.5.01-5.63.19-11.87.39-5.45.17-7.37.31-9.39-1.05-1.9-1.27-3.82-3.79-3.59-6.53.3-3.77,4.52-6.28,7.38-7.03,2.45-.64,3.07.24,5.08-.78,1.98-1.01,2.53-2.44,5.09-3.39,1.52-.57,1.8-.25,2.25-.64,2.28-1.95-2.48-12.2-8.64-21.54-5.11-7.74-5.57-6.33-11.61-15.26-6.18-9.12-9.54-13.65-10.17-19.17-.48-4.22.1-8.63-2.61-10.31-2.74-1.69-5.85,1.26-9.92-.78-1.76-.88-3.84-2.78-3.91-4.96-.06-2.15,1.89-3,4.31-6.13.68-.89,6-7.88,3.91-11.21-1-1.6-3.47-2-4.04-2.09-2.29-.37-3.02.65-4.57.26-2.47-.63-4.62-4.22-4.04-7.04.47-2.32,2.79-3.5,7.43-5.87,3.64-1.86,7.8-3.41,12-4.96,2.85-1.05,3.44-1.21,4.44-1.96,2.39-1.8,4.9-5.35,4.43-9.13-.44-3.53-3.31-5.9-5.48-7.69-3.42-2.84-5.82-2.93-6.78-5.61-.4-1.13-.31-2.28-.13-4.57.24-3.06.37-4.63,1.3-6,1.64-2.39,4.73-2.73,9.66-3.26,3.48-.37,5.7-.58,7.56.78,1.94,1.43,1.4,3.01,2.87,4.05,2.93,2.06,8.86-1.55,14.74-5.22,6.16-3.84,9.23-5.75,12.78-9.52,4.71-5,5.37-8.05,11.09-12.39,4.21-3.2,6.36-3.44,7.83-3.26,2.16.26,4.33,1.63,7.04,5.48,5,7.1,4.13,11.68,7.3,20.21,3.65,9.82,6.54,8.44,9.13,16.96,1.75,5.73,1.52,10.51,1.05,20.09-.63,12.86-.95,19.29-4.83,25.3-4.07,6.3-10.5,11.04-11.48,11.74-5.1,3.64-7.91,4.03-10.95,8.22-.71.97-4.9,6.74-3,11.34.87,2.13,2.19,2.04,3.52,4.7.14.29,2.42,5.12.39,8.48-2.39,3.94-9.95,4.29-14.22,1.3-.86-.6-1.77-1.47-5.35-10.17-3.92-9.55-3.95-11.27-3.91-12.26.16-4.02,1.92-6.92,4.31-10.7,3.83-6.08,5.56-5.91,9.65-11.35,3.67-4.87,5.57-9.85,9.39-19.82,2.04-5.33,2.56-7.55,2.61-10.18.05-2.44.14-7.28-3-11.34-4.43-5.71-12-5.65-16.96-5.61-4.42.03-5.85,1.07-6.52,1.69-2.56,2.39-3,7.16-1.04,9.26,1.46,1.57,3.13.45,5.47,1.83,3.74,2.19,4.22,7.8,4.44,10.44.23,2.7.84,9.88-3.26,12.65-1.82,1.23-4.72.92-10.44.26-7.58-.88-8.84-2.01-10.69-1.31-6.27,2.4-4.95,18.99-4.7,22.31,1.18,15.32,7.49,27.28,10.44,32.87,1.43,2.72,1.42,2.38,6.13,10.82,1.11,2,4.46,8.04,9,15.13,2.83,4.44,3.28,5.55,4.82,6.27,3.97,1.84,8.79-.82,13.31-3.4,7.56-4.31,7.75-6.97,18-14.47,4.92-3.61,5.81-3.68,8.35-6.26.77-.8,1.01-1.11,8.6-10.83,1.56-1.99,3.01-3.82,5.48-5.61,2.25-1.63,2.69-1.31,3.65-2.35,2.97-3.18,2.77-10.34-.78-14.08-2.49-2.63-4.59-1.41-6.65-3.92-2.72-3.31-2.32-9.39.52-13.43,3.61-5.12,10.02-5.3,11.61-5.35,4.23-.12,5.01,1.83,10.7,2.61,1.9.26,3.27.26,10.43-.39,13.55-1.23,13.79-1.68,17.35-1.44,4.5.31,9.14.71,13.3,4.05,1.26,1,4.85,3.88,5.35,8.74.11,1.08.36,5.08-2.22,7.95-2.6,2.9-5.32,1.54-7.3,4.18-2.06,2.74-1.3,7.12.26,9.91.28.49,1.64,2.82,4.96,4.56,3.75,1.97,7.27,1.76,16.3.66,8.48-1.04,12.78-1.35,14.74-2.22,2.52-1.13,9.38-4.19,10.83-9.78.36-1.4.47-3.29,1.56-7.05.61-2.09,1.18-3.58,1.34-4.02,2.15-5.85,1.79-15.05,2.23-24.19.63-12.94,2.34-14.91.08-17.57-1.98-2.35-6.28-2.7-14.88-3.4-8.61-.7-7.58.78-17.59.53-1.52-.04-3.9-.13-6.4,1.17-2.58,1.36-2.47,3.07-4.43,3.92-3.79,1.63-6.37-.69-13.96-2.09-5.8-1.07-10.76-1.99-13.69.65-2.37,2.14-1.08,4.48-3.92,7.7-.15.18-3.68,4.07-8.34,4.04-6.4-.03-11.3-6.84-12.53-12.26-.49-2.19-.33-4.02,0-7.69.31-3.4.64-7.04,2.48-10.44,1.5-2.75,2.68-2.94,7.18-7.04,3.01-2.75,5.71-5.94,11.1-12.32,6.3-7.44,6.84-8.84,6.37-9.99-.93-2.3-4.86-1.04-10.82-4.82-2.85-1.81-2.68-2.57-5.22-3.79-3.69-1.76-4.93-.57-9.26-1.82-2.16-.63-7.51-2.17-9.91-6.52-1.27-2.29-.73-3.58-2.61-6.4-1.79-2.67-2.73-2.21-3.78-4.04-2.77-4.83,1.59-11.93,4.43-16.56.63-1.02,1.01-1.54,1.7-1.83,3.47-1.48,9.35,5.02,12.13,8.09,4.39,4.86,3.97,7.38,8.08,10.3,1.82,1.29,3.35,1.9,6.13,3,5.38,2.13,8.79,3.48,11.22,1.96,1.79-1.12,2.24-3.29,3-7.05.67-3.26.53-5.69.26-9.78-.49-7.57-1.57-9.4-2.08-10.17-1.48-2.21-2.57-2.1-4.18-3.92-1.38-1.56-2.77-4.13-2.61-14.34.08-4.64.41-7.15,1.05-18.39.26-4.67.35-6.81-.92-9.27-1.74-3.37-3.88-3.15-5.47-6.91-1.37-3.22-1.09-6.45-.92-8.48.19-2.23.29-3.35,1.05-4.43,1.91-2.76,6.07-2.83,8.47-2.87,1.59-.03,6.09-.04,10.83,2.74,6.66,3.91,9.17,10.64,10.96,15.52,1.92,5.26,2.36,9.6,2.74,15.39.7,10.83,1.15,17.72,1.03,25.13-.03,2.37-.07,1.23-.38,8.78-.34,8.3-.02,2.27-.13,18.92-.04,4.86-.07,6.03.91,7.43,2.46,3.52,8.66,4.71,12.13,2.48,1.33-.86,1.01-1.41,3.85-5.44,2.41-3.41,3.21-3.83,5.28-6.69,1.28-1.78,3.27-4.52,4.57-7.83,1.67-4.25,1.54-8.23,1.17-16.04-.33-7.02-1.07-8.51,0-12,.48-1.59,2.06-6.73,5.48-7.56,4.38-1.07,10.06,5.34,12.39,11.08,4.03,9.95-.71,21.15-1.04,21.92-.58,1.3-1.68,3.45-2.74,6.91-1.03,3.35-.92,4.35-1.83,6.39-1.34,2.98-3.32,4.73-5.22,6.39-5.24,4.61-7.76,3.46-11.21,7.7-.88,1.07-1.62,2.26-3.32,3.34-.52.34-2.11,1.29-5.29,1.74-5.28.76-7.19-.98-8.61.39-.4.39-.65.91-.52,6.53.13,5.73.41,6.22.65,6.52,1.72,2.16,5.84.42,12.13-.26,8.26-.89,13.99.06,25.43,1.95,5.13.85,8.14,1.66,9,3.92.74,1.9-.23,4.37-1.69,5.87-2.72,2.79-6.62,1.66-13.96,1.69-9.4.04-8.63,1.92-18.13,1.96-1.1,0-6.08-.43-16.04-1.31-5.03-.44-10.1-.02-15.13-.39-.61-.04-1.95-.32-3.39.26-2.59,1.05-3.65,3.96-4.44,6.13-1.23,3.39-2.15,5.94-1.04,8.61,1.73,4.14,7,5.27,8.61,5.61,1.43.31,2.25.27,7.95,0,2.12-.1,4.51-.14,8.48-.39,7.82-.5,14.67-.44,20.87-.39,9.5.08,8.87.52,15.52.52,12.81.01,20.74-.78,35.87-.78,2.7,0,7.9.07,10.96,3.65,2.26,2.65,3.3,7.15,1.43,10.83Z"/>
  <path class="cls-1" d="m634.62,350.96c-.2-4.52-.38-10.45-3.91-16.18-3.24-5.27-8.19-8.76-12.39-11.74-5.31-3.75-6.41-3.38-8.35-5.47-3.75-4.06-2.22-22.05-2.22-22.05,0-8.97-.47-16.45-1.43-31.04-.47-7.13-.71-10.73-1.31-12.39-1.57-4.41-3.64-6.23-4.69-11.74-.57-2.97-.75-4.46-.93-6.03-.46-4.17-.17-5.16-1.55-7.93-2.61-5.22-5.28-5.5-7.04-10.69-1.99-5.85,1.52-8.74-1.57-12.52-1.36-1.67-2.85-1.96-4.43-4.62-.42-.69-.92-1.68-1.7-4.65-1.82-6.9-1.12-7.7-2.35-11.47-.89-2.76-2.75-3.83-2.21-5.35.57-1.64,2.72-1.52,5.08-2.87,4.02-2.3,5.8-7.22,6.17-10.25.49-3.98-1.64-7.37-5.91-14.14-4.04-6.44-6.07-9.65-10.17-12-1.75-1-4.82-1.8-10.96-3.39-5.37-1.4-8.05-2.09-10.95-2.35-5.86-.52-7.37.59-10.29-.93-2.74-1.41-3.31-3.37-5.63-6.25-3.57-4.44-7.29-6.09-11.6-8.6-7.36-4.28-13.65-9.47-26.22-19.83-12.09-9.96-13.81-13.02-22.96-19.17-1.94-1.31-4.98-3.27-9.39-6.53-8.49-6.26-7.73-6.76-12-9.39-8.83-5.43-11.32-2.85-17.09-8.08-2.58-2.35-3.89-4.5-7.3-5.48-2.97-.86-4.14.15-7.7-.52-3.32-.63-4.9-2-8.61-4.18,0,0-.67-.39-11.73-5.61-5.37-2.53-23.21-10.07-41.87-13.69-6.76-1.31-8.36-.83-41.61-1.83-36.69-1.1-44.6-1.16-49.52-.61-1.31.14-2.53.35-2.53.35-9.07,1.43-15.57,4.15-17.87,5.09-.93.38-9.62,3.12-27,8.61-22.53,7.11-14.6,4.13-24.91,7.43-2.76.89-6.56,2.13-11.87,3-4.66.76-5.09.35-7.69,1.04-5.34,1.43-7.27,4.15-12.53,7.83-5.63,3.94-5.43,2.22-14.6,7.44-6.64,3.77-6.67,4.62-15.66,10.04-6.45,3.89-6.15,3.27-10.95,6.26-2.5,1.55-5.46,3.51-16.83,12.26-8.69,6.69-13.07,10.07-14.35,11.87-5.34,7.48-5.9,15.55-6.13,19.3-.2,3.3-.64,12.17,4.31,20.87.53.94,4.62,5.06,12.78,13.31,9.42,9.53,10.14,9.99,11.22,12.39.84,1.87,1.81,4.74,4.69,6.78,2.57,1.82,4.1,1.17,5.35,2.22,4.06,3.42-1.46,19.34-9.91,32.87-5.93,9.49-13.74,18.52-13.61,25.9.02.77.15,3.19-1,5.93-1.55,3.67-4.43,5.58-5.51,6.4-6.34,4.78-7.87,15.06-10.27,31.16-.53,3.54-.4,3.4-1.57,15.13-1.59,15.92-3.04,28.12-3.77,43.9-.22,4.82-.35,9.31.64,15.06.97,5.62,1.9,6.06,3.26,12.91,1,5.01,1.34,9.03,1.96,16.17.86,10.06.33,10.07,1.3,12.13.92,1.95,3.05,5.17,7.31,11.61.64.97,1.3,1.97,1.57,3.44.19,1.02.1,1.67.35,3.42.08.6.21,1.29.42,2.14,1.56,6.2,4.69,9.52,7.57,13.7,4.48,6.51,1.92,6.75,8.22,17.61,2.99,5.16,8.27,14.26,17.47,20.35,1.49.98,2.8,1.7,4.96,3.39,4.85,3.79,6.03,6.25,10.44,11.08,4.76,5.23,4,3.04,12.91,11.61,2.55,2.46,4.75,4.69,8.48,5.87,2.2.7,3.11.36,5.35,1.18,4.59,1.68,7.36,4.61,8.21,5.47,7.86,7.96,23.41,15.45,29.74,18.53,5.87,2.84,10.38,4.99,16.96,6.26,6.28,1.2,7.34.23,13.95,1.3,10.77,1.74,11.23,5.4,20.22,6.39,6.9.76,9.74-.36,22.05-1.04,6.6-.37,12.32-.87,20.34-.26,2.94.22,4.93.49,6.26.65,3.83.46,11.78,1.21,36.4-.26,9.23-.55,25.37-1.68,29.47-6.13,1.46-1.58,3.15-2.94,4.7-4.44,2.04-1.98,2.85-2.83,4.17-3,1.88-.23,2.47,1.4,4.57,1.96,1.91.51,4.1.37,15.13-4.96,3.19-1.54,4.79-2.31,5.48-2.73,5.38-3.32,6.41-6.02,10.95-8.74,2.7-1.63,4.01-1.68,7.7-3,7.73-2.78,12.98-6.48,19.7-11.22,4.65-3.29,9.32-6.58,14.47-12,8.43-8.85,13.17-18.15,16.18-24.13,4.01-7.99,3.54-9.29,6.91-13.7,4.46-5.83,7.98-6.72,10.57-12.78,1.71-4.02.84-4.72,2.73-10.83,2.91-9.36,5.33-8.91,7.31-16.69,1.34-5.28.49-6.5,2.48-14.22,1.34-5.2,1.74-4.65,2.21-7.56,1.27-7.71-1.79-9.75-.52-16.18.91-4.57,2.59-4.23,4.31-9.78.65-2.11,1.43-5.45,1.04-14.22-.51-11.6-2.2-13.56-2.48-22.82-.18-6.13.57-5.1.92-14.87.39-10.96.62-17.58-1.18-25.57-1.98-8.79-3.85-7.83-6.52-19.17-1.1-4.68-2.28-9.68-2.85-16.49-.42-4.93-.12-6.11-.93-9.34-.83-3.28-1.69-4.27-6.26-12.52-5.95-10.72-5.8-11.4-7.96-13.17-2.63-2.16-4.74-2.7-7.3-6-1.49-1.92-1.78-3.02-3.27-5.74-2.31-4.25-4.38-6.67-6.26-9.13-9.55-12.6-9.61-21.52-19.82-28.83-4.38-3.13-4.2-1.57-11.48-6-9.66-5.88-12.21-9.99-20.61-16.83-3.77-3.07-12.32-10.2-24.52-15.26-12.54-5.19-18.69-4.03-32.35-9.91-1.35-.58-4.35-1.91-8.61-2.87-6.92-1.56-12.41-1.09-14.74-.91-8.57.64-17.23.3-34.56-.39-5.08-.21-14.65-.7-25.96-.66-3.93.02-8.08.1-13.17,1.57-3.08.89-4.25,1.63-9.65,3.52-4.57,1.59-7.73,2.46-10.05,3.13-10.84,3.15-12.51,4.82-23.08,8.09-14.85,4.58-17.46,3.11-26.49,7.89-4.14,2.18-3.99,2.7-10.04,5.93-8.04,4.31-11.19,4.93-15,9-2.45,2.63-2.03,3.32-4.69,5.74-2.76,2.51-5.31,3.68-9.92,5.74-4.81,2.16-7.25,3.22-9.13,2.4-2.02-.88-1.47-2.45-4.3-4.75-1.65-1.33-2.46-1.3-7.08-3.4,0,0-2.93-1.34-5.31-2.6-7.06-3.73-10.71-11.74-12.91-16.56-2.39-5.22-3.58-7.83-3.13-10.7.53-3.49,3.49-6.63,9.39-12.78,2.48-2.59,4.47-4.67,7.56-7.3,6.06-5.18,9.55-8.15,15-10.18,4.01-1.48,5.51-1.14,7.57-3.13,2.36-2.29,1.45-3.79,4.3-8.87,1.49-2.65,3.41-5.97,7.18-7.95,1.47-.78,2.71-1.08,4.17-1.44,2.02-.49,4.55-.59,9.52-.78,1.81-.07,4.14-.26,7.07-1.19.2-.07.4-.15.63-.25,3.97-1.75,7.26-6.06,8.87-7.69,2.65-2.7,5.04-2.05,13.17-3.78,6.74-1.44,6.16-2.12,17.61-5.61,12.77-3.9,19.16-5.85,25.69-6.39,9.15-.76,12.72.72,19.96-1.96,2.23-.83,4.64-1.98,8.74-2.87,5.12-1.11,9.06-.96,11.35-.91,13.46.27,13-1.98,24.13-1.44,9.74.48,9.24,2.16,20.87,3,2.6.19,5.94.35,10.04,1.96,3.85,1.51,3.98,2.58,7.31,3.65,3.81,1.22,4.83.19,11.73.65,6.02.4,8.81,1.04,11.22,1.96,6.55,2.49,6.23,5.83,11.22,6.39,3.37.38,5.13-.97,9,.26.3.1.55.19.79.29,1.88.81,3.17,1.71,3.64,2.06,4,2.97,6,4.46,7.7,5.22,2.43,1.08,2.59.5,5.09,1.69,2.95,1.41,3.21,2.73,5.52,3.72,3.36,1.43,5.4,1.01,9.22,1.63,4.01.65,6.79,1.94,9.91,3.39,5.13,2.38,8.42,5.1,12.91,8.87,6.6,5.54,5.57,5.97,10.83,10.04,6.03,4.68,11.71,7.42,13.3,8.22,4.12,2.08,7.72,3.51,10.31,4.44,3.41,1.22,4.31,3.58,10.04,9.91,2.09,2.31,5.26,5.79,9.26,10.04.91,1.53,2.24,3.63,4.04,6,1.92,2.52,3.93,5.5,7.44,8.22,3.28,2.55,5.27,3.02,5.87,5.22.14.53.38,1.8-3,8.35-2.13,4.12-3.51,5.53-3.65,8.47-.09,1.79-.15,2.98.65,3.9,1.61,1.86,5.18.91,14.74.93,1.78,0,2.84.04,3.13.65.84,1.77-5.48,6.55-6.65,7.44-3.61,2.72-4.6,2.64-6.66,4.82-2.26,2.41-4.56,6.26-3.52,7.57.57.71,1.8.27,8.61-.78,4.34-.68,5.25-.72,6.13-.13,1.94,1.28.73,3.61,2.22,6.91,1.43,3.17,5.11,5.02,12.47,8.73,1.68.85,3.48,1.64,5.53,1.96.17.03.82.18,2.14.31,1.67.17,2.32.05,3.34.48,3.76,1.58,4.87,6.51,5.87,10.04.42,1.5,4.15,9.57,11.61,25.7,2.96,6.41,4.56,9.49,5.21,14.73.46,3.67-.59,5.36-.13,9.66.54,4.96,2.08,6.72,3.65,11.61,1.58,4.87,1.84,8.68,2.35,16.3.72,10.57,1.07,15.86-1.56,18-3.2,2.6-6.44-1-13.82,1.59-1.8.63-7.3,2.57-9.27,7.41-.92,2.26-.86,4.64-.78,7.7.07,2.82.11,4.33.78,5.87,1.89,4.31,7.41,5.67,9.52,6.26,7.04,1.97,9.03-1.29,17.48-.79,2.64.16,13.2.78,18.65,8.35,2.2,3.05,2.72,6.07,3.26,9.26.6,3.5,1.98,11.55-2.74,18.78-3.38,5.2-8.18,7.33-11.77,8.93-3.63,1.61-9.61,4.27-16.01,2.16-3.41-1.12-5.88-3.25-6.78-4.04-1.78-1.56-2.16-2.43-5.22-6.52-5.37-7.21-6.02-7-6.26-8.74-.49-3.6,2.3-4.27,3.39-10.57.63-3.61.25-6.51,0-8.35-.62-4.54-.98-7.15-2.87-8.73-3.7-3.11-11.3-.62-15.78,3-5.01,4.04-6.17,9.73-6.52,11.6-1.01,5.37.44,10.03,2.22,15.79,1.2,3.92,1.8,4.29,3,8.74,1.44,5.37,1.01,6.5,2.39,8.89,1.87,3.22,4.09,3.64,8.04,6.63.99.74,6.98,5.28,9.39,10.3,2.88,5.99.48,12.31-3.91,23.87-4.21,11.1-9.91,19.7-10.7,20.87-2.94,4.39-4.27,5.59-6.52,9.91-4.02,7.71-2.65,9.35-6,14.35-3.43,5.12-5.31,4.07-11.09,11.22-1.26,1.56-1.34,1.83-6,8.61,0,0-.74,1.08-7.69,11.08-3.53,5.09-13.25,15.01-39.26,35.87-4.74,3.16-8.68,5.75-11.48,7.57-18.49,12.05-23.42,14.64-27.13,16.43-4.18,2.02-7.99,3.61-11.22,4.96-6.06,2.53-11.3,4.48-15.26,5.87-10.39,3.66-11.57,3.4-18.39,5.87-12.15,4.39-10.49,5.97-19.04,8.74-12.27,3.97-14.94.48-31.96,4.96-4.42,1.16-6.19,1.9-10.83,2.73-7.13,1.28-12.35,1.21-18.78,1.18-23.42-.1-20.23.63-24.26.13-13.46-1.67-13.48-5.41-29.22-7.44-5.3-.68-8.33-.64-16.3-1.95-6.61-1.09-10.51-1.75-15.52-3.65-7.47-2.84-6.38-4.02-10.7-4.7-5.97-.94-12.23.83-15.16-1.92-.31-.29-1.05-1.07-2.32-1.6-1.76-.75-2.75-.26-4.15-.55-2.2-.45-2.86-2.29-5.5-5.32-.71-.82-2.83-3.23-5.48-5.09-1.19-.83-6.04-4.23-12.39-4.69-1.78-.13-3.22,0-4.39-1.08-1.5-1.39-.78-3.12-2.43-4.59-1.19-1.06-1.93-.49-3.87-1.59-1.56-.89-1.78-1.65-3.53-3.44-1.07-1.1-2.99-3.06-5.61-4.3-2.9-1.38-3.83-.53-6.52-1.83-2.33-1.13-3.46-2.66-4.82-4.17-1.82-2.01-6.79-7.53-12.79-9.13-5.75-1.54-7.96,1.72-12.52-.79-2.82-1.55-4.5-4.2-5.48-5.74-2-3.16-1.35-4.03-3.39-7.95-1.66-3.2-3.08-6.16-6.13-7.7-3.66-1.85-5.96-.05-8.21-2.09-2.32-2.08-.87-4.85-2.87-10.04-1.12-2.89-2.54-4.53-4.31-6.78-.19-.24-3.82-5.64-11.09-16.44-8.81-13.1-13.24-19.63-14.34-26.47-.83-5.17-.38-9.78.13-14.87,1.03-10.4,3.29-13.03,1.82-19.57-1.32-5.9-4.58-10.04-5.74-11.48-1.89-2.35-3.8-4.72-7.17-6.26-4.92-2.24-9.65-1.21-13.43-.39-.74.16-5.82,1.25-10.7,4.7-1.87,1.32-4.08,2.88-6,5.74-.61.9-5.03,7.25-3.78,12.65.1.46.48,1.81-.13,3.13-.78,1.69-2.51,1.44-3,2.61-.69,1.6,2.05,3.1,4.95,7.82,2.08,3.38,2.04,4.84,4.31,6.79.93.8,1.86,1.4,3.74,2.2,3.38,1.43,5.87,1.05,9.82,3.4,3.98,2.37,4.28,4.79,12,16.31,3.89,5.79,3.77,4,7.31,10.17,4.8,8.39,5.05,13.81,9.86,18.04,2.52,2.21,3.79,3.32,5.66,4.14,1.96.85,3.39.97,4.43,2.34,1.15,1.52.95,3.4.92,4.18-.25,6.14,7.99,10.25,16.43,22.3,2.81,4.01,2.54,4.47,5.35,8.09,3.16,4.07,6.12,6.87,9.65,10.17,4.94,4.63,7.41,6.94,9.52,8.22,7.11,4.3,13.72,4.71,15.22,8.68.2.52.81,2.13,2.06,4.1.47.74,1.13,1.55,2.16,2.48,3.27,2.96,5.34,2.75,9.91,5.74,3.53,2.3,3.54,3.34,8.09,7.3,3.65,3.18,6.68,4.88,12.91,8.22,21.23,11.4,31.99,17.14,38.97,18.99,1.42.38,4.97,1.25,9.68,3.06,5.38,2.06,5.13,2.7,8.22,3.52,5.23,1.38,6.81-.11,12.78,1.17,3.33.72,2.78,1.17,6.92,2.35,9.36,2.67,11.09.06,17.08,2.87,3.25,1.52,4.48,3.1,7.57,3.13,1.73.02,3.15-.46,5.22.26,1.72.6,2.54,1.57,3.39,2.22,3.36,2.56,8.59,1.21,10.61.8,1.89-.38-4.58,1.18,40.13.5,32.58-.49,39.22-1.37,43.95-4.04.07-.04.24-.14.5-.29,0,0,6.08-3.43,11.73-5.59,7.82-2.98,10.07-.98,22.04-4.49,1-.29,2.11-.65,4.34-1.37,9.72-3.14,11.8-4.27,13.44-5.35,2.93-1.94,4.22-3.59,4.56-4.04,1.49-1.98,1.19-2.62,2.48-4.31.35-.45,3.59-4.77,7.3-4.3,2.84.36,2.8,2.74,6.53,3.52,2.01.42,4.85.25,6.04-1.38.88-1.21.27-2.4.48-3.71.65-4.11,8.78-5.45,14.61-7.56,6.14-2.23,3.43-3.15,19.69-14.09,2.94-1.97,5.81-3.83,9.26-7.17,4.09-3.96,3.16-4.35,6-6.52,4.34-3.31,6.86-3.03,12.68-7.14.98-.69,1.98-1.53,3.11-2.65,3.52-3.5,4-5.43,8.21-9.39,1.95-1.82,3.46-2.92,4.72-3.68,3.46-2.1,5.08-3.25,5.98-3.88,7.23-5.09-.54-23.81,5.74-27.77,3.34-2.1,7.21,2.13,11.56-.76,3.27-2.17,4.29-6.69,4.61-8.13,1.16-5.12-.8-7.64,1.18-9.65,1.13-1.15,2.88-1.38,6.39-1.82,3.4-.44,4.39.07,5.74-.79,2.26-1.43,2.5-4.79,2.6-5.87.82-8.18,7.01-12.46,15.53-34.04,4.7-11.91,4.55-15.03,6.09-18.24.19-.38.92-1.72,2.12-3.28,5.76-7.49,17.74-15.52,17.74-15.52,13.69-9.17,14.83-8.89,17.35-12.52,3.59-5.18,4.95-11.08,5.35-13.05.45-2.26.63-5.77,1.04-12.78.31-5.27.46-7.91.39-9.52ZM132.32,212.04c5.37-6.05,13.37-16.52,15.78-19.43,7.99-9.63,14.35-17.3,24.39-25.57,6.96-5.73,13.27-9.74,23.35-16.17,5.29-3.37,7.92-4.85,10.83-6.26,8.23-3.99,10.83-3.6,19.17-6.78,13.79-5.26,12.76-8.64,22.44-10.7,6.97-1.49,7.36.3,17.73-1.43,4.8-.8,5.12-1.25,16.44-4.05,9.63-2.37,14.44-3.56,18.39-4.01,7.58-.85,13.13-.11,20.45.88,4.56.62,17.55,2.61,33.45,8.71,9.81,3.76,10.7,5.24,18.3,7.14,7.94,1.99,10.83,1.34,16.72,4.21,5.18,2.51,5.47,4.23,12.53,9.19,7.68,5.41,8.53,4.2,16.24,9.2,2.75,1.78,10.67,7.15,18.68,16.24,4.04,4.59,3.23,4.73,9.98,13.69,6.85,9.1,8.93,10.68,14.57,17.91,2.81,3.59,9.18,11.82,15.17,22.59,5.42,9.76,8.16,17.34,12.32,28.86,5,13.83,7.67,21.23,9.39,30.72.87,4.77,1.32,9.12.07,39.46-1.47,35.55-2.72,45.07-5.35,55.82-1.77,7.26-3.69,13.14-5.08,17.09-3.48,5.98-5.57,11.12-6.85,14.8-1.55,4.45-3.66,10.52-4.84,14.9-.21.77-.92,3.23-2.29,6.33-.28.63-.6,1.27-1.02,2.06-5.67,10.41-13.23,17.35-20.74,24.26-1.4,1.28-6.43,5.83-13.18,11.34-2.73,2.24-2.42,1.91-4.04,3.27-8.66,7.22-9.85,10.09-15.13,14.21-6.05,4.71-6.09,2.19-13.44,7.44-7.25,5.18-7.76,8.15-13.95,11.35-3.68,1.89-4.95,1.65-12.62,3.55-11.09,2.75-12.26,4.71-20.55,7.04-12.04,3.39-22.38,2.85-33.94,2.25-8.08-.42-8.13-1.07-19.24-1.76-2.26-.14-10.89-.65-22.7-.52-17.63.19-31.56,1.69-44.15-.94-2.61-.55-5.09-1.09-8.12-2.55-3.82-1.84-7.84-4.82-12.29-8.12-1.53-1.13-2.17-1.65-3.39-2.22-3.7-1.72-5.62-.63-8.74-1.43-3.55-.91-3.08-2.83-10.05-8.22-2.1-1.62-4.25-3.28-7.43-4.95-4.1-2.16-5.4-1.96-9.91-4.57-3.68-2.12-5.3-3.69-5.87-5.74-.3-1.05-.1-1.48-.52-2.35-1.32-2.71-5.47-3.2-6.66-3.39-2.87-.46-7.91-4.83-18-13.56-7.98-6.91-12.04-10.47-15.65-15.26-2.54-3.38-3.85-5.79-6.39-10.31-15.21-27.07-15.78-25.43-18.26-32.48-3.13-8.86-1-7.97-5.74-24.39-2.6-9.01-3.9-11.53-4.83-18-1.13-7.87-.08-10.06-.26-20.21-.27-15.35-2.76-14.85-2.57-26.52.03-2.25,1.44-10.4,4.27-26.7,2.41-13.95,3.26-17.72,6-22.21,1.48-2.43,3.3-4.71,5.51-9.37,2.15-4.54,2.05-5.8,4.37-9.8,2.24-3.86,3.1-4.02,3.95-6.67.99-3.12.06-3.76.84-8.4.39-2.3.86-5.07,2.55-7.99.93-1.61,1.48-1.96,5.28-6.19,1.56-1.74,3.07-3.53,4.63-5.29Z"/>
</svg>