<?xml version="1.0" encoding="UTF-8"?>
<svg id="Calque_3" data-name="Calque 3" xmlns="http://www.w3.org/2000/svg" viewBox="0 0 643.23 643.52">
  <defs>
    <style>
      .cls-1 {
        fill: #d46635;
        stroke-width: 0px;
      }
    </style>
  </defs>
  <path class="cls-1" d="m320.91,567.19c-2.06-3.61-5.62-4.13-5.33-5.78.22-1.18,1.85-1.04,3.26-2.8,1.61-2.02,2.16-5.58.74-7.26-1.69-2.02-4.71.35-9.19-1.34-3.24-1.23-6.76-4.41-6.67-7.55.1-3.3,4.12-3.93,6.37-8.3.82-1.58.84-2.77.15-12.43-1.33-14.75-.66-19.88-6.96-31.1-3.97-6.67-14.96-12.3-14.96-12.3-27.26-14-40.9-21-42.88-22.36-2.02-1.4-6.43-4.55-9.86-3.04-9.13,7.92-.9,14.45,4.6,22.44,11.75,16.01,10.11,44.24-6.52,51.39-.35-8.49,4.01-13.34,1.56-34.13-2.56-14.47-5.62-23.59-15.56-26.81-3.57-.64-5.5,1.16-8.59.07-4.86-1.12-8.84-11.92-13.48-16.36-1.59-.85-2.29-.32-4.3-1.33-9.95-4.14,1.53-20.52-4-31.48-14.28-25.07-1.41-27.74-6.73-48.72-4.05-7.62-6.06-8.51.74-13.77,3.91-3.82,4.71-26.16.89-30.66-4.18-2.86-7.89-8.71-7.4-13.33-.64-19.25,2.77-39.47-7.48-54.06-5.77-6.04-11.15-2.91-20.51-9.59-6.28-4.49-7.14-8.26-12.56-9-8.11-1.11-16.23,5.19-4.26,10,43.72,35.89-4.87,43.15,4.51,77.09,2.93,4.99,6.99,12.33,8.77,18.12,3.71,10.89,2.84,10.88,4.87,14.69,13.23,14.36,13.75,28.05,6.22,42.06-7.67,11.98-14.64,15.14-13.63,36.59,1.6,13.29,6.62,17.79,18.96,27.55,2.63,2.83,7.68,8.21,9.2,15.43,2.12,10.07-4.98,12.3-4.31,24.4,1.38,12.89,9.34,25.77,18.36,30.07,3.83,1.21,5.16-.34,11.41.44,4.73.06,17.38,3.78,9.63,10.3-2.99,2.01-5.98-1.09-10.82.23-13.8,3.87-1.25,15,5.04,18.8,11.45,6.76,22.3,7.5,30.81,22.81,3.83,7.52,1.37,11.18,5.48,14.51,3.28,3.51,21.75,3.55,25.03-.67.86-2.27-2.73-3.98-4-9.4-1.91-8.4,1.88-13.87,7.99-7.55,6.04,5.4,3.84,11.51,8.45,14.14,1.04.6,1.11.26,10.66.6,16.93-.43,5.54,4.77-4,9.26-5.97,2.34-8.68,2.12-11.71,5.18-10.14,10.67,2.84,12.19,14.07,10.82,16.72-1.72,35.05-8.34,34.44-22.81,1.21-11.91,1.82-17.86,2.82-20.22,1.67-3.73,3.26-7.91.66-12.81Zm-155.8-126.55c-6.49,1.5-11.51-5.71-8.52-11.71.99-3.45,4.14-11.4,7.99-11.11,6.06,1.06,9.38,18.9.52,22.81Zm4.51-101.9c-9.04,7.23-20.14-11.42-14.96-17.7,7.14-5.81,22.13,8.82,14.96,17.7Zm18.44,136.26c1.6-.25,4.45,2.68,3.86,4.66-2.95,3.03-6.16-2.97-3.86-4.66Zm24.59,31.1c.1,10.17-18.95,15.71-25.84,10.73-5-4.74-5.63-18.12-1.11-23.62.14-.6,13.21-5.94,14.74-5.78,11.56-.25,13.57,14.64,12.22,18.67Z"/>
  <path class="cls-1" d="m393.97,504.97c-11.8,2.77-13.14,7.17-19,14.39-5.75,5.08-11.07,6.81-14.07,14.22-4.91,8.16-22.8,19.71-26.36,28.14-3.45,7.27-2.57,14.17-1.33,23.85,1.85,33.71,24.07,36.44,54.36,34.95,14.63-.42,17.51-1.26,18.81-3.55,5.42-10.96-14.77-24.53.74-24.88,5.44,1.11,6.63,16.15,20.14,6.66,1.83-1.83,3.62-5.25,2.52-7.85-1.18-2.77-4.63-2.18-5.78-5.04-1.08-2.69.61-6.6,2.67-7.11,1.33-.33,1.99.96,3.7,1.48,3.97,1.21,9.88-2.84,12.74-7.7,2.68-4.56.74-6.53,3.85-14.81,6.93-11.19,3.7-22.21.59-25.33-.33-1.16-12.71-8.06-14.08-8.72-13.19-7.87-24.27-22.3-39.5-18.69Z"/>
  <path class="cls-1" d="m316.1,473c5.74,1.31,9.85.31,15.85,4.37,7.55,3.87,6.29,2.49,15.4,7.03,9.26,4.61,8.99,5.26,12.52,6.07,2.88,1.59,16.22.5,20.44,1.48,2.98,1.2,6.18,4.31,6.29,7.78.18,5.39-7.02,10.24-13.11,11.18-5.84.91-9.09-2.02-11.26.15-1.83,1.84,0,4.45-2.07,11.11-2.73,9.98-11.85,9.39-17.18,16.88-5.67,11.11-13.1,24.61-16.14,1.04-4.79-22.18-4.62-45.7-18.18-53.13-18.47-2.64-7.92-26.82,7.44-13.96Z"/>
  <path class="cls-1" d="m517.16,279c-.97-8.36-6.26-11.62-12.3-22.54-5.34-8.73-8.12-17.3-3.41-27.25,2.76-5.6-1.06-33.6-1.07-35.62-2.32-8.17-14.42-23.79-21-24.81-2.95,1.33-3.2,12.56,1.23,21.01,1.59,3.03,3.42,5,4.33,9.36.75,11.98,1.17,5.61-3.88,18.99-3.5,8.52-3.02,7.41-2.23,15.11.4,8.59-1.47,21.89-5.88,29.89-.83,2.43-2.33,6.85-1.11,11.33,1.18,4.39,3.58,3.7,5.43,8.57,2.34,10.72-1.25,8.25,6.47,18.22,3.31,6.97-.26,31.27-.12,31.74-1.74,4.97-25.98,29.79-24.66,39.11-1.55,7.17,5.82,9.78,1.77,14.66-2.23,3.13-1.06,5.83-2,12.77.27,17.13-14.51,11.02-21.04,7.87-6.25-2.33-6.91-5.55-9.95-10.65-5.09-3.38-3.17-3.64-4.13-8.83-.85-2.3-2.52-2.24-4.53-4.6-6.19-8.08-5.2-26.01-1.91-34.28,3.23-8.38,19.64-10.97,25.2-21.93,1.15-2.44.48-2.69.74-16.89,3.44-26.62-17.46-24.26-14.36-45.48,1.48-9.72,8.91-14.67,6.37-19.84-8.32-10.68-12.58-24.1-3.85-34.37,4.17-5.76,6.48-5.01,9.17-9.17,5.13-8.68,2.73-27.06-4.59-33.03-17.26-5.52-8.95-25.73-17.03-37.62-9.51-13.51-12.65-16.51-9.48-31.99,1.78-10.21,5.6-12.32,4.45-19.85-.71-6.05-5-13.68-10.22-6.66-12.16,15.08-18.08,51.14-11.04,59.06,2.64,3.07,10.85,13.97,9.11,19,.89.69-9.87,11.73-10.81,12.89-3.4,2.78.54,26.77.74,28.43,3.73,16.1,21.89,31.71,18.18,57.21-.23,12.58-.27,13.78-1.44,15.66-2.78,4.46-6.22,2.85-12.89,8.6-4.58,3.95-10.09,8.7-10.66,15.25,1.05,11.1,9.58,18,9.63,34.66.04,9.58-4.84,8.06-14.22,30.82-2.91,8.8-8.16,11.97-17.85,6.55-6.34-2.72-9.5-4.09-11.63-7-2.69-3.71-1.35-7.06-1.03-18.36.55-19.36.01-19.79,1.03-25.63,1.54-13.53,7.09-21.65,15.56-31.99,5.65-12.44,5.49-19.51,2.66-29.48-1.75-3.82-3.71-4.69-16.14-16.58-12.73-8.95-5.88-34.83-7.57-42.55-11.51-60.9,8.82-33.81,9.94-67.21-.73-11.99-7.56-17.85-11.81-26.35-2.59-8.95-2.07-28.2-2.7-39.25,1.03-11-2.36-10.61-10.51-16.29-1.84-.79-8.93-16.04-12.55-17.77-7.27-3.5-10.04-3.32-6.89,13.77,5.37,23.78,13.87,32.85-.56,54.65-3.61,4.87-4.12,13.15-1.67,17.88,3.52,11.38-4.76,15.97-1.92,29,3.37,12.65,7.15,13.02,13.81,18.43,4.71,5.18,1.5,9.43,3.7,29.77.36,3.35.92,7.47-.59,12.56-3.21,8.53-9.01,13.71-3.91,27.67,2.17,4.2,4.59,4.35,4.79,7.46.27,3.85-3.28,5.59-7.26,10.96-7.56,8.54-10.13,24.49-1.03,34.51,4.37,5.87,6.93,4.88,8.72,9.06,1.98,4.61-.65,6.94-2.79,20.27-1.34,8.3-.41,7.91-1.78,13.92-1.87,8.2-3.36,7.85-5.18,16.29-1.2,5.55-1.16,7.94-3.41,11.4-4.91,6.72-18.7,17.96-26.15,10.86-1.56-2.15.64-4.14-.81-7.89-6.15-8.22-10.57-7.3-10.96-20.29-1.49-14.76,7.68-27.18,10.66-33.25,4.18-7.01,4.48-7.76,1.44-17.11-3.68-13-17.41-23.98-16.44-30.66.4-2.41,1.41-1.87,3-6,2.52-6.56,1.78-12.67,1.49-14.89-1-7.48-3.71-8.16-2.96-12.89.7-4.46,3.28-4.8,5.03-9.62,2.6-8.87-2.7-27.08-7.55-35.7-6.08-9.71-8.12-10.54-8.14-15.54-.03-6.87,5.58-7.6,5.92-16.15,1.06-4.32-2.91-13.93-5.62-19.75-2.53-8.3-.32-18.57-.49-25.54-1.11-7.21-5.65-40.01-5-38.55.29-16.52-6.75-9.52-12.89.15-8.96,18-4.03,30.75-3,42.84-2.95,10.63-8.01,14.78-2.44,27.43.58,4.72-1.44,8.53-2.23,10.12-2.98,6.01-4.62,13.86-7.59,29.66-2.6,13.81-5.01,26.64,1.68,33.02,3.15,3,4.92,1.36,10.24,5.3,6.45,3.59,18.24,22.22,7.21,34.43-15.46,8.33-18.56,10.54-18.87,39.55-.25,27.35-2.03,13.21,11.22,32.43,8.6,9.44,2.71,13.93,3.21,26.55.86,10.7,7.04,16.02,3.78,20.44-13.46,9.61-12.33,13.29-13.33,33,.38,15.43-4.92,27.89-5.88,40.7.53,18.63,15.56,14.25,29.99,22.5,2.88,2.84,4.3,4.36,8.37,2.67,6.19-2.08,6.95-8.39,10.07-8.45,3.57-.06,3.93,8.15,10.51,11.56,2.77,1.43,3.87.4,10.37.89,3.53.27,5.63.74,15.89,3.22,26.52,6.04,24.35,6.62,46.46,14.99,19.02,6.45,17.59,2.66,29.77,8.15,8.11,3.66,17.6,9.32,22.06,5.78,1.7-1.36,1.62-3.35,4.6-5.34,2.4-1.6,6.59-3.42,8.29-1.93,2.96,2.6-3.97,13.02-.91,15.5,4.85.54,13.82-.4,17.35,4.64,2.71,3.71-.93,7.44,2.37,12.3,19.99,22.28,32.01-4.11,27.25-19.55-6.97-21.11,11.01-3.05,10.07-29.32,1.27-12.07,5.76-10.54,7.85-23.11,2.26-13.56-1.98-22.65,2.95-28.13,2.25-1.66,5-8.73,3.71-12.2-.21-5.94,6.58-7.41,12.66-16.23,8.22-11.03,7.68-25.01,1.85-40.47-1.7-8.41-1.09-19.56-2.96-29.28-4.03-18.89-7.99-18.59,4.11-28.55,5.83-3.53,9.19-5,8.33-12.79Zm-268.82-86.89c-10.93,2.82-13.16-6.4-11.63-17.49.33-4.54.62-8.74,2.37-9.18,1.96-.49,3.18,4.39,10.14,11.25,6.95,4.74,5.97,11.71-.89,15.41Zm-5.18,97.01c-6.56-6.66-6.45-21.95,2.44-23.85,2.7-.34,3.51,1.61,7.47,1.93,2.38.18,2.38-.5,3.93-.15,10.5,3.91,10.51,26.01,1.34,30.43-7.24,6.82-10.52-1.87-15.18-8.37Zm28.81,116.56c-17.07,14.78-35.98,8.27-23.4-15.03,2.43-4.58,5.59-10.53,9.92-10.58,2.24-.03,2.91,1.52,5.92,1.33,3.32-.22,4.08-2.2,6.52-1.77,10.49,5.03,6.75,19.51,1.04,26.06Zm14.36,40.22c-4.63,3.26-10.67-2.86-9.92-6.52,3.41-3.48,12.11,1.07,9.92,6.52Zm35.72-324.25c-3.94-1.58-3.37-10.33-2.08-15.12,1.52-6.66,4.96-8.95,8.64-1.09,5.87,7.34,2.1,17.44-6.56,16.21Zm20.78,261.15c-.59,9.68-6.89,18.91-16.29,9.78-1.27-1.02-5.55-4.56-6.96-10.96-1.7-3.45,1.25-20.81,11.84-21.03,6.2,2.8,11.78,13.75,11.41,22.21Zm4.14-116.56c-3,3.72-14.31,4.34-18.33-.56-3.63-4.47-.27-17.98,5.99-19.44,3.42-.87,14.84,17.01,12.33,20Zm62.65-81.09c-6.46-14.38,6.91-17.88,13.12-9.67,11.75,10.63-7.83,33.93-13.12,9.67Zm-6.71,235.99c-1.76,5.63-3.79,10.66-9.57,3.12-6.64-7.67-12.38-13.37-7.86-25.47,5.71-10.8,14.21-.06,17.64,8.44,1.99,6.28.51,11.49-.2,13.91Zm6.38-111.03c-7.4-3.43-10.48-17.67-4.33-22.88,7.66-4.76,20.14,9.21,19.88,16.44-2.28,6.49-8.27,8.92-15.56,6.44Zm60.32,152.67c-4.32,11.65-17.92,13.58-25.32-.16-2.59-6.61-.21-22.29,5.47-26.21,5.93-2.15,11.53-1.91,17.48,2.82,4.42,6.65,5.54,14.66,2.37,23.55Zm18.67-87.68c-2.61,5.56-8.2,4.16-10.22-.74-3.14-7.31,9.5-21.72,13.17-11.85,2.12,5.22-1.64,10.67-2.95,12.59Z"/>
</svg>